<svg xmlns="http://www.w3.org/2000/svg" viewBox="0 0 48.95 48.94"><defs><style>.cls-1{fill:#0c306f;}</style></defs><g id="Layer_2" data-name="Layer 2"><g id="icons"><g id="base-nautique"><path class="cls-1" d="M3.85,48.94c-1.93,0-2.64-.74-2.8-.95l-.13-.12C.55,47.56-.82,46,.7,41.26c1.47-4.61,10.15-20,18.34-27C24.84,9.33,36.28.88,47.65,0a1.22,1.22,0,0,1,.94.35,1.18,1.18,0,0,1,.35.94C48.06,12.67,39.61,24.1,34.65,29.9c-7,8.2-22.36,16.88-27,18.34A12.78,12.78,0,0,1,3.85,48.94ZM47.42,1.53c-10.84,1-21.8,9.11-27.4,13.9C12.16,22.15,3.52,37.36,2.13,41.72c-1.26,3.94-.23,5-.22,5l0,0,.23.23c.05,0,1.12,1.07,5.05-.19,4.37-1.39,19.58-10,26.29-17.88C38.3,23.33,46.42,12.37,47.42,1.53Zm.35,0Z"/><path class="cls-1" d="M18.27,35a4.39,4.39,0,0,1-3.22-1.18c-2.29-2.29-1.17-7.25,2.72-12.07a.76.76,0,0,1,1.06-.11.75.75,0,0,1,.11,1.05c-3.28,4.07-4.5,8.4-2.83,10.07.9.9,2.66,1,4.81.23a20.48,20.48,0,0,0,7.23-4.84.74.74,0,0,1,1.06,0,.75.75,0,0,1,0,1.06,21.75,21.75,0,0,1-7.79,5.19A9.62,9.62,0,0,1,18.27,35Z"/><path class="cls-1" d="M30.84,26.92a.74.74,0,0,1-.46-.16.76.76,0,0,1-.13-1.05c3.07-4,4.12-8,2.51-9.65-.91-.91-2.67-1-4.82-.23a20.19,20.19,0,0,0-7.22,4.84.75.75,0,0,1-1.06,0,.74.74,0,0,1,0-1.06,21.67,21.67,0,0,1,7.78-5.2c2.76-1,5-.76,6.38.59,2.22,2.22,1.26,6.89-2.38,11.62A.74.74,0,0,1,30.84,26.92Z"/><path class="cls-1" d="M9.83,14.58A2,2,0,0,1,8.42,14L4.93,10.51a4.09,4.09,0,0,1,5.78-5.78l3.48,3.49a2,2,0,0,1,0,2.82l-2.95,3A2,2,0,0,1,9.83,14.58ZM7.82,5A2.61,2.61,0,0,0,6,5.79,2.61,2.61,0,0,0,6,9.45l3.49,3.48a.5.5,0,0,0,.7,0l3-2.95a.48.48,0,0,0,0-.7L9.65,5.79A2.61,2.61,0,0,0,7.82,5Z"/><path class="cls-1" d="M41,44.89a4,4,0,0,1-2.89-1.2l-3.49-3.48a2,2,0,0,1,0-2.82l3-3a2,2,0,0,1,2.82,0l3.48,3.49a4.09,4.09,0,0,1-2.88,7Zm-2-9.54a.52.52,0,0,0-.35.14l-3,3a.5.5,0,0,0,0,.7l3.49,3.48a2.58,2.58,0,0,0,3.65,0,2.57,2.57,0,0,0,0-3.65l-3.48-3.49A.54.54,0,0,0,39,35.35Z"/><path class="cls-1" d="M36.68,37.15a.71.71,0,0,1-.53-.22L11.69,12.48a.75.75,0,0,1,0-1.06.74.74,0,0,1,1.06,0L37.21,35.87a.75.75,0,0,1,0,1.06A.74.74,0,0,1,36.68,37.15Z"/><path class="cls-1" d="M1.42,48.06a.79.79,0,0,1-.54-.22.75.75,0,0,1,0-1.06l7.31-7.31a.75.75,0,0,1,1.07,1.06L2,47.84A.79.79,0,0,1,1.42,48.06Z"/><path class="cls-1" d="M45.35,12.7a.76.76,0,0,1-.72-.53c-2.21-7.1-8-7.68-8-7.69a.74.74,0,0,1-.68-.81A.76.76,0,0,1,36.74,3c.28,0,6.81.68,9.32,8.74a.73.73,0,0,1-.49.93A.57.57,0,0,1,45.35,12.7Z"/></g></g></g></svg>