<svg xmlns="http://www.w3.org/2000/svg" viewBox="0 0 60 41.47"><defs><style>.cls-1{fill:#0c306f;}</style></defs><g id="Layer_2" data-name="Layer 2"><g id="icons"><g id="clim"><path class="cls-1" d="M58.18,1.5a.33.33,0,0,1,.32.32V24a.32.32,0,0,1-.32.32H1.82A.32.32,0,0,1,1.5,24V1.82a.33.33,0,0,1,.32-.32H58.18m0-1.5H1.82A1.83,1.83,0,0,0,0,1.82V24a1.82,1.82,0,0,0,1.82,1.82H58.18A1.82,1.82,0,0,0,60,24V1.82A1.83,1.83,0,0,0,58.18,0Z"/><rect class="cls-1" x="25.65" y="7.19" width="8.94" height="1.5"/><rect class="cls-1" x="4.12" y="16.26" width="51.41" height="1.5"/><rect class="cls-1" x="4.12" y="20.25" width="51.41" height="1.5"/><path class="cls-1" d="M29.3,39.78a.75.75,0,0,1-.45-1.36l1.38-1A1.48,1.48,0,0,0,30.9,36a1.77,1.77,0,0,0-1.25-1.34,3.22,3.22,0,0,1-2.23-2.53,3,3,0,0,1,1.28-2.82l1-.71a.75.75,0,1,1,.88,1.21l-1,.71a1.46,1.46,0,0,0-.67,1.4,1.76,1.76,0,0,0,1.24,1.33,3.21,3.21,0,0,1,2.23,2.53,2.94,2.94,0,0,1-1.27,2.82l-1.37,1A.82.82,0,0,1,29.3,39.78Z"/><path class="cls-1" d="M18.36,41.47a.74.74,0,0,1-.6-.31.75.75,0,0,1,.16-1l1.38-1A1.48,1.48,0,0,0,20,37.72a1.77,1.77,0,0,0-1.25-1.34,3.2,3.2,0,0,1-2.23-2.53A2.93,2.93,0,0,1,17.77,31l1-.71a.75.75,0,1,1,.89,1.21l-1,.71a1.47,1.47,0,0,0-.68,1.4A1.77,1.77,0,0,0,19.22,35a3.23,3.23,0,0,1,2.23,2.53,3,3,0,0,1-1.27,2.82l-1.38,1A.77.77,0,0,1,18.36,41.47Z"/><path class="cls-1" d="M40.69,41.47a.75.75,0,0,1-.61-.31.76.76,0,0,1,.16-1l1.38-1a1.46,1.46,0,0,0,.67-1.39A1.75,1.75,0,0,0,41,36.38a3.22,3.22,0,0,1-2.23-2.53A3,3,0,0,1,40.09,31l1-.71a.75.75,0,0,1,1,.16A.76.76,0,0,1,42,31.53l-1,.71a1.46,1.46,0,0,0-.67,1.39A1.75,1.75,0,0,0,41.55,35a3.22,3.22,0,0,1,2.22,2.53,2.93,2.93,0,0,1-1.27,2.82l-1.37,1A.82.82,0,0,1,40.69,41.47Z"/></g></g></g></svg>