<svg xmlns="http://www.w3.org/2000/svg" viewBox="0 0 68.88 59.15"><defs><style>.cls-1{fill:#0c306f;}</style></defs><g id="Layer_2" data-name="Layer 2"><g id="icons"><g id="equitation"><path class="cls-1" d="M12,56.48A.75.75,0,0,1,11.82,55l3.3-.67L19,46.81a.76.76,0,0,1,.67-.41c.35,0,8.65-.17,13.41-10.54a.75.75,0,0,1,1.36.62c-4.57,10-12.3,11.24-14.3,11.4l-3.83,7.45a.78.78,0,0,1-.52.4l-3.65.74Z"/><path class="cls-1" d="M41.93,36a.75.75,0,0,1-.16-1.49,27.7,27.7,0,0,0,6.6-2.41.75.75,0,1,1,.69,1.33,30,30,0,0,1-7,2.55Z"/><path class="cls-1" d="M34.76,36.8a24.57,24.57,0,0,1-4.35-.33.75.75,0,0,1-.6-.88.74.74,0,0,1,.88-.59,26.89,26.89,0,0,0,5.45.27l0,1.5h0Z"/><path class="cls-1" d="M55.53,43.25a.77.77,0,0,1-.39-.11l-3.73-2.27a.74.74,0,0,1-.25-1l4.28-7-5.68,2.3a.76.76,0,0,1-.59,0,.74.74,0,0,1-.4-.43l-2.65-7.32a.75.75,0,1,1,1.41-.51l2.38,6.59L57,30.55a.75.75,0,0,1,.92,1.09L52.83,40,55,41.3l.82-4.14a.69.69,0,0,1,.14-.3l4.63-6.26a1.27,1.27,0,0,0-1.22-2l-5.56.9A.74.74,0,0,1,53,29a.75.75,0,0,1,.42-.89c.08,0,2.15-1.09,1.45-5.42a.75.75,0,0,1,1.49-.24,8.07,8.07,0,0,1-.6,5.25l3.4-.55a2.8,2.8,0,0,1,2.58,1,2.75,2.75,0,0,1,.08,3.39l-4.53,6.13-1,5a.73.73,0,0,1-.44.54A.63.63,0,0,1,55.53,43.25Z"/><path class="cls-1" d="M36.06,23.29a.75.75,0,0,1-.23-1.46c1.66-.53,3.16-1.07,4.46-1.63a.75.75,0,0,1,.59,1.38,48.5,48.5,0,0,1-4.6,1.68A.83.83,0,0,1,36.06,23.29Z"/><path class="cls-1" d="M65,28.66l-.24,0a2.48,2.48,0,0,1-2-1.17,4.07,4.07,0,0,1-.26-2.92A8.18,8.18,0,0,1,59.22,22c-2.52-.43-4.45,1.84-4.46,1.86a.76.76,0,0,1-1.06.1.75.75,0,0,1-.1-1.05c.11-.13,2.66-3.17,6.22-2.31a.79.79,0,0,1,.42.27c.7.92,2.18,2.36,3.24,2.36h.06a.75.75,0,0,1,.61.32.76.76,0,0,1,.09.7,3.54,3.54,0,0,0-.12,2.49,1,1,0,0,0,.86.45.53.53,0,0,0,.46-.16c1.15-1,1.79-4.83,1.93-7.13l-1.2-4.48a.7.7,0,0,1,0-.43L66.82,13l-2,1a.77.77,0,0,1-.75,0,11.85,11.85,0,0,0-10.18-.85,16.45,16.45,0,0,0-4.85,3.21,32,32,0,0,1-3,2.41.75.75,0,1,1-.85-1.23,32.91,32.91,0,0,0,2.91-2.31,17.67,17.67,0,0,1,5.26-3.47,13.14,13.14,0,0,1,11.18.75l3.25-1.69a.74.74,0,0,1,.83.1.72.72,0,0,1,.23.8l-1.17,3.46,1.18,4.38a1,1,0,0,1,0,.24c0,.67-.44,6.59-2.47,8.3A2.09,2.09,0,0,1,65,28.66Z"/><path class="cls-1" d="M8.32,59.15a.79.79,0,0,1-.37-.1.76.76,0,0,1-.38-.6l-.38-5.14a.75.75,0,0,1,.75-.8H9.63L13.4,41.92a.74.74,0,0,1,.41-.44.76.76,0,0,1,.61,0,1.92,1.92,0,0,0,1.42,0,3,3,0,0,0,1.33-2,5.68,5.68,0,0,0-.6-3.65c-.81-2.07-1.82-4.64.7-8.31,4.07-5.91,9.68-4,9.74-4a.75.75,0,1,1-.49,1.41c-.19-.06-4.61-1.48-8,3.46-2.07,3-1.33,4.91-.54,6.91a7,7,0,0,1,.65,4.59,4.29,4.29,0,0,1-2.15,3,3.23,3.23,0,0,1-1.89.25L10.87,53.51a.76.76,0,0,1-.71.5H8.75L9,57.22l1.9-.95,5.46-11.66a.77.77,0,0,1,.66-.43c.45,0,10.87-.34,13.24-10.08a.75.75,0,1,1,1.46.36c-2.34,9.62-11.93,11-14.19,11.19l-5.38,11.5a.84.84,0,0,1-.35.35L8.66,59.07A.81.81,0,0,1,8.32,59.15Z"/><path class="cls-1" d="M11.46,57.58a.75.75,0,0,1-.71-.5l-1.3-3.56A.75.75,0,1,1,10.86,53l1.3,3.57a.75.75,0,0,1-.45,1A.74.74,0,0,1,11.46,57.58Z"/><path class="cls-1" d="M56.18,40a.7.7,0,0,1-.42-.13L53.09,38a.75.75,0,0,1-.21-1,.76.76,0,0,1,1-.2l2.67,1.81a.75.75,0,0,1,.2,1A.74.74,0,0,1,56.18,40Z"/><path class="cls-1" d="M42.39,17.94h0a.75.75,0,0,1-.72-.78c.1-2.21,1.92-3.47,3.38-4.49a6.49,6.49,0,0,0,1.81-1.54,5.28,5.28,0,0,1,5.32-3c1.69.12,2-.12,3.61-1.25l.8-.57a6,6,0,0,1,7.68,1c1.7,1.82,1.36,5.58,1.31,6a.73.73,0,0,1-.82.66.75.75,0,0,1-.67-.82c.1-1,.13-3.7-.91-4.82a4.46,4.46,0,0,0-5.73-.77l-.79.56C55,9.33,54.28,9.82,52,9.66a3.86,3.86,0,0,0-3.92,2.23,7.39,7.39,0,0,1-2.24,2c-1.32.91-2.68,1.85-2.74,3.31A.76.76,0,0,1,42.39,17.94Z"/><path class="cls-1" d="M45.41,22.45a18.38,18.38,0,0,1-14-7,.75.75,0,1,1,1.16-1c5.76,7,12.8,6.59,14.15,6.44s1.25-.6,1.23-.79a1.06,1.06,0,0,0-1-.94c-9.33-1-13-7-13.16-7.25a.75.75,0,0,1,1.29-.78c0,.06,3.48,5.61,12,6.54A2.55,2.55,0,0,1,49.46,20c.06.63-.08,2.13-2.55,2.41A14.45,14.45,0,0,1,45.41,22.45Z"/><path class="cls-1" d="M35.52,38.81a.79.79,0,0,1-.44-.14.76.76,0,0,1-.27-.84l3.13-9.64c-2.36.6-7.15,1.52-9.7-.15-3.45-2.27-1.57-7.88-1.34-8.54.28-1.26,2.35-10.13,6.74-10.73a4.44,4.44,0,0,1,4.15,1.34,5.32,5.32,0,0,1,.75,5,.74.74,0,0,1-.93.51.75.75,0,0,1-.5-.94,3.84,3.84,0,0,0-.46-3.61,3,3,0,0,0-2.81-.84c-2.9.4-4.94,7.08-5.48,9.62l0,.1c0,.05-1.86,5.11.74,6.81,2.32,1.52,7.85.22,9.79-.41a.74.74,0,0,1,.76.19.73.73,0,0,1,.18.76l-2.87,8.83,3.85-2.72,2.81-8.3a1.29,1.29,0,0,0-.19-1.2,1.36,1.36,0,0,0-1.1-.52l-7,.26a.69.69,0,0,1-.61-.28.77.77,0,0,1-.14-.67l1.13-4a.75.75,0,0,1,1.44.4l-.84,3,5.94-.22A2.8,2.8,0,0,1,45,25.61l-2.88,8.53a.74.74,0,0,1-.28.37L36,38.68A.75.75,0,0,1,35.52,38.81Z"/><path class="cls-1" d="M41.6,38.81H35.52a.75.75,0,0,1,0-1.5H41.6a.23.23,0,0,0,.22-.31l-1.1-2.83a.75.75,0,1,1,1.4-.54l1.1,2.82A1.78,1.78,0,0,1,43,38.06,1.73,1.73,0,0,1,41.6,38.81Z"/><path class="cls-1" d="M5,43.62a15.93,15.93,0,0,1-4.48-.73A.74.74,0,0,1,0,42.13a.76.76,0,0,1,.62-.7,4.43,4.43,0,0,0,3.49-4.85,20.56,20.56,0,0,0-.48-3.4c-.52-2.53-.94-4.53,2.14-7.9,4.15-4.55,11.45-1.44,13.79.62A.75.75,0,0,1,19.62,27a.76.76,0,0,1-1.06.07c-1.45-1.28-8.06-4.71-11.69-.74-2.55,2.8-2.28,4.15-1.77,6.59a22.43,22.43,0,0,1,.51,3.64A5.94,5.94,0,0,1,3.12,42a8.3,8.3,0,0,0,5.64-.76c2.72-1.61,3.45-5,3.7-6.1a10.17,10.17,0,0,0-.47-3.8c-.47-2-.88-3.69.16-4.61,1.46-1.27,4.19.31,5.36,1,.1,0,.17.1.23.12l.15.08a.74.74,0,0,1,.26,1c-.39.65-1,.28-1.39.08-2.68-1.55-3.42-1.33-3.62-1.16-.36.32,0,2,.31,3.14a10.71,10.71,0,0,1,.47,4.46c-.28,1.27-1.11,5.13-4.4,7.07A8.67,8.67,0,0,1,5,43.62Z"/><path class="cls-1" d="M36.06,10.21A5.11,5.11,0,1,1,41.17,5.1,5.11,5.11,0,0,1,36.06,10.21Zm0-8.71a3.61,3.61,0,1,0,3.61,3.6A3.61,3.61,0,0,0,36.06,1.5Z"/><path class="cls-1" d="M42.93,5h0L32,4.27a.75.75,0,0,1-.7-.8.74.74,0,0,1,.79-.7L43,3.46a.75.75,0,0,1,0,1.5Z"/></g></g></g></svg>