<svg xmlns="http://www.w3.org/2000/svg" viewBox="0 0 66.55 60.18"><defs><style>.cls-1{fill:#0c306f;}</style></defs><g id="Layer_2" data-name="Layer 2"><g id="icons"><g id="foret"><path class="cls-1" d="M65.8,54.43H54.86a.75.75,0,0,1,0-1.5h9.69L59,42.41a.78.78,0,0,1,0-.74.77.77,0,0,1,.65-.36H61.2l-4.37-7.65a.77.77,0,0,1,0-.75.76.76,0,0,1,.65-.37H59l-5.31-8.28-3.6,6.32a.75.75,0,0,1-1.31-.74L53,22.44a.75.75,0,0,1,.63-.38.8.8,0,0,1,.65.34L61,32.88A.75.75,0,0,1,60.33,34H58.77l4.38,7.65a.76.76,0,0,1-.66,1.12h-1.6l5.57,10.52a.73.73,0,0,1,0,.73A.75.75,0,0,1,65.8,54.43Z"/><path class="cls-1" d="M56.06,59.67H52.13a.75.75,0,0,1,0-1.5h3.18V53.68a.75.75,0,0,1,1.5,0v5.24A.76.76,0,0,1,56.06,59.67Z"/><path class="cls-1" d="M13.89,53.37H.75A.75.75,0,0,1,.11,53a.73.73,0,0,1,0-.74L6.9,39.4H4.72A.76.76,0,0,1,4.07,39a.77.77,0,0,1,0-.75l5.38-9.42H7.32a.77.77,0,0,1-.66-.39.74.74,0,0,1,0-.76l8.08-12.6a.75.75,0,0,1,1.28,0l7,12.28a.77.77,0,0,1,0,.75.76.76,0,0,1-.65.37H19.82l1.42,2.29a.75.75,0,1,1-1.27.79L17.83,28.2a.75.75,0,0,1,.64-1.15H21.1L15.36,17,8.69,27.36h2.05a.76.76,0,0,1,.66,1.13L6,37.9H8.14A.75.75,0,0,1,8.81,39L2,51.87H13.89a.75.75,0,0,1,0,1.5Z"/><path class="cls-1" d="M17.18,59.67H12.46a.75.75,0,0,1-.75-.75v-6.3a.75.75,0,0,1,1.5,0v5.55h4a.75.75,0,0,1,0,1.5Z"/><path class="cls-1" d="M34.53,7.15a.74.74,0,0,1-.66-.38l-.21-.37a.76.76,0,0,1,.29-1,.74.74,0,0,1,1,.29l.21.36a.76.76,0,0,1-.29,1A.77.77,0,0,1,34.53,7.15Z"/><path class="cls-1" d="M16.92,51.55H16.5a.75.75,0,0,1,0-1.5h.42a.75.75,0,0,1,0,1.5Z"/><path class="cls-1" d="M52.13,51.55H16.92a.74.74,0,0,1-.64-.37.73.73,0,0,1,0-.74L24.2,35.66H21.61A.75.75,0,0,1,21,34.54L27.5,23.1H25.55a.74.74,0,0,1-.65-.37.73.73,0,0,1,0-.74L33.87,6a.77.77,0,0,1,.66-.39h0a.74.74,0,0,1,.65.39l9,16a.74.74,0,0,1-.65,1.11h-2l6.53,11.44a.75.75,0,0,1-.65,1.12H44.84l7.95,14.78a.75.75,0,0,1,0,.74A.74.74,0,0,1,52.13,51.55Zm-34-1.5h32.7L42.93,35.27a.75.75,0,0,1,.66-1.11h2.55L39.6,22.73a.76.76,0,0,1,.65-1.13h2L34.53,7.93,26.83,21.6h2a.75.75,0,0,1,.65.38.72.72,0,0,1,0,.75L22.91,34.16h2.55a.74.74,0,0,1,.64.37.75.75,0,0,1,0,.74Z"/><path class="cls-1" d="M34.52,7.15a.8.8,0,0,1-.36-.09.75.75,0,0,1-.29-1l.2-.37a.75.75,0,1,1,1.31.73l-.2.37A.75.75,0,0,1,34.52,7.15Z"/><path class="cls-1" d="M52.54,51.55h-.41a.75.75,0,0,1,0-1.5h.41a.75.75,0,1,1,0,1.5Z"/><path class="cls-1" d="M38.2,60.18H31.54a.76.76,0,0,1-.75-.75V50.8a.76.76,0,0,1,.75-.75H38.2a.75.75,0,0,1,.75.75v8.63A.75.75,0,0,1,38.2,60.18Zm-5.91-1.5h5.16V51.55H32.29Z"/><path class="cls-1" d="M52.13,12.44a6.22,6.22,0,1,1,6.22-6.22A6.23,6.23,0,0,1,52.13,12.44Zm0-10.94a4.72,4.72,0,1,0,4.72,4.72A4.73,4.73,0,0,0,52.13,1.5Z"/></g></g></g></svg>