<svg xmlns="http://www.w3.org/2000/svg" viewBox="0 0 57.2 59.11"><defs><style>.cls-1{fill:#0c306f;}</style></defs><g id="Layer_2" data-name="Layer 2"><g id="icons"><g id="garderie-enfants"><path class="cls-1" d="M40.09,59.11H31.44a1.19,1.19,0,0,1-1.18-1.36A41.72,41.72,0,0,1,33,47.54c.47-1,.86-1.93,1.22-2.74,1.2-2.75,1.93-4.42,3.08-5.24.35-.25.94-.65,1.64-1.11a50.31,50.31,0,0,0,5-3.62,9.26,9.26,0,0,0,.74-1.08c.51-.85,1-1.65,1.83-1.83a2,2,0,0,1,2,.72,2.32,2.32,0,0,1,.16,2.55A10.26,10.26,0,0,1,47,37.36c-1,1.13-2,2.4-2.17,3.5a4.47,4.47,0,0,0,3-.93c1.72-1.39,3.51-5.25,3.68-5.86.24-.83,1.06-5.49,1.13-6.15a2.38,2.38,0,0,1,2.08-2.19,2.16,2.16,0,0,1,2.32,1.61c.58,1.84-.79,7.53-1.07,8.65s-2.93,8.37-6.26,12.43c-2.09,2.13-8.27,4.49-9.63,4.8a.74.74,0,0,1-.9-.56.76.76,0,0,1,.56-.9c1.4-.32,7.18-2.64,8.86-4.34,3.11-3.81,5.65-10.89,5.93-11.82.6-2.41,1.43-6.69,1.08-7.8a.72.72,0,0,0-.74-.58.87.87,0,0,0-.73.85c-.08.75-.93,5.52-1.18,6.4s-2.15,5-4.19,6.62a6,6,0,0,1-4.17,1.26,1.42,1.42,0,0,1-1.3-1.49c.1-1.62,1.4-3.14,2.54-4.47a10.15,10.15,0,0,0,1.35-1.81c.11-.25.27-.73,0-1a.55.55,0,0,0-.5-.19c-.21.06-.62.74-.86,1.14A10.36,10.36,0,0,1,45,35.81a42.3,42.3,0,0,1-5.29,3.88c-.69.46-1.26.85-1.6,1.09-.82.58-1.52,2.19-2.59,4.62-.35.82-.76,1.74-1.22,2.76a39.53,39.53,0,0,0-2.53,9.45h8.3a.75.75,0,0,1,0,1.5Z"/><path class="cls-1" d="M51.92,35.86a.74.74,0,0,1-.71-.51c0-.05-1.79-5.33-2.24-6.57a2.32,2.32,0,0,1,.91-2.67,1.87,1.87,0,0,1,2.36.14A6.4,6.4,0,0,1,53.86,29a.75.75,0,1,1-1.45.39,4.86,4.86,0,0,0-1.18-2,.37.37,0,0,0-.51,0,.83.83,0,0,0-.34.92c.46,1.25,2.18,6.39,2.25,6.6a.75.75,0,0,1-.47,1A.67.67,0,0,1,51.92,35.86Z"/><path class="cls-1" d="M25.76,59.11H17.11a.75.75,0,0,1,0-1.5h8.3a39.53,39.53,0,0,0-2.53-9.45q-.69-1.53-1.23-2.76c-1.06-2.43-1.76-4-2.58-4.62-.33-.24-.91-.63-1.59-1.08a43.48,43.48,0,0,1-5.3-3.89,10.36,10.36,0,0,1-.88-1.28c-.24-.4-.65-1.08-.86-1.14a.56.56,0,0,0-.5.19c-.22.27-.06.75.06,1a9.55,9.55,0,0,0,1.34,1.81c1.14,1.33,2.44,2.85,2.54,4.47a1.42,1.42,0,0,1-1.3,1.49,6,6,0,0,1-4.17-1.26c-2-1.64-3.95-5.79-4.19-6.62S3.12,28.82,3,28.07a.87.87,0,0,0-.73-.85.73.73,0,0,0-.74.58c-.35,1.11.48,5.39,1.09,7.83.27.9,2.82,8,6,11.84,1.63,1.65,7.42,4,8.81,4.29a.76.76,0,0,1,.56.9.74.74,0,0,1-.9.56c-1.36-.31-7.54-2.67-9.59-4.75-3.36-4.1-6-11.3-6.3-12.45S-.44,29.18.15,27.34a2.15,2.15,0,0,1,2.31-1.61,2.38,2.38,0,0,1,2.08,2.19c.07.67.9,5.32,1.13,6.15.17.61,2,4.47,3.68,5.86a4.47,4.47,0,0,0,3,.93c-.12-1.1-1.21-2.37-2.17-3.5a10.63,10.63,0,0,1-1.58-2.17,2.32,2.32,0,0,1,.16-2.55,2.05,2.05,0,0,1,2-.72c.83.18,1.32,1,1.83,1.83a9.26,9.26,0,0,0,.74,1.08,50.69,50.69,0,0,0,5,3.62c.69.47,1.28.86,1.63,1.11C21.1,40.38,21.83,42,23,44.8c.35.81.75,1.72,1.22,2.74A42.33,42.33,0,0,1,27,57.75a1.22,1.22,0,0,1-.29,1A1.18,1.18,0,0,1,25.76,59.11Z"/><path class="cls-1" d="M5.28,35.86a.67.67,0,0,1-.24,0,.75.75,0,0,1-.47-1c.07-.21,1.79-5.35,2.25-6.6a.83.83,0,0,0-.34-.92.37.37,0,0,0-.51,0,4.93,4.93,0,0,0-1.18,2A.75.75,0,0,1,3.34,29,6.46,6.46,0,0,1,5,26.25a1.87,1.87,0,0,1,2.36-.14,2.32,2.32,0,0,1,.91,2.67C7.78,30,6,35.3,6,35.35A.74.74,0,0,1,5.28,35.86Z"/><path class="cls-1" d="M28.58,30a6.56,6.56,0,0,1-2.72-.54.75.75,0,1,1,.65-1.35,5.62,5.62,0,0,0,4.23,0,.75.75,0,0,1,1,.42.76.76,0,0,1-.42,1A7.52,7.52,0,0,1,28.58,30Z"/><path class="cls-1" d="M28.64,11.46a5.73,5.73,0,1,1,5.72-5.73A5.74,5.74,0,0,1,28.64,11.46Zm0-10a4.23,4.23,0,1,0,4.22,4.23A4.23,4.23,0,0,0,28.64,1.5Z"/><path class="cls-1" d="M25.21,41.26h-.07a2.47,2.47,0,0,1-1.81-.87l-4.59-5.47a3.31,3.31,0,0,1-.12-4.12L22,26.21h0a2.86,2.86,0,0,1,1.88-1.11,2.83,2.83,0,0,1,2.69,4.42l-2.56,3.63,3.12,4.2A2.44,2.44,0,0,1,27,40.5,2.5,2.5,0,0,1,25.21,41.26Zm-2-14.15L19.82,31.7A1.81,1.81,0,0,0,19.89,34l4.59,5.47a1,1,0,0,0,.7.34.88.88,0,0,0,.72-.3A.94.94,0,0,0,26,38.24l-3.45-4.63a.77.77,0,0,1,0-.88l2.87-4.07a1.32,1.32,0,0,0-.27-1.81,1.32,1.32,0,0,0-1.86.26Z"/><path class="cls-1" d="M34.65,27.07a.74.74,0,0,1-.74-.62l-.62-3.56a.77.77,0,0,1,.38-.79c.5-.27.44-2.6-.12-4.79a.76.76,0,0,1,.37-.84.77.77,0,0,1,.91.14l5.78,6.11a.93.93,0,0,0,.65.29A.92.92,0,0,0,42,21.52l-.73-.94c-2.11-2.71-7-9-9-9.33H31a.76.76,0,0,1-.75-.76A.75.75,0,0,1,31,9.75h1.44c2.42.34,6.28,5.08,10,9.9l.73.93a2.42,2.42,0,0,1-1.9,3.92h0a2.39,2.39,0,0,1-1.72-.76l-4.06-4.29c.13,1.34.07,2.8-.61,3.59l.54,3.15a.75.75,0,0,1-.61.86Z"/><path class="cls-1" d="M32,41.26a2.5,2.5,0,0,1-1.78-.76A2.44,2.44,0,0,1,30,37.35l3.12-4.2-2.56-3.63a2.83,2.83,0,0,1,2.69-4.42,2.86,2.86,0,0,1,1.88,1.11l3.42,4.59a3.3,3.3,0,0,1-.12,4.12l-4.59,5.47a2.47,2.47,0,0,1-1.81.87Zm.9-14.68a1.29,1.29,0,0,0-.8.27,1.32,1.32,0,0,0-.27,1.81l2.87,4.07a.77.77,0,0,1,0,.88l-3.45,4.63a.94.94,0,0,0,.07,1.22.88.88,0,0,0,.72.3,1,1,0,0,0,.7-.34L37.31,34a1.79,1.79,0,0,0,.07-2.25L34,27.11h0a1.28,1.28,0,0,0-.87-.52Z"/><path class="cls-1" d="M30.87,23.51h-7.7a.75.75,0,0,1,0-1.5h7.7a.75.75,0,0,1,0,1.5Z"/><path class="cls-1" d="M22.55,27.07h-.13a.75.75,0,0,1-.61-.86l.55-3.15c-.69-.79-.75-2.25-.62-3.58l-4.06,4.28a2.39,2.39,0,0,1-1.72.76,2.51,2.51,0,0,1-1.75-.71A2.43,2.43,0,0,1,14,20.59l.73-.93c3.75-4.82,7.6-9.56,9.92-9.89l1.35,0a.75.75,0,0,1,.76.74.76.76,0,0,1-.74.76H24.79c-1.83.27-6.75,6.61-8.86,9.32l-.73.94a.92.92,0,0,0,.07,1.22.85.85,0,0,0,.67.27.93.93,0,0,0,.65-.29l5.79-6.11a.75.75,0,0,1,1.27.7c-.56,2.19-.62,4.52-.12,4.79a.77.77,0,0,1,.38.79l-.62,3.56A.74.74,0,0,1,22.55,27.07Z"/></g></g></g></svg>