<svg xmlns="http://www.w3.org/2000/svg" viewBox="0 0 59.15 59.15"><defs><style>.cls-1{fill:#0c306f;}</style></defs><g id="Layer_2" data-name="Layer 2"><g id="icons"><g id="horse-club"><path class="cls-1" d="M29.57,59.15A29.58,29.58,0,1,1,59.15,29.57,29.61,29.61,0,0,1,29.57,59.15Zm0-57.65A28.08,28.08,0,1,0,57.65,29.57,28.1,28.1,0,0,0,29.57,1.5Z"/><path class="cls-1" d="M31.29,54.53a.74.74,0,0,1-.74-.82c.73-7.22-3.44-11.5-5.22-13.33L24.94,40c-7.43-7.41-9.72-14.71-6.79-21.7A12.41,12.41,0,0,1,25,11.2a14.76,14.76,0,0,1,8.91-.5c2-2.21,5.69-2.56,5.86-2.57a.72.72,0,0,1,.6.22.79.79,0,0,1,.21.61,7.65,7.65,0,0,1-2.36,4,19.31,19.31,0,0,1,3.24,4.11,6.56,6.56,0,0,1,.51,3.15c.54,1.23,3.6,8.3,3.81,8.77.5,1.2-1.69,3.91-3.15,4.64-1.2.59-3.12-.7-3.68-1.11a.76.76,0,0,1-.3-.71c.27-2-.52-3.17-2.36-3.49a8.55,8.55,0,0,1-4-1.58,23.6,23.6,0,0,0,2.32,3.44c.3.4.61.78.91,1.15a18.22,18.22,0,0,1,3,4.55,11.36,11.36,0,0,1,.77,3c1.13,9.46-7.13,15.27-7.48,15.51A.75.75,0,0,1,31.29,54.53ZM30.14,11.74a12.15,12.15,0,0,0-4.6.85,11,11,0,0,0-6,6.28c-4,9.6,3.88,17.47,6.47,20.05l.41.41a17.58,17.58,0,0,1,5.72,12.79c2.19-2,6.34-6.66,5.58-13a10,10,0,0,0-.66-2.59A17.08,17.08,0,0,0,34.3,32.3c-.31-.38-.63-.77-.94-1.17-1.91-2.48-3.75-5.11-3.27-7.59a5.17,5.17,0,0,1,2.71-3.38.78.78,0,0,1,1.13.64.81.81,0,0,1-.1.39,3.72,3.72,0,0,1-.22.33c-.41.58-1.5,2.15-1,3.35.39.93,1.75,1.63,3.92,2a4.11,4.11,0,0,1,3.63,4.7,3.64,3.64,0,0,0,1.79.74,6.43,6.43,0,0,0,2.38-2.81c-.47-1.1-3.83-8.83-3.83-8.83a.77.77,0,0,1-.06-.42,5,5,0,0,0-.37-2.55,22.16,22.16,0,0,0-3.48-4.2.76.76,0,0,1-.22-.57.75.75,0,0,1,.27-.54,9.06,9.06,0,0,0,2.1-2.57,7,7,0,0,0-4,2.19.75.75,0,0,1-.9.24A11.94,11.94,0,0,0,30.14,11.74Z"/><path class="cls-1" d="M31.29,54.53h0a.76.76,0,0,1-.71-.79C30.87,48.09,28.72,46,24,41.28c-1.23-1.22-2.62-2.59-4.15-4.23a24.67,24.67,0,0,1-6.37-12.6A17.8,17.8,0,0,1,18.14,9.82c8.07-8.39,19.78-4.07,19.9-4a.76.76,0,0,1-.25,1.46c-1.61,0-4.33,2.49-5.57,4.24A.75.75,0,0,1,31,10.63a16.1,16.1,0,0,1,4.27-4c-3.57-.74-10.71-1.28-16.05,4.27A16.3,16.3,0,0,0,15,24.25a23.42,23.42,0,0,0,6,11.78c1.52,1.61,2.9,3,4.11,4.18,4.75,4.7,7.36,7.29,7,13.62A.75.75,0,0,1,31.29,54.53Z"/><path class="cls-1" d="M41.63,30.73l-.26-.34c-.28-.37.06-1.52.49-2a1.1,1.1,0,0,1,1.49-.16l.1.06.06.1a.93.93,0,0,1,.07.82,1,1,0,0,1-.78.59c-.23.06-.23.06-.47.39l-.22.29Z"/><path class="cls-1" d="M38.37,22h-.12A1.52,1.52,0,0,1,37,21a4.05,4.05,0,0,1,.43-2.43l.29-.61.5.46c.45.43,1.89,1.88,1.35,2.89A1.29,1.29,0,0,1,38.37,22ZM38,19.68a2,2,0,0,0-.11,1,.5.5,0,0,0,.42.34.3.3,0,0,0,.31-.18C38.72,20.68,38.45,20.2,38,19.68Z"/><path class="cls-1" d="M39.36,32.69h-.1a.74.74,0,0,1-.64-.84c.27-2-.52-3.17-2.36-3.49-4.33-.75-5.45-2.56-5.62-3.94a4.68,4.68,0,0,1,2.23-4.29.75.75,0,0,1,.62,1.37,3.31,3.31,0,0,0-1.36,2.73c.2,1.6,2.5,2.33,4.39,2.65,2.62.46,4,2.39,3.58,5.17A.74.74,0,0,1,39.36,32.69Z"/></g></g></g></svg>