<svg xmlns="http://www.w3.org/2000/svg" viewBox="0 0 45.39 59.15"><defs><style>.cls-1{fill:#0c306f;}</style></defs><g id="Layer_2" data-name="Layer 2"><g id="icons"><g id="landry"><path class="cls-1" d="M40.17,59.15H5.22A5.23,5.23,0,0,1,0,53.93V14.57A5.23,5.23,0,0,1,5.22,9.35h35a5.23,5.23,0,0,1,5.22,5.22V53.93A5.23,5.23,0,0,1,40.17,59.15ZM5.22,10.85A3.73,3.73,0,0,0,1.5,14.57V53.93a3.73,3.73,0,0,0,3.72,3.72h35a3.73,3.73,0,0,0,3.72-3.72V14.57a3.73,3.73,0,0,0-3.72-3.72Z"/><path class="cls-1" d="M22.69,52.21a14.06,14.06,0,0,1-14-14,13.87,13.87,0,0,1,2.74-8.34.74.74,0,0,1,1-.16.76.76,0,0,1,.16,1,12.37,12.37,0,0,0-2.45,7.45,12.52,12.52,0,1,0,7.26-11.39.74.74,0,0,1-1-.36.76.76,0,0,1,.36-1,14,14,0,0,1,5.92-1.3h0a14,14,0,1,1,0,28.09Z"/><path class="cls-1" d="M15.31,38.92a.76.76,0,0,1-.75-.75A8.15,8.15,0,0,1,22.69,30a.75.75,0,0,1,0,1.5,6.65,6.65,0,0,0-6.63,6.64A.75.75,0,0,1,15.31,38.92Z"/><path class="cls-1" d="M22.69,46.3a.75.75,0,1,1,0-1.5,6.65,6.65,0,0,0,6.64-6.63.75.75,0,0,1,1.5,0A8.15,8.15,0,0,1,22.69,46.3Z"/><path class="cls-1" d="M11.25,18.25H7.55a.75.75,0,0,1,0-1.5h3.7a.75.75,0,0,1,0,1.5Z"/><path class="cls-1" d="M19,18.25h-3.7a.75.75,0,1,1,0-1.5H19a.75.75,0,0,1,0,1.5Z"/><path class="cls-1" d="M38,18.25H27.72a.75.75,0,0,1,0-1.5H38a.75.75,0,0,1,0,1.5Z"/><path class="cls-1" d="M22.52,10.85H8.45a3,3,0,0,1-3-3V7.69a3,3,0,0,1,3-3H22.52a3,3,0,0,1,3,3v.15A3,3,0,0,1,22.52,10.85ZM8.45,6.18A1.52,1.52,0,0,0,6.94,7.69v.15A1.52,1.52,0,0,0,8.45,9.35H22.52A1.52,1.52,0,0,0,24,7.84V7.69a1.52,1.52,0,0,0-1.52-1.51Z"/><path class="cls-1" d="M22.52,6.18H8.45a3,3,0,0,1-3-3V3a3,3,0,0,1,3-3H22.52a3,3,0,0,1,3,3v.15A3,3,0,0,1,22.52,6.18ZM8.45,1.5A1.52,1.52,0,0,0,6.94,3v.15A1.52,1.52,0,0,0,8.45,4.68H22.52A1.52,1.52,0,0,0,24,3.16V3A1.52,1.52,0,0,0,22.52,1.5Z"/></g></g></g></svg>