<svg xmlns="http://www.w3.org/2000/svg" viewBox="0 0 64.69 45.55"><defs><style>.cls-1{fill:#0c306f;}</style></defs><g id="Layer_2" data-name="Layer 2"><g id="icons"><g id="wifi"><path class="cls-1" d="M61.67,40.52H3a.74.74,0,0,1-.75-.75V2.39A.74.74,0,0,1,3,1.64H61.67a.75.75,0,0,1,.75.75V39.77A.75.75,0,0,1,61.67,40.52ZM3.78,39H60.92V3.14H3.78Z"/><path class="cls-1" d="M63.94,45.55H.75A.76.76,0,0,1,0,44.8v-5A.76.76,0,0,1,.75,39H63.94a.75.75,0,0,1,.75.75v5A.75.75,0,0,1,63.94,45.55ZM1.5,44.05H63.19V40.52H1.5Z"/><path class="cls-1" d="M14.7,11.39a.74.74,0,0,1-.75-.75V.75a.75.75,0,0,1,1.5,0v9.89A.75.75,0,0,1,14.7,11.39Z"/><path class="cls-1" d="M22.81,11.39a.75.75,0,0,1-.75-.75V.75a.75.75,0,0,1,1.5,0v9.89A.75.75,0,0,1,22.81,11.39Z"/><path class="cls-1" d="M41.88,11.39a.75.75,0,0,1-.75-.75V.75a.75.75,0,0,1,1.5,0v9.89A.74.74,0,0,1,41.88,11.39Z"/><path class="cls-1" d="M50,11.39a.75.75,0,0,1-.75-.75V.75a.75.75,0,0,1,1.5,0v9.89A.74.74,0,0,1,50,11.39Z"/><path class="cls-1" d="M56.47,33H35.41a.75.75,0,0,1-.75-.75V7.94a.74.74,0,0,1,.75-.75H56.47a.75.75,0,0,1,.75.75V32.28A.76.76,0,0,1,56.47,33Zm-20.31-1.5H55.72V8.69H36.16Z"/><path class="cls-1" d="M41.49,27.11c-2,0-4.09-1.57-4.13-6,0-3.69,1.69-6.07,4.3-6.07s4.13,2.21,4.13,5.92C45.79,26.51,42.78,27.11,41.49,27.11Zm.17-10.56c-1.73,0-2.8,1.75-2.8,4.56s1,4.5,2.63,4.5c2.44,0,2.8-2.91,2.8-4.64C44.29,19.64,44,16.55,41.66,16.55Z"/><path class="cls-1" d="M53.77,27H47.69a.76.76,0,0,1-.75-.75V25a.73.73,0,0,1,.23-.54,15.51,15.51,0,0,1,2.57-1.87C51.5,21.44,53,20.48,53,18.77a2.13,2.13,0,0,0-2.38-2.22,3.62,3.62,0,0,0-2.39.85.75.75,0,1,1-1-1.13,5.13,5.13,0,0,1,3.37-1.22,3.64,3.64,0,0,1,3.88,3.72c0,2.54-2.12,3.88-4,5.06a16.62,16.62,0,0,0-2.1,1.47v.16h5.33a.75.75,0,0,1,0,1.5Z"/><path class="cls-1" d="M29.29,33H8.22a.76.76,0,0,1-.75-.75V7.94a.75.75,0,0,1,.75-.75H29.29a.75.75,0,0,1,.75.75V32.28A.76.76,0,0,1,29.29,33ZM9,31.53H28.54V8.69H9Z"/><path class="cls-1" d="M14.31,27.11c-2,0-4.09-1.57-4.13-6,0-3.69,1.69-6.07,4.3-6.07s4.13,2.21,4.13,5.92C18.61,26.51,15.6,27.11,14.31,27.11Zm.17-10.56c-1.73,0-2.8,1.75-2.8,4.56s1,4.5,2.63,4.5c2.44,0,2.8-2.91,2.8-4.64C17.11,19.64,16.85,16.55,14.48,16.55Z"/><path class="cls-1" d="M22.94,27.11c-2,0-4.09-1.57-4.13-6,0-3.69,1.69-6.07,4.3-6.07s4.13,2.21,4.13,5.92C27.24,26.51,24.23,27.11,22.94,27.11Zm.17-10.56c-1.73,0-2.8,1.75-2.8,4.56s1,4.5,2.63,4.5c2.44,0,2.8-2.91,2.8-4.64S25.4,16.55,23.11,16.55Z"/></g></g></g></svg>