<svg xmlns="http://www.w3.org/2000/svg" viewBox="0 0 58.89 58.94"><defs><style>.cls-1{fill:#0c306f;}</style></defs><g id="Layer_2" data-name="Layer 2"><g id="icons"><g id="parking"><rect class="cls-1" x="48.76" y="17.74" width="1.5" height="31.79"/><path class="cls-1" d="M57.39,1.5V17.25H41.64V1.5H57.39M58.89,0H40.14V18.75H58.89V0Z"/><rect class="cls-1" x="46.32" y="5.41" width="1.5" height="8.22"/><path class="cls-1" d="M49.33,11.3h-3V4.37h3a3.38,3.38,0,0,1,3.38,3.38v.17A3.38,3.38,0,0,1,49.33,11.3ZM47.82,9.8h1.51a1.88,1.88,0,0,0,1.88-1.88V7.75a1.88,1.88,0,0,0-1.88-1.88H47.82Z"/><path class="cls-1" d="M55,54.38v3.06H44.06V54.38H55m1.5-1.5H42.56v6.06h13.9V52.88Z"/><path class="cls-1" d="M52,50.38V53.2H47V50.38h5m1.5-1.5h-8V54.7h8V48.88Z"/><rect class="cls-1" x="16.46" y="39.62" width="10.18" height="1.5"/><path class="cls-1" d="M7.92,50.35v6.27c0,.5-.29.82-.48.82H4.67c-.19,0-.47-.32-.47-.82V50.35H7.92m1.5-1.5H2.7v7.77a2.16,2.16,0,0,0,2,2.32H7.44a2.16,2.16,0,0,0,2-2.32V48.85Z"/><path class="cls-1" d="M31,20.3a2.54,2.54,0,0,1,2.46,1.9l3.45,13.34.29,1.13h3.58a.32.32,0,0,1,.33.32V48.86H1.5V37a.32.32,0,0,1,.32-.32H5.39l.29-1.13L9.14,22.2a2.54,2.54,0,0,1,2.46-1.9H31m0-1.5H11.6a4,4,0,0,0-3.91,3L4.23,35.17H1.82A1.82,1.82,0,0,0,0,37V50.36H42.64V37a1.83,1.83,0,0,0-1.83-1.82H38.4L34.94,21.83a4,4,0,0,0-3.91-3Z"/><path class="cls-1" d="M38.43,50.35v6.27c0,.5-.29.82-.47.82H35.18c-.18,0-.47-.32-.47-.82V50.35h3.72m1.5-1.5H33.21v7.77a2.17,2.17,0,0,0,2,2.32H38a2.16,2.16,0,0,0,2-2.32V48.85Z"/><rect class="cls-1" x="18.36" y="43.92" width="6.39" height="1.5"/><path class="cls-1" d="M8.15,46.33a4,4,0,1,1,4-4A4,4,0,0,1,8.15,46.33Zm0-6.53a2.52,2.52,0,1,0,2.52,2.52A2.52,2.52,0,0,0,8.15,39.8Z"/><path class="cls-1" d="M34.69,46.33a4,4,0,1,1,4-4A4,4,0,0,1,34.69,46.33Zm0-6.53a2.52,2.52,0,1,0,2.51,2.52A2.52,2.52,0,0,0,34.69,39.8Z"/><path class="cls-1" d="M27.71,24.4A1.34,1.34,0,0,1,29,25.5l1.71,7.1H12l1.71-7.1a1.34,1.34,0,0,1,1.25-1.1H27.71m0-1.5H14.92a2.83,2.83,0,0,0-2.71,2.25l-2.15,9H32.57l-2.15-9a2.83,2.83,0,0,0-2.71-2.25Z"/></g></g></g></svg>