<svg xmlns="http://www.w3.org/2000/svg" viewBox="0 0 63.34 59.15"><defs><style>.cls-1{fill:#0c306f;}</style></defs><g id="Layer_2" data-name="Layer 2"><g id="icons"><g id="piscine"><path class="cls-1" d="M42.3,41.89a.75.75,0,0,1-.75-.75V6.2a6.2,6.2,0,1,1,12.39,0V7.33a.75.75,0,0,1-1.5,0V6.2a4.7,4.7,0,1,0-9.39,0V41.14A.76.76,0,0,1,42.3,41.89Z"/><path class="cls-1" d="M23.24,41.89a.75.75,0,0,1-.75-.75V6.2a6.2,6.2,0,1,1,12.39,0V7.33a.75.75,0,0,1-1.5,0V6.2A4.7,4.7,0,1,0,24,6.2V41.14A.76.76,0,0,1,23.24,41.89Z"/><path class="cls-1" d="M38.44,20.56H23.24a.75.75,0,0,1,0-1.5h15.2a.75.75,0,0,1,0,1.5Z"/><path class="cls-1" d="M38.44,32H23.24a.75.75,0,0,1,0-1.5h15.2a.75.75,0,0,1,0,1.5Z"/><path class="cls-1" d="M53.86,49.48c-1.44,0-7.3-.21-10.14-3.52-3.17,3.7-10.13,3.52-10.45,3.51s-7.22.19-10.4-3.51c-3.18,3.7-10.13,3.52-10.45,3.51a.74.74,0,0,1-.72-.77.75.75,0,0,1,.77-.73c.08,0,7.46.19,9.76-3.67a.78.78,0,0,1,1.29,0C25.81,48.16,33.2,48,33.27,48s7.51.19,9.81-3.67a.78.78,0,0,1,1.29,0C46.66,48.16,54.06,48,54.13,48a.76.76,0,0,1,.77.73.75.75,0,0,1-.73.77Z"/><path class="cls-1" d="M42.16,59.15c-1.45,0-7.3-.21-10.13-3.52-3.18,3.7-10.14,3.52-10.45,3.51s-7.23.19-10.4-3.51C8,59.33,1.05,59.15.73,59.14A.75.75,0,0,1,0,58.37a.76.76,0,0,1,.77-.73c.09,0,7.47.19,9.76-3.67a.76.76,0,0,1,.65-.37h0a.75.75,0,0,1,.64.37c2.3,3.86,9.67,3.68,9.76,3.67s7.51.19,9.8-3.67a.78.78,0,0,1,1.29,0c2.3,3.86,9.67,3.68,9.76,3.67a.78.78,0,0,1,.77.73.75.75,0,0,1-.72.77Z"/><path class="cls-1" d="M62.3,59.15c-1.44,0-7.29-.21-10.13-3.52C49,59.33,42,59.15,41.72,59.14a.75.75,0,1,1,.05-1.5c.08,0,7.46.19,9.75-3.67a.78.78,0,0,1,1.29,0c2.3,3.86,9.67,3.68,9.76,3.67a.77.77,0,0,1,.77.73.74.74,0,0,1-.72.77Z"/></g></g></g></svg>