<svg xmlns="http://www.w3.org/2000/svg" viewBox="0 0 62.47 59.12"><defs><style>.cls-1{fill:#0c306f;}</style></defs><g id="Layer_2" data-name="Layer 2"><g id="icons"><g id="plage"><path class="cls-1" d="M1.43,36.67h0a1,1,0,0,1-.88-.79A16.24,16.24,0,0,1,31.48,26.1a.86.86,0,0,1-.28,1.06A.9.9,0,0,1,30.05,27h0a3.52,3.52,0,0,0-3.17-.31,4.07,4.07,0,0,0-2,1.33,1.68,1.68,0,0,0-.38,1.49.91.91,0,0,1,0,.23.74.74,0,0,1-.52.71.75.75,0,0,1-.94-.48c-.33-1-2-1.43-3.58-.91a4.07,4.07,0,0,0-2,1.33,1.74,1.74,0,0,0-.38,1.49.62.62,0,0,1,0,.23.74.74,0,0,1-.52.71.75.75,0,0,1-.95-.48c-.32-1-2-1.42-3.57-.91a4.16,4.16,0,0,0-2,1.34,1.68,1.68,0,0,0-.37,1.48,1,1,0,0,1,0,.23.76.76,0,0,1-.52.72.75.75,0,0,1-.94-.49c-.33-1-2-1.42-3.58-.91a3.49,3.49,0,0,0-2.37,2A1,1,0,0,1,1.43,36.67ZM16.28,17a15,15,0,0,0-4.54.71,14.74,14.74,0,0,0-10,16.35,5.56,5.56,0,0,1,2.57-1.65,5.09,5.09,0,0,1,4.17.29,3.75,3.75,0,0,1,.48-.81A5.6,5.6,0,0,1,11.65,30a5.17,5.17,0,0,1,4.17.29,4.3,4.3,0,0,1,.48-.81A5.53,5.53,0,0,1,19,27.66,5.12,5.12,0,0,1,23.2,28a3.75,3.75,0,0,1,.48-.81,5.61,5.61,0,0,1,2.74-1.85,5.67,5.67,0,0,1,3-.16A14.72,14.72,0,0,0,16.28,17ZM31,25.89l-.48.57.49-.57Z"/><path class="cls-1" d="M22.89,53.11a.75.75,0,0,1-.71-.52l-6.5-20.22a.75.75,0,0,1,1.43-.46l6.5,20.22a.76.76,0,0,1-.49.95A.85.85,0,0,1,22.89,53.11Z"/><path class="cls-1" d="M11.51,17.75a.75.75,0,0,1-.71-.52l-.87-2.71a.75.75,0,0,1,1.43-.45l.87,2.7a.75.75,0,0,1-.49.94A.59.59,0,0,1,11.51,17.75Z"/><path class="cls-1" d="M23.42,23.26a.76.76,0,0,1-.57-.26,7.13,7.13,0,0,0-4.25-2.15.75.75,0,1,1,.25-1.47A8.6,8.6,0,0,1,24,22a.74.74,0,0,1-.56,1.24Z"/><path class="cls-1" d="M41.79,59.12h-33a2.21,2.21,0,0,1-2-1.35,2.19,2.19,0,0,1,.41-2.4c3.46-3.72,10.41-6,18.15-6s14.7,2.3,18.15,6a2.19,2.19,0,0,1,.41,2.4A2.21,2.21,0,0,1,41.79,59.12ZM25.28,50.85c-7.22,0-13.92,2.17-17,5.54a.69.69,0,0,0-.13.78.71.71,0,0,0,.67.45h33a.74.74,0,0,0,.54-1.23C39.2,53,32.51,50.85,25.28,50.85Z"/><path class="cls-1" d="M46,20.15h-.31a7,7,0,0,1-6.72-7v-.23a7.05,7.05,0,0,1,6.73-6.8H46a7,7,0,0,1,4.7,1.81,7.05,7.05,0,0,1,2.33,5v.22a7,7,0,0,1-7,7ZM46,7.58h-.23a5.55,5.55,0,0,0-5.3,5.35v.18a5.54,5.54,0,0,0,5.29,5.52H46a5.53,5.53,0,0,0,5.53-5.53v-.18A5.53,5.53,0,0,0,46,7.58Z"/><path class="cls-1" d="M45.68,5.07a.76.76,0,0,1-.75-.75V.75a.75.75,0,0,1,1.5,0V4.32A.76.76,0,0,1,45.68,5.07Z"/><path class="cls-1" d="M45.68,25.84a.76.76,0,0,1-.75-.75V21.91a.75.75,0,0,1,1.5,0v3.18A.76.76,0,0,1,45.68,25.84Z"/><path class="cls-1" d="M37.15,13.67H33.51a.75.75,0,0,1,0-1.5h3.64a.75.75,0,0,1,0,1.5Z"/><path class="cls-1" d="M57.85,13.67h-3.1a.75.75,0,0,1,0-1.5h3.1a.75.75,0,0,1,0,1.5Z"/><path class="cls-1" d="M39.69,7.68a.74.74,0,0,1-.53-.22L36.54,4.84A.75.75,0,0,1,37.6,3.78L40.22,6.4a.75.75,0,0,1,0,1.06A.74.74,0,0,1,39.69,7.68Z"/><path class="cls-1" d="M54.28,22.27a.74.74,0,0,1-.53-.22L51.6,19.91a.77.77,0,0,1,0-1.07.75.75,0,0,1,1.06,0L54.81,21a.74.74,0,0,1,0,1.06A.71.71,0,0,1,54.28,22.27Z"/><path class="cls-1" d="M37.07,22.27a.74.74,0,0,1-.53-.22.75.75,0,0,1,0-1.06L39,18.57A.75.75,0,0,1,40,19.63L37.6,22.05A.71.71,0,0,1,37.07,22.27Z"/><path class="cls-1" d="M51.94,7.41a.71.71,0,0,1-.53-.22.74.74,0,0,1,0-1.06l2.34-2.35a.75.75,0,0,1,1.06,0,.74.74,0,0,1,0,1.06L52.47,7.19A.74.74,0,0,1,51.94,7.41Z"/><path class="cls-1" d="M43.73,37.93h-.35c-.77,0-3.86-.15-5.61-2.25-2,2.37-5.67,2.25-5.84,2.24a.75.75,0,0,1,.06-1.5s3.91.12,5.1-2.44a.78.78,0,0,1,1.36,0c1.2,2.58,5.06,2.44,5.1,2.44s4,.12,5.15-2.44a.78.78,0,0,1,1.36,0c1.2,2.58,5.06,2.44,5.1,2.44a.75.75,0,0,1,.78.72.74.74,0,0,1-.72.78c-.17,0-3.87.13-5.84-2.24C47.63,37.78,44.53,37.93,43.73,37.93Z"/><path class="cls-1" d="M60.42,55.44c-.8,0-3.9-.14-5.65-2.24-2,2.37-5.67,2.25-5.84,2.24a.75.75,0,0,1,.06-1.5s3.9.12,5.1-2.44a.77.77,0,0,1,1.36,0c1.19,2.56,5,2.44,5.09,2.44a.78.78,0,0,1,.78.72.74.74,0,0,1-.71.78Z"/><path class="cls-1" d="M50.35,46.53c-.8,0-3.9-.14-5.65-2.24-2,2.37-5.66,2.25-5.84,2.24s-3.81.13-5.78-2.24c-2,2.37-5.65,2.25-5.84,2.24A.75.75,0,0,1,27.3,45c.05,0,3.91.12,5.1-2.44a.77.77,0,0,1,1.36,0C35,45.15,38.81,45,38.86,45s4,.12,5.16-2.44a.77.77,0,0,1,1.36,0c1.19,2.56,5,2.44,5.09,2.44a.75.75,0,0,1,.06,1.5Z"/><path class="cls-1" d="M50.26,46.53h-.18a.74.74,0,0,1-.72-.78.76.76,0,0,1,.78-.72s3.91.12,5.1-2.44a.73.73,0,0,1,.68-.44h0a.76.76,0,0,1,.68.44c1.19,2.56,5,2.44,5.09,2.44h0a.75.75,0,0,1,0,1.5c-.17,0-3.86.13-5.83-2.24C54.17,46.39,51.06,46.53,50.26,46.53Z"/></g></g></g></svg>