<svg xmlns="http://www.w3.org/2000/svg" viewBox="0 0 60.09 58"><defs><style>.cls-1{fill:#0c306f;}</style></defs><g id="Layer_2" data-name="Layer 2"><g id="icons"><g id="rv"><path class="cls-1" d="M6.49,58a.75.75,0,0,1-.75-.75v-4a.75.75,0,0,1,1.5,0v4A.76.76,0,0,1,6.49,58Z"/><path class="cls-1" d="M55.81,54H4.28A4.28,4.28,0,0,1,0,49.75V18a4.28,4.28,0,0,1,4.28-4.28H55.81A4.28,4.28,0,0,1,60.09,18V49.75A4.28,4.28,0,0,1,55.81,54ZM4.28,15.21A2.78,2.78,0,0,0,1.5,18V49.75a2.79,2.79,0,0,0,2.78,2.78H55.81a2.79,2.79,0,0,0,2.78-2.78V18a2.78,2.78,0,0,0-2.78-2.78Z"/><path class="cls-1" d="M30,14.15h0a.81.81,0,0,1-.59-.33L20.78,1.17a.74.74,0,0,1,.19-1A.77.77,0,0,1,22,.33l8.09,11.83,6.77-8.07a.75.75,0,0,1,1.15,1l-7.41,8.82A.76.76,0,0,1,30,14.15Z"/><path class="cls-1" d="M56.87,49.79H3.31a.75.75,0,0,1,0-1.5H56.87a.75.75,0,0,1,0,1.5Z"/><path class="cls-1" d="M54.31,58a.75.75,0,0,1-.75-.75v-4a.75.75,0,0,1,1.5,0v4A.76.76,0,0,1,54.31,58Z"/><path class="cls-1" d="M26.34,39.24a.75.75,0,0,1-.75-.75V28.37a.75.75,0,0,1,1.5,0V38.49A.76.76,0,0,1,26.34,39.24Z"/><path class="cls-1" d="M30.44,29.12h-8.2a.75.75,0,0,1,0-1.5h8.2a.75.75,0,0,1,0,1.5Z"/><path class="cls-1" d="M35.47,39.24a.74.74,0,0,1-.64-.37l-3.77-6.26a.75.75,0,1,1,1.29-.77l3.77,6.26a.75.75,0,0,1-.26,1A.77.77,0,0,1,35.47,39.24Z"/><path class="cls-1" d="M35.47,39.24a.76.76,0,0,1-.64-1.14l3.77-6.26a.75.75,0,0,1,1.29.77l-3.77,6.26A.75.75,0,0,1,35.47,39.24Z"/></g></g></g></svg>