<svg xmlns="http://www.w3.org/2000/svg" viewBox="0 0 46.42 48.97"><defs><style>.cls-1{fill:#0c306f;}</style></defs><g id="Layer_2" data-name="Layer 2"><g id="icons"><g id="salle-gym"><path class="cls-1" d="M34.92,43.32H8.83A8.84,8.84,0,0,1,0,34.49V29.68a8.84,8.84,0,0,1,8.83-8.82H34.92a8.84,8.84,0,0,1,8.83,8.82v4.81A8.84,8.84,0,0,1,34.92,43.32Zm-26.09-21A7.34,7.34,0,0,0,1.5,29.68v4.81a7.34,7.34,0,0,0,7.33,7.33H34.92a7.34,7.34,0,0,0,7.33-7.33V29.68a7.34,7.34,0,0,0-7.33-7.32Z"/><path class="cls-1" d="M11.28,39a6.93,6.93,0,1,1,6.93-6.93A6.94,6.94,0,0,1,11.28,39Zm0-12.36a5.43,5.43,0,1,0,5.43,5.43A5.44,5.44,0,0,0,11.28,26.66Z"/><path class="cls-1" d="M9.8,22.36a.75.75,0,0,1-.71-.52L6.34,13.21a.76.76,0,0,1,.49-.94.74.74,0,0,1,.94.48l2.75,8.63a.74.74,0,0,1-.49.94A.59.59,0,0,1,9.8,22.36Z"/><path class="cls-1" d="M13.57,22.36a.74.74,0,0,1-.71-.52l-2.52-7.93a.74.74,0,0,1,.48-.94.75.75,0,0,1,.95.48l2.52,7.93a.74.74,0,0,1-.49.94A.62.62,0,0,1,13.57,22.36Z"/><path class="cls-1" d="M13.69,14.09H13.5L3.2,13.41A3,3,0,0,1,.43,10.25L.51,8.94A3,3,0,0,1,3.67,6.17L14,6.84A3,3,0,0,1,16.74,10l-.09,1.31A3,3,0,0,1,13.69,14.09ZM3.48,7.66A1.47,1.47,0,0,0,2,9l-.09,1.32a1.51,1.51,0,0,0,.37,1.07,1.42,1.42,0,0,0,1,.49l10.31.67h0a1.45,1.45,0,0,0,1.56-1.36l.08-1.32a1.46,1.46,0,0,0-.36-1.07,1.44,1.44,0,0,0-1-.49L3.57,7.66Z"/><path class="cls-1" d="M31.64,22.36a1,1,0,0,1-.28-.05.75.75,0,0,1-.41-1L37,6.15a.75.75,0,0,1,.7-.47h5.09a2.09,2.09,0,1,0,0-4.18h-13a.75.75,0,0,1,0-1.5h13a3.59,3.59,0,1,1,0,7.18H38.24l-5.9,14.71A.76.76,0,0,1,31.64,22.36Z"/><path class="cls-1" d="M33.48,30.64H28.05a.75.75,0,1,1,0-1.5h5.43a.75.75,0,0,1,0,1.5Z"/><path class="cls-1" d="M24.92,37.19H19.58a.72.72,0,0,1-.35-.08l-8.3-4.36a.73.73,0,0,1-.31-1,.75.75,0,0,1,1-.32l8.13,4.27h5.16a.75.75,0,0,1,0,1.5Z"/><path class="cls-1" d="M42.58,49H4.17a.75.75,0,0,1,0-1.5H42.58a.75.75,0,0,1,0,1.5Z"/><path class="cls-1" d="M13.13,49a.76.76,0,0,1-.75-.75V42.8a.75.75,0,0,1,1.5,0v5.42A.75.75,0,0,1,13.13,49Z"/><path class="cls-1" d="M30.77,49a.75.75,0,0,1-.75-.75V42.8a.75.75,0,0,1,1.5,0v5.42A.76.76,0,0,1,30.77,49Z"/></g></g></g></svg>