<svg xmlns="http://www.w3.org/2000/svg" viewBox="0 0 59.15 59.15"><defs><style>.cls-1{fill:#0c306f;}</style></defs><g id="Layer_2" data-name="Layer 2"><g id="icons_outline" data-name="icons outline"><g id="sports"><path class="cls-1" d="M17.52,49.8A11.64,11.64,0,1,1,29.15,38.16,11.65,11.65,0,0,1,17.52,49.8Zm0-21.77A10.14,10.14,0,1,0,27.65,38.16,10.14,10.14,0,0,0,17.52,28Z"/><path class="cls-1" d="M24.16,37.79H23.9c-2.26-.07-3.44-1.14-5.58-3.1-.53-.48-1.12-1-1.81-1.63A16.11,16.11,0,0,0,11.05,30a.75.75,0,0,1-.48-.95.75.75,0,0,1,.95-.48,17.59,17.59,0,0,1,6,3.4c.71.62,1.31,1.17,1.84,1.65,2.06,1.88,2.91,2.66,4.64,2.71h.19c1.78,0,2.38-1.92,2.56-2.75a.76.76,0,0,1,.89-.57.74.74,0,0,1,.58.89C27.66,36.32,26.16,37.79,24.16,37.79Z"/><path class="cls-1" d="M19.17,49.67a.76.76,0,0,1-.54-.22.75.75,0,0,1,0-1.06,14.56,14.56,0,0,0,3.62-5.76,16.76,16.76,0,0,0,.59-2.37,3.06,3.06,0,0,0,0-.32l0-.08A22.32,22.32,0,0,0,23.2,37c.2-6.13-2.58-8.22-3.78-8.84a.74.74,0,0,1-.33-1,.75.75,0,0,1,1-.33c1.46.74,4.83,3.23,4.6,10.22a24.64,24.64,0,0,1-.31,3.1s0,0,0,.06,0,.19-.05.29a17.34,17.34,0,0,1-.65,2.6,16,16,0,0,1-4,6.35A.77.77,0,0,1,19.17,49.67ZM23.65,40h0Z"/><path class="cls-1" d="M23.56,40.79c-6,0-12.3-.47-17.2-3.87a.75.75,0,1,1,.86-1.23c4.56,3.16,10.54,3.6,16.34,3.6h.09c3.57,0,4.21-.28,4.28-.31a.76.76,0,0,1,1,.28.73.73,0,0,1-.24,1C28.29,40.51,27.36,40.84,23.56,40.79Z"/><path class="cls-1" d="M12.55,46.58a6.62,6.62,0,0,1-4.7-2,.75.75,0,0,1,1.12-1,5.09,5.09,0,0,0,5.16,1.26,30.22,30.22,0,0,0,3.44-1.29A13,13,0,0,1,23,42.12a3.49,3.49,0,0,1,2.85,1.09,2.83,2.83,0,0,1,.57,2.24A.75.75,0,1,1,25,45.17h0a1.41,1.41,0,0,0-.26-1A2.23,2.23,0,0,0,23,43.62a11.74,11.74,0,0,0-4.88,1.31,31.08,31.08,0,0,1-3.6,1.35A7.16,7.16,0,0,1,12.55,46.58Z"/><path class="cls-1" d="M41.68,49.8A11.59,11.59,0,1,1,53.26,38.21,11.6,11.6,0,0,1,41.68,49.8Zm0-21.68A10.09,10.09,0,1,0,51.76,38.21,10.1,10.1,0,0,0,41.68,28.12Z"/><path class="cls-1" d="M41.32,44.13a.72.72,0,0,1-.52-.21l-3.64-3.48a.74.74,0,0,1-.21-.73l1.25-4.89a.77.77,0,0,1,.51-.53l4.52-1.37.82-2.44L40,28a.75.75,0,0,1-.24-1,.74.74,0,0,1,1-.25l4.54,2.79a.73.73,0,0,1,.32.88l-1,2.93L48,36.7a.74.74,0,0,1,.19.74L46.77,42a.76.76,0,0,1-.48.49l-4.74,1.59A.59.59,0,0,1,41.32,44.13Zm-2.81-4.47,3,2.87,3.94-1.33,1.13-3.77-3-3L39.55,35.6Z"/><path class="cls-1" d="M52.5,38.31a.75.75,0,0,1-.53-.22L50.2,36.33l-2.37,1.52A.75.75,0,0,1,47,36.59l2.87-1.84a.77.77,0,0,1,.94.09L53,37a.76.76,0,0,1-.52,1.29Z"/><path class="cls-1" d="M48,45.08a.75.75,0,0,1-.59-.29l-2-2.54a.75.75,0,0,1,1.19-.92l1.65,2.13,2.69-.8a.75.75,0,0,1,.43,1.44l-3.18.95A.83.83,0,0,1,48,45.08Z"/><path class="cls-1" d="M45.2,49.21a.71.71,0,0,1-.28-.06L40.5,47.33a.75.75,0,0,1-.46-.81l.54-3.26a.74.74,0,0,1,.86-.62.76.76,0,0,1,.62.86l-.44,2.67,3.3,1.37,2.48-3.63a.76.76,0,0,1,1.05-.2.74.74,0,0,1,.19,1l-2.82,4.13A.75.75,0,0,1,45.2,49.21Z"/><path class="cls-1" d="M37.84,49.1a.76.76,0,0,1-.65-.38.74.74,0,0,1,.27-1L40.41,46a.75.75,0,0,1,.75,1.3L38.21,49A.74.74,0,0,1,37.84,49.1Z"/><path class="cls-1" d="M33.14,45.63h-.07a.75.75,0,0,1-.68-.81l.45-5a.75.75,0,0,1,.74-.69l4.09,0h0a.75.75,0,0,1,.75.74.76.76,0,0,1-.75.76l-3.41,0L33.88,45A.74.74,0,0,1,33.14,45.63Z"/><path class="cls-1" d="M33.58,40.68a.74.74,0,0,1-.69-.47L30.75,34.9a.75.75,0,0,1,.34-.94l3.79-2,1.47-3.8a.75.75,0,1,1,1.4.54l-1.57,4.06a.83.83,0,0,1-.35.39L32.39,35l1.89,4.69a.76.76,0,0,1-.42,1A.66.66,0,0,1,33.58,40.68Z"/><path class="cls-1" d="M38.93,35.76a.76.76,0,0,1-.45-.15L35,33.06a.75.75,0,0,1,.9-1.21l3.44,2.55a.75.75,0,0,1-.44,1.36Z"/><path class="cls-1" d="M50.3,36.13a.76.76,0,0,1-.73-.56l-1.22-4.66H45a.75.75,0,0,1,0-1.5h4a.76.76,0,0,1,.73.56L51,35.19a.74.74,0,0,1-.53.91Z"/><path class="cls-1" d="M24.29,19.26H17a.74.74,0,0,1-.66-.4.75.75,0,0,1,0-.78l5.8-8.4a.76.76,0,0,1,.62-.33H33.91a.76.76,0,0,1,.55,1.27l-6.72,7.15a.75.75,0,0,1-1.09-1l5.53-5.89h-9l-4.76,6.91h5.91a.75.75,0,0,1,0,1.5Z"/><path class="cls-1" d="M25.38,17.66a.74.74,0,0,1-.7-.48l-2.59-6.71a1,1,0,0,1,0-.1L21.1,7.88a.75.75,0,0,1,.43-1,.75.75,0,0,1,1,.43l.92,2.4,0,.09,2.62,6.81a.75.75,0,0,1-.43,1A.65.65,0,0,1,25.38,17.66Z"/><path class="cls-1" d="M17,24.88a6.37,6.37,0,1,1,6.37-6.37A6.38,6.38,0,0,1,17,24.88Zm0-11.24a4.87,4.87,0,1,0,4.87,4.87A4.88,4.88,0,0,0,17,13.64Z"/><path class="cls-1" d="M36.66,24.88A6.37,6.37,0,1,1,43,18.51,6.38,6.38,0,0,1,36.66,24.88Zm0-11.24a4.87,4.87,0,1,0,4.87,4.87A4.88,4.88,0,0,0,36.66,13.64Z"/><path class="cls-1" d="M36.66,19.26a.76.76,0,0,1-.72-.52L32,6.59a.76.76,0,0,1,.11-.67.74.74,0,0,1,.61-.31h4.94a2.37,2.37,0,0,1,0,4.73h-2a.75.75,0,0,1,0-1.5h2a.87.87,0,0,0,0-1.73H33.77l3.6,11.17a.75.75,0,0,1-.48.95Z"/><path class="cls-1" d="M26,21a2.48,2.48,0,1,1,2.47-2.48A2.48,2.48,0,0,1,26,21Zm0-3.45a1,1,0,1,0,1,1A1,1,0,0,0,26,17.54Z"/><path class="cls-1" d="M24.81,8.28H20.1a.75.75,0,0,1,0-1.5h4.71a.75.75,0,1,1,0,1.5Z"/><path class="cls-1" d="M29.57,59.15A29.58,29.58,0,1,1,59.15,29.57,29.61,29.61,0,0,1,29.57,59.15Zm0-57.65A28.08,28.08,0,1,0,57.65,29.57,28.1,28.1,0,0,0,29.57,1.5Z"/></g></g></g></svg>