<svg xmlns="http://www.w3.org/2000/svg" viewBox="0 0 39.82 60.98"><defs><style>.cls-1{fill:#0c306f;}</style></defs><g id="Layer_2" data-name="Layer 2"><g id="icons"><g id="tennis"><path class="cls-1" d="M13.76,61a3,3,0,0,1-2.11-.88l-.41-.4a3,3,0,0,1,0-4.29l7.66-7.33c-.41-1.73-1.89-8.16-2.06-9.73-.09-.8-.19-3.43-.28-6.21-.09-2.31-.17-4.69-.25-5.88a4.16,4.16,0,0,1,2.11-4.19.75.75,0,1,1,.64,1.35,2.72,2.72,0,0,0-1.25,2.74c.08,1.21.16,3.61.24,5.92.1,2.64.19,5.36.28,6.1.18,1.69,2.1,9.89,2.12,10a.77.77,0,0,1-.21.72l-8,7.62a1.44,1.44,0,0,0-.46,1.07,1.46,1.46,0,0,0,.44,1.08l.4.4a1.5,1.5,0,0,0,2.09,0l8.67-8.27a2.14,2.14,0,0,0,.67-1.63l-.33-6.93a1.55,1.55,0,0,1,.66-1.36,1.58,1.58,0,0,1,1.5-.18l8,3.16a2.08,2.08,0,0,1,1.24,1.89v9.37a1.5,1.5,0,0,0,3,0V43.77A2.16,2.16,0,0,0,37,41.85l-10.1-5.27a.75.75,0,0,1-.4-.67l0-6.85a.76.76,0,0,1,.75-.75h0a.75.75,0,0,1,.75.76l0,6.39,9.69,5.06a3.65,3.65,0,0,1,2,3.25V55.11a3,3,0,0,1-6,0V45.74a.54.54,0,0,0-.33-.5l-8-3.15-.1.07.32,6.94a3.62,3.62,0,0,1-1.12,2.77l-8.67,8.27A3,3,0,0,1,13.76,61Z"/><path class="cls-1" d="M30.54,29.81H20.42a.75.75,0,0,1,0-1.5h9.79l5.3-6a1.15,1.15,0,0,0-.08-1.61,1.11,1.11,0,0,0-.84-.31,1.15,1.15,0,0,0-.81.38l-4.36,4.86a.77.77,0,0,1-.56.25H22.93a.75.75,0,0,1,0-1.5h5.59l4.14-4.61a2.65,2.65,0,0,1,1.87-.88,2.71,2.71,0,0,1,1.93.71,2.66,2.66,0,0,1,.18,3.7l-5.53,6.31A.76.76,0,0,1,30.54,29.81Z"/><path class="cls-1" d="M36,20.85a.75.75,0,0,1-.65-.37l-3.59-6.09a.75.75,0,0,1,1.3-.76l3.58,6.09a.76.76,0,0,1-.26,1A.75.75,0,0,1,36,20.85Z"/><path class="cls-1" d="M30.36,15.13c-2.39,0-5.11-1.67-6.89-4.49A10.32,10.32,0,0,1,21.8,5,5.11,5.11,0,0,1,24,.65c2.69-1.69,6.83,0,9.23,3.84a10.18,10.18,0,0,1,1.67,5.65,5.07,5.07,0,0,1-2.19,4.34A4.27,4.27,0,0,1,30.36,15.13Zm-4-13.63a2.88,2.88,0,0,0-1.56.42A3.66,3.66,0,0,0,23.3,5a8.68,8.68,0,0,0,1.44,4.8c1.93,3.06,5.21,4.61,7.17,3.37a3.6,3.6,0,0,0,1.49-3.12A8.7,8.7,0,0,0,32,5.29C30.49,3,28.22,1.5,26.36,1.5Z"/><path class="cls-1" d="M21,24a5.31,5.31,0,1,1,5.31-5.31A5.31,5.31,0,0,1,21,24Zm0-9.12a3.81,3.81,0,1,0,3.81,3.81A3.82,3.82,0,0,0,21,14.88Z"/><path class="cls-1" d="M3.38,30.52a3.38,3.38,0,1,1,3.38-3.38A3.39,3.39,0,0,1,3.38,30.52Zm0-5.26a1.88,1.88,0,1,0,1.88,1.88A1.88,1.88,0,0,0,3.38,25.26Z"/><path class="cls-1" d="M37.12,36.13a2.67,2.67,0,0,1-1.07-.23L29.27,33a.75.75,0,0,1,.59-1.38l6.78,2.94a1.19,1.19,0,0,0,1.58-.62,1.19,1.19,0,0,0-.57-1.56l-4.43-2.16a.75.75,0,1,1,.65-1.35L38.31,31a2.7,2.7,0,0,1,1.29,3.5,2.62,2.62,0,0,1-1.48,1.44A2.7,2.7,0,0,1,37.12,36.13Z"/></g></g></g></svg>