<svg xmlns="http://www.w3.org/2000/svg" viewBox="0 0 64.84 59.18"><defs><style>.cls-1{fill:#0c306f;}</style></defs><g id="Layer_2" data-name="Layer 2"><g id="icons"><g id="theatre"><path class="cls-1" d="M13.58,54.63h-2a.75.75,0,0,1,0-1.5h2a.75.75,0,1,1,0,1.5Z"/><path class="cls-1" d="M39.26,54.63h-2a.75.75,0,0,1,0-1.5h2a.75.75,0,0,1,0,1.5Z"/><path class="cls-1" d="M26.42,54.63h-2a.75.75,0,1,1,0-1.5h2a.75.75,0,1,1,0,1.5Z"/><path class="cls-1" d="M3.88,48.32a.76.76,0,0,1-.75-.75V15.65a3.09,3.09,0,0,1,3.09-3.08H23.45a.75.75,0,0,1,0,1.5H6.22a1.59,1.59,0,0,0-1.59,1.58V47.57A.76.76,0,0,1,3.88,48.32Z"/><path class="cls-1" d="M47,48.32a.76.76,0,0,1-.75-.75v-17a.75.75,0,0,1,1.5,0v17A.76.76,0,0,1,47,48.32Z"/><path class="cls-1" d="M10.72,43.92a.74.74,0,0,1-.72-.58c-1-4.07-2.56-6.66-4.65-7.69a.74.74,0,0,1-.11-1.27c.07-.06,7.44-5.62,7.34-13.41a.76.76,0,0,1,.74-.76.75.75,0,0,1,.76.75c.09,7-5,12.13-7.1,13.93,2,1.46,3.51,4.17,4.47,8.1a.75.75,0,0,1-.55.9Z"/><path class="cls-1" d="M11.84,55.17h0a.76.76,0,0,1-.73-.77s0-.19,0-.52,0-1.08,0-1.88a.74.74,0,0,1,.72-.78.77.77,0,0,1,.78.72c0,.84,0,1.52,0,2s0,.55,0,.55A.74.74,0,0,1,11.84,55.17Z"/><path class="cls-1" d="M40.15,43.92l-.18,0a.76.76,0,0,1-.55-.91c.95-3.93,2.46-6.65,4.47-8.1a24.71,24.71,0,0,1-3.51-3.83.75.75,0,0,1,.15-1,.76.76,0,0,1,1,.16,21.66,21.66,0,0,0,4.05,4.2.75.75,0,0,1-.11,1.28c-2.09,1-3.65,3.62-4.64,7.69A.75.75,0,0,1,40.15,43.92Z"/><path class="cls-1" d="M39,55.17a.75.75,0,0,1-.75-.73V53.9c0-.45,0-1.12,0-2a.77.77,0,0,1,.78-.72.74.74,0,0,1,.72.78c0,.81,0,1.46,0,1.88v.52a.75.75,0,0,1-.73.77Z"/><path class="cls-1" d="M27,23.81c-.52,0-1,0-1.56,0-12,.59-16.36-5.51-16.54-5.77a.75.75,0,0,1,.2-1,.74.74,0,0,1,1,.2c0,.05,3.87,5.38,14.37,5.14a.73.73,0,0,1,.3-.06h1.27a.71.71,0,0,1,.32.07h1.29a.74.74,0,0,1,.77.73.76.76,0,0,1-.73.77Z"/><path class="cls-1" d="M11.61,59.18H.75A.75.75,0,0,1,0,58.43V51.17a4.37,4.37,0,0,1,4.36-4.36H8a4.37,4.37,0,0,1,4.36,4.36v7.26A.75.75,0,0,1,11.61,59.18ZM1.5,57.68h9.36V51.17A2.87,2.87,0,0,0,8,48.31H4.36A2.87,2.87,0,0,0,1.5,51.17Z"/><path class="cls-1" d="M24.45,59.18H13.58a.75.75,0,0,1-.75-.75V49.69a2.87,2.87,0,0,1,1.46-2.49,2.8,2.8,0,0,1,1.42-.38h6.62a2.88,2.88,0,0,1,2.87,2.87v8.74A.74.74,0,0,1,24.45,59.18Zm-10.12-1.5H23.7v-8a1.38,1.38,0,0,0-1.37-1.37H15.71a1.44,1.44,0,0,0-.68.18,1.35,1.35,0,0,0-.7,1.19Z"/><path class="cls-1" d="M37.28,59.18H26.43a.74.74,0,0,1-.75-.75V51.17A4.36,4.36,0,0,1,30,46.81h3.63A4.36,4.36,0,0,1,38,51.17v7.26A.74.74,0,0,1,37.28,59.18Zm-10.1-1.5h9.35V51.17a2.87,2.87,0,0,0-2.86-2.86H30a2.87,2.87,0,0,0-2.86,2.86Z"/><path class="cls-1" d="M50.13,59.18H39.27a.74.74,0,0,1-.75-.75V51.17a4.36,4.36,0,0,1,4.35-4.36h3.65a4.37,4.37,0,0,1,4.36,4.36v7.26A.75.75,0,0,1,50.13,59.18ZM40,57.68h9.36V51.17a2.87,2.87,0,0,0-2.86-2.86H42.87A2.86,2.86,0,0,0,40,51.17Z"/><path class="cls-1" d="M13.58,52.72h-2a.76.76,0,0,1-.75-.75v-.8A2.87,2.87,0,0,0,8,48.31H6.18a.75.75,0,0,1-.75-.75V45.29A2.88,2.88,0,0,1,8.3,42.42h4.23a2.88,2.88,0,0,1,2.88,2.87v2.56a.75.75,0,0,1-.38.65,1.35,1.35,0,0,0-.7,1.19V52A.75.75,0,0,1,13.58,52.72Zm-1.22-1.5h.47V49.69a2.88,2.88,0,0,1,1.08-2.23V45.29a1.38,1.38,0,0,0-1.38-1.37H8.3a1.37,1.37,0,0,0-1.37,1.37v1.52H8a4.37,4.37,0,0,1,4.36,4.36Zm2.3-3.37h0Z"/><path class="cls-1" d="M6.18,48.32a.75.75,0,0,1-.75-.75h0a.75.75,0,1,1,.75.76Z"/><path class="cls-1" d="M24.67,52.72h-.22A.76.76,0,0,1,23.7,52V49.69a1.38,1.38,0,0,0-1.37-1.37H16.19a.75.75,0,0,1-.75-.75V45.29a2.88,2.88,0,0,1,2.88-2.87h4.22a2.88,2.88,0,0,1,2.88,2.87V52A.76.76,0,0,1,24.67,52.72Zm-7.73-5.9h5.39a2.92,2.92,0,0,1,1.59.48v-2a1.38,1.38,0,0,0-1.38-1.37H18.32a1.38,1.38,0,0,0-1.38,1.37Z"/><path class="cls-1" d="M26.42,52.72h-.21a.75.75,0,0,1-.75-.75V45.29a2.87,2.87,0,0,1,2.87-2.87h4.23a2.87,2.87,0,0,1,2.87,2.87v2.28a.75.75,0,0,1-1.5,0V45.29a1.37,1.37,0,0,0-1.37-1.37H28.33A1.37,1.37,0,0,0,27,45.29v6.15a.77.77,0,0,1,.21.53A.75.75,0,0,1,26.42,52.72Z"/><path class="cls-1" d="M36.22,48.6a.75.75,0,0,1-.75-.75V45.29a2.87,2.87,0,0,1,2.88-2.87h4.22a2.87,2.87,0,0,1,2.88,2.87v2.28a.75.75,0,1,1-1.5,0V45.29a1.37,1.37,0,0,0-1.38-1.37H38.35A1.37,1.37,0,0,0,37,45.29v2.56A.74.74,0,0,1,36.22,48.6Z"/><path class="cls-1" d="M39.26,52.72h-2a.75.75,0,1,1,0-1.5h2a.75.75,0,0,1,0,1.5Z"/><path class="cls-1" d="M59.51,11.5a.75.75,0,0,1-.64-.36,2.26,2.26,0,0,0-1.81-1,3.57,3.57,0,0,0-2.27,1.13.75.75,0,0,1-1.12-1,5,5,0,0,1,3.39-1.63,3.78,3.78,0,0,1,3.09,1.74.74.74,0,0,1-.25,1A.77.77,0,0,1,59.51,11.5Z"/><path class="cls-1" d="M50.57,11.2a.74.74,0,0,1-.72-.56,2.3,2.3,0,0,0-1.43-1.51,3.66,3.66,0,0,0-2.51.41.75.75,0,1,1-.77-1.28,5,5,0,0,1,3.72-.56,3.84,3.84,0,0,1,2.44,2.57.75.75,0,0,1-.54.91Z"/><path class="cls-1" d="M51.77,21.26a5.41,5.41,0,0,1-1-.09A4.91,4.91,0,0,1,47,18.1l-.7-2a.75.75,0,0,1,.33-.9.76.76,0,0,1,1,.15C50.65,19,55.92,16.84,56,16.82a.73.73,0,0,1,.89.24.74.74,0,0,1,0,.93l-1.38,1.64A4.77,4.77,0,0,1,51.77,21.26Zm-3.15-3.13a3.6,3.6,0,0,0,2.43,1.57,3.5,3.5,0,0,0,3.08-.85A9,9,0,0,1,48.62,18.13Z"/><path class="cls-1" d="M51.27,25.89l-.6,0A7.66,7.66,0,0,1,48,25.23c-3.2-1.4-5.63-4.88-6.68-9.54a26.08,26.08,0,0,1-.5-7.85C41.07,4,42.16,1.55,44,.52c1-.56,2.75-.95,5.24.36l.81.46a16,16,0,0,0,2.7,1.37,8.9,8.9,0,0,0,4.3-.56,11,11,0,0,1,1.86-.5A4.91,4.91,0,0,1,63.33,3c1.6,1.69,1.93,4.72,1,9h0C62.38,20.62,57.41,25.89,51.27,25.89ZM46.09,1.5a2.75,2.75,0,0,0-1.35.33c-1.36.76-2.22,2.88-2.47,6.13a25.08,25.08,0,0,0,.47,7.4c.94,4.19,3.06,7.29,5.81,8.49a6,6,0,0,0,2.2.52c5.69.32,10.24-4.44,12.09-12.73h0c.83-3.7.62-6.34-.6-7.63a3.44,3.44,0,0,0-3.07-.88,9.53,9.53,0,0,0-1.62.45,10.24,10.24,0,0,1-4.93.62,11.76,11.76,0,0,1-3.3-1.56l-.71-.41A5.62,5.62,0,0,0,46.09,1.5ZM63.57,11.81h0Z"/><path class="cls-1" d="M41.32,26.63a9.8,9.8,0,0,1-3.21-.57A13.12,13.12,0,0,1,35.7,25a20.52,20.52,0,0,1-7.25-7.51,15.64,15.64,0,0,1-.8-1.66c-1.3-3.1-.83-5.18-.2-6.37a5.73,5.73,0,0,1,4-2.87A9.23,9.23,0,0,0,37,3.36a3.93,3.93,0,0,1,4.09-1.29.75.75,0,1,1-.47,1.42,2.43,2.43,0,0,0-2.49.86A10.8,10.8,0,0,1,31.78,8a4.23,4.23,0,0,0-3,2.09c-.69,1.31-.6,3.07.26,5.11a12.74,12.74,0,0,0,.72,1.5,19,19,0,0,0,6.69,6.94,11.84,11.84,0,0,0,2.14,1,7.05,7.05,0,0,0,6.33-.59.75.75,0,0,1,.83,1.25A7.89,7.89,0,0,1,41.32,26.63Z"/><path class="cls-1" d="M37.83,22.27a.85.85,0,0,1-.31-.06.76.76,0,0,1-.44-.71c0-.08.12-2.08,2.53-4.41a.75.75,0,0,1,1,1.08,8.71,8.71,0,0,0-1.54,1.95,11.06,11.06,0,0,1,2-.48.75.75,0,0,1,0,1.5,10.14,10.14,0,0,0-2.8.93A.81.81,0,0,1,37.83,22.27Z"/><path class="cls-1" d="M33.58,15.85a4,4,0,0,1-1.27-.19.75.75,0,0,1,.47-1.42,2.64,2.64,0,0,0,2.41-.47,2.29,2.29,0,0,0,.67-2.22.75.75,0,1,1,1.45-.39,3.76,3.76,0,0,1-3.73,4.69Z"/><path class="cls-1" d="M36.5,43.29a.75.75,0,0,1-.75-.75v-4.9H14.08v4.9a.75.75,0,0,1-1.5,0V36.89a.76.76,0,0,1,.75-.75H36.5a.76.76,0,0,1,.75.75v5.65A.76.76,0,0,1,36.5,43.29Z"/></g></g></g></svg>