<svg xmlns="http://www.w3.org/2000/svg" viewBox="0 0 59.15 59.15"><defs><style>.cls-1{fill:#0c306f;}</style></defs><g id="Layer_2" data-name="Layer 2"><g id="icons"><g id="wifi"><path class="cls-1" d="M29.57,59.15A29.58,29.58,0,1,1,59.15,29.57,29.61,29.61,0,0,1,29.57,59.15Zm0-57.65A28.08,28.08,0,1,0,57.65,29.57,28.1,28.1,0,0,0,29.57,1.5Z"/><path class="cls-1" d="M29.58,45.71a3.9,3.9,0,1,1,3.89-3.9A3.91,3.91,0,0,1,29.58,45.71Zm0-6.3A2.4,2.4,0,1,0,32,41.81,2.4,2.4,0,0,0,29.58,39.41Z"/><path class="cls-1" d="M24.38,38.32l-4.17-3.59.49-.57a11.72,11.72,0,0,1,17.75,0l.49.57-4.16,3.59-.49-.57a6.22,6.22,0,0,0-9.42,0Zm-2-3.73,1.91,1.64a7.67,7.67,0,0,1,5.32-2.14,7.75,7.75,0,0,1,5.34,2.13l1.9-1.64a10.24,10.24,0,0,0-14.47,0Z"/><path class="cls-1" d="M40.76,32.48l-.51-.55a14.56,14.56,0,0,0-21.35,0l-.51.55-4-3.74.51-.55a20.05,20.05,0,0,1,29.41,0l.51.55ZM16.49,28.67l1.83,1.7a16.06,16.06,0,0,1,22.5,0l1.84-1.7a18.55,18.55,0,0,0-26.17,0Z"/><path class="cls-1" d="M40.76,32.48l-.51-.55a14.56,14.56,0,0,0-21.35,0l-.51.55-4-3.74.51-.55a20.05,20.05,0,0,1,29.41,0l.51.55ZM16.49,28.67l1.83,1.7a16.06,16.06,0,0,1,22.5,0l1.84-1.7a18.55,18.55,0,0,0-26.17,0Z"/><path class="cls-1" d="M40.76,32.48l-.51-.55a14.56,14.56,0,0,0-21.35,0l-.51.55-4-3.74.51-.55a20.05,20.05,0,0,1,29.41,0l.51.55ZM16.49,28.67l1.83,1.7a16.06,16.06,0,0,1,22.5,0l1.84-1.7a18.55,18.55,0,0,0-26.17,0Z"/><path class="cls-1" d="M12.71,26.84l-4-3.78.52-.54a27.74,27.74,0,0,1,20.33-8.75,28.09,28.09,0,0,1,20.34,8.75l.52.54-4,3.78-.52-.55a22.52,22.52,0,0,0-32.68,0ZM10.85,23l1.81,1.72a24,24,0,0,1,33.82,0L48.3,23a26.61,26.61,0,0,0-18.73-7.74A26.24,26.24,0,0,0,10.85,23Z"/></g></g></g></svg>