<svg xmlns="http://www.w3.org/2000/svg" viewBox="0 0 49.24 49.24"><defs><style>.cls-1{fill:none;stroke:#2c5ca4;stroke-linecap:round;stroke-linejoin:round;stroke-width:1.8px;}</style></defs><g id="Layer_2" data-name="Layer 2"><g id="Calque_1" data-name="Calque 1"><path class="cls-1" d="M1.56,47.46s-1.49-1.15,0-5.82S11.77,21.77,19.68,15,38.11,1.66,47.86.9a.45.45,0,0,1,.35.13h0a.45.45,0,0,1,.13.35c-.75,9.75-7.4,20.33-14.11,28.19S12.26,46.19,7.6,47.68s-5.81,0-5.81,0Z"/><path class="cls-1" d="M28.82,28.78c-4.89,4.89-10.75,6.95-13.1,4.61-2-2-.76-6.68,2.78-11.07"/><path class="cls-1" d="M20.33,20.29c4.89-4.89,10.76-7,13.1-4.61,2,2,.84,6.38-2.44,10.64"/><path class="cls-1" d="M9,4H9A3.33,3.33,0,0,1,12.3,7.35v4.93a1.24,1.24,0,0,1-1.24,1.24H6.88a1.24,1.24,0,0,1-1.24-1.24V7.35A3.33,3.33,0,0,1,9,4Z" transform="translate(-3.58 8.91) rotate(-45)"/><path class="cls-1" d="M40.15,35.2h0a3.33,3.33,0,0,1,3.33,3.33v4.93a1.24,1.24,0,0,1-1.24,1.24H38.05a1.24,1.24,0,0,1-1.24-1.24V38.53A3.33,3.33,0,0,1,40.15,35.2Z" transform="translate(96.79 39.81) rotate(135)"/><line class="cls-1" x1="12.37" y1="12.1" x2="36.82" y2="36.55"/><line class="cls-1" x1="1.56" y1="47.46" x2="8.87" y2="40.15"/><path class="cls-1" d="M36.82,3.89s6.28.54,8.67,8.21"/></g></g></svg>