<svg xmlns="http://www.w3.org/2000/svg" viewBox="0 0 69.18 59.45"><defs><style>.cls-1{fill:none;stroke:#2c5ca4;stroke-linecap:round;stroke-linejoin:round;stroke-width:1.8px;}</style></defs><g id="Layer_2" data-name="Layer 2"><g id="Calque_1" data-name="Calque 1"><path class="cls-1" d="M12.12,55.88l3.65-.74,4-7.84s9.06,0,14.09-11"/><path class="cls-1" d="M48.86,32.91a28.57,28.57,0,0,1-6.77,2.49"/><path class="cls-1" d="M36.34,36.17h0a26.73,26.73,0,0,1-5.63-.28"/><path class="cls-1" d="M47,27.24l2.65,7.32,7.79-3.16-5.46,9,3.73,2.27,1-5.19,4.63-6.26a2,2,0,0,0-.06-2.48h0A2,2,0,0,0,59.4,28l-5.56.9s2.71-1.19,1.9-6.22"/><path class="cls-1" d="M40.73,21a47.69,47.69,0,0,1-4.52,1.65"/><path class="cls-1" d="M45.75,18.34c3.23-2.23,4.46-4.24,8-5.7a12.49,12.49,0,0,1,10.87.91l.3-.16,3.32-1.72L67,15.33l1.24,4.61S67.8,28.37,65,28.05s-1.35-4-1.35-4c-1.85.06-3.9-2.64-3.9-2.64-3.14-.76-5.46,2.06-5.46,2.06"/><path class="cls-1" d="M26.91,24.32S21.83,22.55,18,28.06s1,7.94,0,11.72-3.78,2.54-3.78,2.54L10.31,53.41H8.09l.38,5.14L11.61,57l5.57-11.9s11.41-.21,14-10.65"/><line class="cls-1" x1="10.31" y1="53.41" x2="11.61" y2="56.98"/><line class="cls-1" x1="53.66" y1="37.57" x2="56.33" y2="39.38"/><path class="cls-1" d="M65,13.4s.4-3.79-1.11-5.42a5.21,5.21,0,0,0-6.71-.86c-2.32,1.62-2.65,2.11-4.89,2a4.58,4.58,0,0,0-4.63,2.59c-1,1.73-4.95,2.74-5.08,5.68"/><path class="cls-1" d="M34.64,11.66s3.54,5.91,12.6,6.89a1.84,1.84,0,0,1,1.63,1.62c.06.71-.3,1.42-1.9,1.6-3.35.38-9.73-.54-14.81-6.7"/><path class="cls-1" d="M36.58,19.06l-1.12,4,7-.26a2.05,2.05,0,0,1,2,2.71l-2.88,8.53-5.9,4.16,3.57-11s-7.3,2.38-10.44.32-1-7.7-1-7.7,2-9.65,6.11-10.2c3.57-.49,5,2.43,4.09,5.41"/><path class="cls-1" d="M41.57,34.05l1.1,2.82a1,1,0,0,1-.92,1.34H35.67"/><path class="cls-1" d="M17.66,28.66c-.05.08-3.56-2.4-4.86-1.26s1.08,5.51.54,8S10.9,45.3.9,42.32A5.18,5.18,0,0,0,5,36.7c-.22-4.87-2.49-6.44,1.46-10.76s10.93-.92,12.74.68"/><circle class="cls-1" cx="36.21" cy="5.25" r="4.35"/><line class="cls-1" x1="32.16" y1="3.67" x2="43.08" y2="4.36"/></g></g></svg>