<svg xmlns="http://www.w3.org/2000/svg" viewBox="0 0 66.85 60.48"><defs><style>.cls-1{fill:none;stroke:#2c5ca4;stroke-linecap:round;stroke-linejoin:round;stroke-width:1.8px;}</style></defs><g id="Layer_2" data-name="Layer 2"><g id="Calque_1" data-name="Calque 1"><polyline class="cls-1" points="55.01 53.83 65.95 53.83 59.8 42.21 62.64 42.21 57.63 33.44 60.48 33.44 53.76 22.96 49.54 30.36"/><polyline class="cls-1" points="56.21 53.83 56.21 59.07 52.28 59.07"/><polyline class="cls-1" points="14.04 52.77 0.9 52.77 8.29 38.8 4.87 38.8 10.89 28.26 7.47 28.26 15.55 15.67 22.54 27.95 18.62 27.95 20.75 31.39"/><polyline class="cls-1" points="12.61 52.77 12.61 59.07 17.33 59.07"/><line class="cls-1" x1="34.67" y1="6.55" x2="34.47" y2="6.18"/><line class="cls-1" x1="17.07" y1="50.95" x2="16.65" y2="50.95"/><polygon class="cls-1" points="17.07 50.95 25.61 35.06 21.76 35.06 28.94 22.5 25.7 22.5 34.67 6.55 43.65 22.5 40.4 22.5 47.58 35.06 43.74 35.06 52.28 50.95 17.07 50.95"/><line class="cls-1" x1="34.88" y1="6.18" x2="34.67" y2="6.55"/><line class="cls-1" x1="52.69" y1="50.95" x2="52.28" y2="50.95"/><rect class="cls-1" x="31.69" y="50.95" width="6.66" height="8.63"/><circle class="cls-1" cx="52.28" cy="6.37" r="5.47"/></g></g></svg>