<svg xmlns="http://www.w3.org/2000/svg" viewBox="0 0 59.45 59.45"><defs><style>.cls-1,.cls-2{fill:none;stroke:#2b5ca3;stroke-width:1.8px;}.cls-1{stroke-miterlimit:10;}.cls-2{stroke-linecap:round;stroke-linejoin:round;}.cls-3{fill:#2b5ca3;}</style></defs><g id="Layer_2" data-name="Layer 2"><g id="Calque_1" data-name="Calque 1"><circle class="cls-1" cx="29.72" cy="29.72" r="28.82"/><path class="cls-2" d="M33.33,21h0c-4.37,2.57-2,6.27.78,9.86,1.42,1.84,2.9,3.38,3.78,5.52a10.36,10.36,0,0,1,.71,2.79c1.09,9.12-7.16,14.8-7.16,14.8C32.21,46.42,27.93,42,26,40S14.51,29.43,19,18.73c4.18-10,14.45-7.38,15.29-7C36.06,9.37,40,9,40,9c-.23,2.07-2.69,4.09-2.69,4.09s3,2.94,3.64,4.44a5.89,5.89,0,0,1,.43,3S45,28.94,45.2,29.46s-1.39,3-2.79,3.67c-.88.44-2.9-1-2.9-1h0c.27-2-.37-3.88-3-4.33-8-1.38-3.32-6.45-3.21-6.8"/><path class="cls-2" d="M31.76,11.21c1.3-1.83,4.19-4.53,6.16-4.56,0,0-11.27-4.29-19.09,3.84a17,17,0,0,0-4.46,14,24.1,24.1,0,0,0,6.17,12.19C28,44.6,31.88,46.4,31.44,53.93"/><path class="cls-3" d="M41.94,30.25c-.13.06.19-2.14,1.29-1.44,0,0,.31.49-.4.67C42.36,29.6,42.32,29.73,41.94,30.25Z"/><path class="cls-3" d="M38,18.91s1.65,1.54,1.25,2.29A.9.9,0,0,1,37.59,21,3.77,3.77,0,0,1,38,18.91Z"/><path class="cls-2" d="M39.51,32.09c.27-2-.37-3.88-3-4.33-8-1.38-4.35-6.29-3.21-6.8"/></g></g></svg>