<svg xmlns="http://www.w3.org/2000/svg" viewBox="0 0 64.99 45.85"><defs><style>.cls-1{fill:none;stroke:#2c5ca4;stroke-linecap:round;stroke-linejoin:round;stroke-width:1.8px;}</style></defs><g id="Layer_2" data-name="Layer 2"><g id="Calque_1" data-name="Calque 1"><rect class="cls-1" x="3.18" y="2.54" width="58.64" height="37.38"/><rect class="cls-1" x="0.9" y="39.92" width="63.19" height="5.03"/><line class="cls-1" x1="14.85" y1="10.79" x2="14.85" y2="0.9"/><line class="cls-1" x1="22.96" y1="10.79" x2="22.96" y2="0.9"/><line class="cls-1" x1="42.03" y1="10.79" x2="42.03" y2="0.9"/><line class="cls-1" x1="50.14" y1="10.79" x2="50.14" y2="0.9"/><rect class="cls-1" x="35.56" y="8.09" width="21.06" height="24.34"/><path class="cls-1" d="M45.19,21.12c0,3.47-1.29,5.39-3.55,5.39-2,0-3.35-1.87-3.38-5.25S39.74,16,41.81,16,45.19,17.86,45.19,21.12Z"/><path class="cls-1" d="M47.91,17a4.45,4.45,0,0,1,2.88-1,2.88,2.88,0,0,1,3.13,3c0,3.14-3.93,4.12-6.08,6.2v1.24h6.08"/><rect class="cls-1" x="8.37" y="8.09" width="21.06" height="24.34"/><path class="cls-1" d="M18,21.12c0,3.47-1.29,5.39-3.55,5.39-2,0-3.35-1.87-3.38-5.25S12.55,16,14.63,16,18,17.86,18,21.12Z"/><path class="cls-1" d="M26.64,21.12c0,3.47-1.29,5.39-3.55,5.39-2,0-3.35-1.87-3.38-5.25S21.18,16,23.26,16,26.64,17.86,26.64,21.12Z"/></g></g></svg>