<svg xmlns="http://www.w3.org/2000/svg" viewBox="0 0 62.77 59.42"><defs><style>.cls-1{fill:none;stroke:#2c5ca4;stroke-linecap:round;stroke-linejoin:round;stroke-width:1.8px;}</style></defs><g id="Layer_2" data-name="Layer 2"><g id="Calque_1" data-name="Calque 1"><path class="cls-1" d="M30.68,26.61a4.19,4.19,0,0,0-3.88-.46c-2,.66-3.33,2.34-2.87,3.77-.46-1.43-2.48-2.05-4.52-1.4s-3.32,2.35-2.86,3.77c-.46-1.42-2.49-2.05-4.53-1.39S8.7,33.24,9.16,34.66c-.46-1.42-2.48-2-4.52-1.39a4.22,4.22,0,0,0-2.86,2.54c-.12.37-.3.3-.37,0a15.5,15.5,0,0,1,29.52-9.33C31,26.72,30.88,26.78,30.68,26.61Z"/><line class="cls-1" x1="16.55" y1="32.29" x2="23.04" y2="52.51"/><line class="cls-1" x1="11.66" y1="17.15" x2="10.79" y2="14.45"/><path class="cls-1" d="M23.56,22.66a7.83,7.83,0,0,0-4.69-2.4"/><path class="cls-1" d="M41.94,58.52A1.48,1.48,0,0,0,43,56c-3.19-3.43-9.87-5.78-17.6-5.78S11,52.6,7.83,56a1.48,1.48,0,0,0,1.09,2.49Z"/><path class="cls-1" d="M52.38,13.27a6.28,6.28,0,0,1-6.28,6.28h-.27a6.27,6.27,0,0,1-6-6.27v-.2a6.28,6.28,0,0,1,6-6.08h.27a6.3,6.3,0,0,1,6.28,6.09Z"/><line class="cls-1" x1="45.83" y1="4.47" x2="45.83" y2="0.9"/><line class="cls-1" x1="45.83" y1="25.24" x2="45.83" y2="22.06"/><line class="cls-1" x1="37.3" y1="13.07" x2="33.66" y2="13.07"/><line class="cls-1" x1="58" y1="13.07" x2="54.9" y2="13.07"/><line class="cls-1" x1="39.84" y1="7.08" x2="37.22" y2="4.46"/><line class="cls-1" x1="54.43" y1="21.67" x2="52.28" y2="19.53"/><line class="cls-1" x1="39.65" y1="19.25" x2="37.22" y2="21.67"/><line class="cls-1" x1="54.43" y1="4.46" x2="52.08" y2="6.81"/><path class="cls-1" d="M55.34,37.32s-4.39.19-5.81-2.88h0c-1.42,3.07-5.81,2.88-5.81,2.88s-4.38.19-5.8-2.88h0c-1.42,3.07-5.81,2.88-5.81,2.88"/><path class="cls-1" d="M60.72,54.84S56.34,55,54.91,52h0c-1.42,3.06-5.8,2.88-5.8,2.88"/><path class="cls-1" d="M50.65,45.93s-4.38.18-5.81-2.88h0c-1.42,3.06-5.8,2.88-5.8,2.88s-4.39.18-5.81-2.88h0c-1.42,3.06-5.81,2.88-5.81,2.88"/><path class="cls-1" d="M61.87,45.93s-4.38.18-5.81-2.88h0c-1.42,3.06-5.8,2.88-5.8,2.88"/></g></g></svg>