<svg xmlns="http://www.w3.org/2000/svg" viewBox="0 0 46.72 49.27"><defs><style>.cls-1{fill:none;stroke:#2c5ca4;stroke-linecap:round;stroke-linejoin:round;stroke-width:1.8px;}</style></defs><g id="Layer_2" data-name="Layer 2"><g id="Calque_1" data-name="Calque 1"><rect class="cls-1" x="0.9" y="21.76" width="42.25" height="20.96" rx="8.08"/><circle class="cls-1" cx="11.43" cy="32.24" r="6.18"/><line class="cls-1" x1="9.95" y1="21.76" x2="7.21" y2="13.13"/><line class="cls-1" x1="13.72" y1="21.76" x2="11.2" y2="13.83"/><rect class="cls-1" x="1.35" y="7.4" width="14.76" height="5.76" rx="2.22" transform="matrix(1, 0.07, -0.07, 1, 0.69, -0.55)"/><path class="cls-1" d="M30,.9H43a2.84,2.84,0,0,1,2.84,2.84h0A2.84,2.84,0,0,1,43,6.58H37.89l-6.1,15.18"/><line class="cls-1" x1="28.2" y1="30.04" x2="33.63" y2="30.04"/><polyline class="cls-1" points="11.43 32.24 19.73 36.59 25.07 36.59"/><polyline class="cls-1" points="4.32 48.37 13.34 48.37 42.73 48.37"/><line class="cls-1" x1="13.29" y1="42.95" x2="13.29" y2="48.37"/><line class="cls-1" x1="30.92" y1="42.95" x2="30.92" y2="48.37"/></g></g></svg>