<svg xmlns="http://www.w3.org/2000/svg" viewBox="0 0 60 41.62"><defs><style>.cls-1{fill:#2b5ca3;}.cls-2,.cls-3{fill:none;stroke:#2b5ca3;stroke-width:1.8px;}.cls-2{stroke-miterlimit:10;}.cls-3{stroke-linecap:round;stroke-linejoin:round;}</style></defs><g id="Layer_2" data-name="Layer 2"><g id="Calque_1" data-name="Calque 1"><path class="cls-1" d="M58.18,1.8l0,0,0,22.2L1.8,24l0-22.2H58.18m0-1.8H1.82A1.83,1.83,0,0,0,0,1.82V24a1.82,1.82,0,0,0,1.82,1.82H58.18A1.82,1.82,0,0,0,60,24V1.82A1.83,1.83,0,0,0,58.18,0Z"/><line class="cls-2" x1="25.65" y1="7.94" x2="34.59" y2="7.94"/><line class="cls-2" x1="4.12" y1="17.01" x2="55.53" y2="17.01"/><line class="cls-2" x1="4.12" y1="21" x2="55.53" y2="21"/><path class="cls-3" d="M30.12,29.24l-1,.7c-1.61,1.17-1.2,3.35.76,4.05h0c2,.69,2.38,2.87.77,4l-1.38,1"/><path class="cls-3" d="M19.19,30.92l-1,.71C16.59,32.8,17,35,19,35.68h0c2,.69,2.38,2.86.77,4l-1.38,1"/><path class="cls-3" d="M41.51,30.92l-1,.71c-1.61,1.17-1.2,3.35.76,4.05h0c2,.69,2.38,2.86.77,4l-1.37,1"/></g></g></svg>