<svg xmlns="http://www.w3.org/2000/svg" viewBox="0 0 58.89 58.94"><defs><style>.cls-1{fill:none;stroke:#2b5ca3;stroke-miterlimit:10;stroke-width:1.8px;}.cls-2{fill:#2b5ca3;}</style></defs><g id="Layer_2" data-name="Layer 2"><g id="Calque_1" data-name="Calque 1"><line class="cls-1" x1="49.51" y1="49.52" x2="49.51" y2="17.74"/><path class="cls-2" d="M58,1.8V17H42.84V1.8H58M59.79,0H41V18.75H59.79V0Z" transform="translate(-0.9)"/><line class="cls-1" x1="47.07" y1="5.41" x2="47.07" y2="13.63"/><path class="cls-1" d="M47.07,5.12h2.26A2.63,2.63,0,0,1,52,7.75v.17a2.63,2.63,0,0,1-2.63,2.63H47.07a0,0,0,0,1,0,0V5.12A0,0,0,0,1,47.07,5.12Z"/><path class="cls-2" d="M55.56,54.68v2.46H45.26V54.68h10.3m1.8-1.8H43.46v6.06h13.9V52.88Z" transform="translate(-0.9)"/><path class="cls-2" d="M52.6,50.68V52.9H48.23V50.68H52.6m1.8-1.8h-8V54.7h8V48.88Z" transform="translate(-0.9)"/><line class="cls-1" x1="26.64" y1="40.37" x2="16.46" y2="40.37"/><path class="cls-2" d="M8.52,50.65v6a.69.69,0,0,1-.18.52H5.61a.62.62,0,0,1-.21-.53v-6H8.52m1.8-1.8H3.6v7.77a2.16,2.16,0,0,0,2,2.32H8.34a2.16,2.16,0,0,0,2-2.32V48.85Z" transform="translate(-0.9)"/><path class="cls-2" d="M31.93,20.6a2.24,2.24,0,0,1,2.17,1.68l3.45,13.34L37.9,37h1.4l2.44,0V48.56H2.7L2.72,37H6.53l.35-1.35,3.45-13.34A2.23,2.23,0,0,1,12.5,20.6H31.93m0-1.8H12.5a4,4,0,0,0-3.91,3L5.13,35.17H2.72A1.82,1.82,0,0,0,.9,37V50.36H43.54V37a1.83,1.83,0,0,0-1.83-1.82H39.3L35.84,21.83a4,4,0,0,0-3.91-3Z" transform="translate(-0.9)"/><path class="cls-2" d="M39,50.65v6a.76.76,0,0,1-.17.52H36.12a.65.65,0,0,1-.21-.53v-6H39m1.8-1.8H34.11v7.77a2.17,2.17,0,0,0,2,2.32h2.78a2.16,2.16,0,0,0,2-2.32V48.85Z" transform="translate(-0.9)"/><line class="cls-1" x1="24.75" y1="44.67" x2="18.36" y2="44.67"/><circle class="cls-1" cx="8.15" cy="42.32" r="3.27"/><circle class="cls-1" cx="34.69" cy="42.32" r="3.27"/><path class="cls-2" d="M28.61,24.7a1.05,1.05,0,0,1,1,.87l1.62,6.73h-18l1.62-6.73a1.05,1.05,0,0,1,1-.87H28.61m0-1.8H15.82a2.83,2.83,0,0,0-2.71,2.25L11,34.1H33.47l-2.15-9a2.83,2.83,0,0,0-2.71-2.25Z" transform="translate(-0.9)"/></g></g></svg>