<svg xmlns="http://www.w3.org/2000/svg" viewBox="0 0 63.65 59.45"><defs><style>.cls-1{fill:none;stroke:#2c5ca4;stroke-linecap:round;stroke-linejoin:round;stroke-width:1.8px;}</style></defs><g id="Layer_2" data-name="Layer 2"><g id="Calque_1" data-name="Calque 1"><path class="cls-1" d="M53.34,7.48V6.35A5.45,5.45,0,0,0,47.89.9h0a5.45,5.45,0,0,0-5.44,5.45V41.29"/><path class="cls-1" d="M34.28,7.48V6.35A5.45,5.45,0,0,0,28.83.9h0a5.45,5.45,0,0,0-5.44,5.45V41.29"/><line class="cls-1" x1="38.59" y1="19.96" x2="23.39" y2="19.96"/><line class="cls-1" x1="38.59" y1="31.42" x2="23.39" y2="31.42"/><path class="cls-1" d="M54.3,48.87s-7.87.26-10.43-4h0c-2.55,4.3-10.42,4-10.42,4s-7.87.26-10.43-4h0c-2.55,4.3-10.42,4-10.42,4"/><path class="cls-1" d="M42.6,58.54s-7.87.26-10.42-4h0c-2.56,4.3-10.43,4-10.43,4s-7.87.26-10.42-4h0C8.77,58.8.9,58.54.9,58.54"/><path class="cls-1" d="M62.75,58.54s-7.88.26-10.43-4h0c-2.55,4.3-10.43,4-10.43,4"/></g></g></svg>