<svg xmlns="http://www.w3.org/2000/svg" viewBox="0 0 40.12 61.28"><defs><style>.cls-1{fill:none;stroke:#2c5ca4;stroke-linecap:round;stroke-linejoin:round;stroke-width:1.8px;}</style></defs><g id="Layer_2" data-name="Layer 2"><g id="Calque_1" data-name="Calque 1"><path class="cls-1" d="M18.93,22.91a3.44,3.44,0,0,0-1.68,3.46c.17,2.6.36,10.61.52,12.06.2,1.75,2.14,10.06,2.14,10.06l-8,7.62a2.24,2.24,0,0,0,0,3.22l.4.4a2.25,2.25,0,0,0,3.14,0l8.67-8.27a2.93,2.93,0,0,0,.9-2.2l-.33-6.93a.83.83,0,0,1,1.13-.81l8,3.16a1.31,1.31,0,0,1,.77,1.19v9.37a2.25,2.25,0,0,0,2.25,2.25h0a2.25,2.25,0,0,0,2.25-2.25V43.93a2.92,2.92,0,0,0-1.57-2.59l-10.1-5.26,0-6.86"/><path class="cls-1" d="M20.57,29.22H30.69l5.54-6.31a1.91,1.91,0,0,0-.13-2.65h0a1.91,1.91,0,0,0-2.73.12L29,25.24H23.08"/><line class="cls-1" x1="36.1" y1="20.26" x2="32.51" y2="14.17"/><ellipse class="cls-1" cx="28.5" cy="7.73" rx="5.02" ry="7.42" transform="translate(0.27 16.38) rotate(-32.2)"/><circle class="cls-1" cx="21.11" cy="18.85" r="4.56"/><circle class="cls-1" cx="3.53" cy="27.3" r="2.63"/><path class="cls-1" d="M29.71,32.43l6.79,2.94a1.94,1.94,0,0,0,2.56-1h0a2,2,0,0,0-.93-2.53l-4.44-2.17"/></g></g></svg>