<svg xmlns="http://www.w3.org/2000/svg" viewBox="0 0 77.51 47.43"><defs><style>.cls-1{fill:none;stroke:#2c5ca4;stroke-linecap:round;stroke-linejoin:round;stroke-width:1.8px;}.cls-2{fill:#2c5ca4;}</style></defs><g id="Layer_2" data-name="Layer 2"><g id="Calque_1" data-name="Calque 1"><line class="cls-1" x1="14.3" y1="30.98" x2="10.71" y2="24.89"/><ellipse class="cls-1" cx="6.7" cy="18.45" rx="5.02" ry="7.42" transform="translate(-8.8 6.41) rotate(-32.2)"/><path class="cls-1" d="M9.06,22.19c-1.16.74-3.16-.35-4.46-2.42s-1.42-4.33-.26-5.07"/><path class="cls-2" d="M17.24,0A1.66,1.66,0,1,0,18.9,1.65,1.65,1.65,0,0,0,17.24,0Z"/><polyline class="cls-1" points="21.48 23.03 21.48 23.03 11.23 46.53 65.36 46.53 76.61 46.53 66.37 23.03"/><polyline class="cls-1" points="61.03 10.77 56.9 1.3 52.02 1.3 36.46 1.3 30.95 1.3 26.82 10.77"/><rect class="cls-1" x="21.39" y="14.11" width="45.14" height="8.98"/><polyline class="cls-1" points="23.22 45.95 26.29 35.59 30.02 23.03"/><polyline class="cls-1" points="36.46 1.3 34.62 7.51 34.62 7.51 33.65 10.77"/><polyline class="cls-1" points="65.36 46.53 62.13 35.59 58.43 23.03"/><polyline class="cls-1" points="52.02 1.3 53.85 7.51 54.81 10.77"/><line class="cls-1" x1="26.29" y1="35.59" x2="62.23" y2="35.59"/><line class="cls-1" x1="44.04" y1="35.59" x2="44.04" y2="23.03"/><line class="cls-1" x1="34.62" y1="7.51" x2="53.85" y2="7.51"/><line class="cls-1" x1="44.23" y1="7.51" x2="44.23" y2="11.45"/><line class="cls-1" x1="23.32" y1="18.45" x2="64.59" y2="18.45"/><line class="cls-1" x1="61.35" y1="21.3" x2="61.35" y2="15.89"/><line class="cls-1" x1="57" y1="21.3" x2="57" y2="15.89"/><line class="cls-1" x1="52.65" y1="21.3" x2="52.65" y2="15.89"/><line class="cls-1" x1="48.31" y1="21.3" x2="48.31" y2="15.89"/><line class="cls-1" x1="43.96" y1="21.3" x2="43.96" y2="15.89"/><line class="cls-1" x1="39.61" y1="21.3" x2="39.61" y2="15.89"/><line class="cls-1" x1="35.26" y1="21.3" x2="35.26" y2="15.89"/><line class="cls-1" x1="30.91" y1="21.3" x2="30.91" y2="15.89"/><line class="cls-1" x1="26.56" y1="21.3" x2="26.56" y2="15.89"/></g></g></svg>