<svg xmlns="http://www.w3.org/2000/svg" viewBox="0 0 65.14 59.48"><defs><style>.cls-1{fill:none;stroke:#2c5ca4;stroke-linecap:round;stroke-linejoin:round;stroke-width:1.8px;}</style></defs><g id="Layer_2" data-name="Layer 2"><g id="Calque_1" data-name="Calque 1"><polyline class="cls-1" points="11.76 54.03 12 54.03 13.73 54.03"/><polyline class="cls-1" points="39.41 54.03 39.17 54.03 37.44 54.03"/><line class="cls-1" x1="26.57" y1="54.03" x2="24.6" y2="54.03"/><path class="cls-1" d="M4,47.71V15.79a2.33,2.33,0,0,1,2.34-2.33H23.6"/><line class="cls-1" x1="47.14" y1="47.71" x2="47.14" y2="30.71"/><path class="cls-1" d="M13.48,21.11c.11,8.28-7.65,14-7.65,14,2.66,1.3,4.18,4.64,5,8.18"/><path class="cls-1" d="M12,52.12c0,.82,0,1.48,0,1.91s0,.53,0,.53"/><path class="cls-1" d="M41.13,30.76a22.55,22.55,0,0,0,4.21,4.36c-2.66,1.31-4.18,4.64-5,8.19"/><path class="cls-1" d="M39.2,52.12c0,.82,0,1.48,0,1.91s0,.53,0,.53"/><path class="cls-1" d="M27.85,23.19c-.72,0-1.47,0-2.26,0l-.64,0h1.27l-.63,0c-11.83.6-15.93-5.44-15.93-5.44"/><path class="cls-1" d="M11.76,51.32v7.26H.9V51.32a3.61,3.61,0,0,1,3.61-3.61H8.15A3.61,3.61,0,0,1,11.76,51.32Z"/><path class="cls-1" d="M24.6,49.84v8.74H13.73V49.84A2.11,2.11,0,0,1,14.81,48a2.06,2.06,0,0,1,1-.28h6.61A2.12,2.12,0,0,1,24.6,49.84Z"/><path class="cls-1" d="M37.43,51.32v7.26H26.58V51.32a3.61,3.61,0,0,1,3.6-3.61h3.64A3.61,3.61,0,0,1,37.43,51.32Z"/><path class="cls-1" d="M50.28,51.32v7.26H39.42V51.32A3.61,3.61,0,0,1,43,47.71h3.65A3.61,3.61,0,0,1,50.28,51.32Z"/><path class="cls-1" d="M14.81,45.44V48a2.11,2.11,0,0,0-1.08,1.84v2.28h-2v-.8a3.61,3.61,0,0,0-3.61-3.61H6.33V45.44a2.12,2.12,0,0,1,2.12-2.13h4.23A2.13,2.13,0,0,1,14.81,45.44Z"/><line class="cls-1" x1="6.33" y1="47.72" x2="6.33" y2="47.71"/><path class="cls-1" d="M24.82,45.44v6.68H24.6V49.84a2.12,2.12,0,0,0-2.13-2.12H16.34V45.44a2.13,2.13,0,0,1,2.13-2.13h4.22A2.13,2.13,0,0,1,24.82,45.44Z"/><path class="cls-1" d="M26.57,52.12h-.21V45.44a2.12,2.12,0,0,1,2.12-2.13h4.23a2.12,2.12,0,0,1,2.12,2.13v2.28"/><path class="cls-1" d="M36.37,48V45.44a2.13,2.13,0,0,1,2.13-2.13h4.22a2.12,2.12,0,0,1,2.12,2.13v2.28"/><polyline class="cls-1" points="39.41 52.12 39.2 52.12 37.44 52.12"/><path class="cls-1" d="M54.38,10.89a4.33,4.33,0,0,1,2.83-1.37,3.06,3.06,0,0,1,2.45,1.37"/><path class="cls-1" d="M45.67,9.05a4.33,4.33,0,0,1,3.12-.49,3.07,3.07,0,0,1,1.93,2"/><path class="cls-1" d="M47.11,16l.7,2A4.4,4.4,0,0,0,55,19.29l1.38-1.64S50.63,20.08,47.11,16Z"/><path class="cls-1" d="M63.72,12c-2.06,9.27-7.27,13.63-12.86,13.32a6.87,6.87,0,0,1-2.45-.58c-2.92-1.27-5.23-4.49-6.25-9a25.79,25.79,0,0,1-.49-7.62c.78-10,6.75-6.69,7.43-6.33s3,1.81,3.75,1.88c3.23.35,4.45-.76,6.35-1.07S65.79,2.69,63.72,12Z"/><path class="cls-1" d="M45.48,24.82a7.66,7.66,0,0,1-7,.68,11.66,11.66,0,0,1-2.29-1,19.72,19.72,0,0,1-7-7.21,15.14,15.14,0,0,1-.77-1.58c-2-4.9.3-7.6,3.29-8.23A10,10,0,0,0,37.67,4,3.2,3.2,0,0,1,41,2.92"/><path class="cls-1" d="M41.27,20.53A10.15,10.15,0,0,0,38,21.68s.08-1.76,2.3-3.9"/><path class="cls-1" d="M32.7,15.1a3.42,3.42,0,0,0,3.14-.62,3.13,3.13,0,0,0,.9-3"/><polyline class="cls-1" points="36.65 42.68 36.65 37.04 13.48 37.04 13.48 42.68"/></g></g></svg>