<svg xmlns="http://www.w3.org/2000/svg" viewBox="0 0 59.45 59.45"><defs><style>.cls-1{fill:none;stroke:#2b5ca3;stroke-miterlimit:10;stroke-width:1.8px;}</style></defs><g id="Layer_2" data-name="Layer 2"><g id="Calque_1" data-name="Calque 1"><circle class="cls-1" cx="29.72" cy="29.72" r="28.82"/><circle class="cls-1" cx="29.73" cy="41.96" r="3.15"/><path class="cls-1" d="M24.45,37.41l-3-2.61a11,11,0,0,1,16.62,0L35,37.4a7,7,0,0,0-10.56,0Z"/><path class="cls-1" d="M41,31.57a15.31,15.31,0,0,0-22.45,0l-2.93-2.72a19.3,19.3,0,0,1,28.31,0Z"/><path class="cls-1" d="M41,31.57a15.31,15.31,0,0,0-22.45,0l-2.93-2.72a19.3,19.3,0,0,1,28.31,0Z"/><path class="cls-1" d="M41,31.57a15.31,15.31,0,0,0-22.45,0l-2.93-2.72a19.3,19.3,0,0,1,28.31,0Z"/><path class="cls-1" d="M12.83,25.93l-2.9-2.75a27,27,0,0,1,19.79-8.51,27.35,27.35,0,0,1,19.8,8.51l-2.91,2.75a23.28,23.28,0,0,0-33.78,0Z"/></g></g></svg>