<svg xmlns="http://www.w3.org/2000/svg" viewBox="0 0 141 24.72"><defs><style>.cls-1{fill:#e1bd85;}</style></defs><g id="Layer_2" data-name="Layer 2"><g id="Calque_1" data-name="Calque 1"><circle class="cls-1" cx="70.5" cy="6.56" r="6.56"/><path class="cls-1" d="M80.84,10a6.76,6.76,0,0,0-1.74-.65,6.45,6.45,0,0,0-1.8-.19,6.08,6.08,0,0,0-5.47,3.25,4.9,4.9,0,0,0-.35,1.49,12.55,12.55,0,0,0,.07,1.41c.07.91.19,1.82.33,2.73h0a.29.29,0,0,0,.27.24A.3.3,0,0,0,72.5,18l.33-2.73c.06-.43.1-1,.18-1.29a3.46,3.46,0,0,1,.44-1,4,4,0,0,1,3.71-1.65,3.58,3.58,0,0,1,1,.22A3.45,3.45,0,0,1,79,12a2.72,2.72,0,0,1,1.11,1.49,2.06,2.06,0,0,1,.09.88.73.73,0,0,1-.22.48.77.77,0,0,1-.39.1,1.44,1.44,0,0,1-.36,0l-.19,0s-.17,0-.1,0a1.79,1.79,0,0,0-2,1.55,1.73,1.73,0,0,0,1.73,1.75,4.94,4.94,0,0,0,1.13.05,4.4,4.4,0,0,0,1.11-.2A4,4,0,0,0,83,16.65a3.46,3.46,0,0,0,.67-2.13,4.66,4.66,0,0,0-.37-1.82A5.58,5.58,0,0,0,80.84,10Z"/><path class="cls-1" d="M68.84,18.29a.29.29,0,0,0,.27-.24h0c.15-.91.27-1.82.33-2.73a12.55,12.55,0,0,0,.07-1.41,4.9,4.9,0,0,0-.35-1.49A6.07,6.07,0,0,0,63.7,9.16a6.45,6.45,0,0,0-1.8.19,6.9,6.9,0,0,0-1.74.65,5.58,5.58,0,0,0-2.49,2.7,4.66,4.66,0,0,0-.37,1.82A3.46,3.46,0,0,0,58,16.65,4.09,4.09,0,0,0,60,18.05a4.4,4.4,0,0,0,1.11.2,4.94,4.94,0,0,0,1.13-.05A1.73,1.73,0,0,0,64,16.45a1.79,1.79,0,0,0-2-1.55c.07,0,0,0-.1,0l-.19,0a1.44,1.44,0,0,1-.36,0,.77.77,0,0,1-.39-.1.73.73,0,0,1-.22-.48,2.23,2.23,0,0,1,.09-.88A2.72,2.72,0,0,1,62,12a3.62,3.62,0,0,1,.88-.44,3.58,3.58,0,0,1,1-.22A4,4,0,0,1,67.55,13,3.46,3.46,0,0,1,68,14c.08.32.12.86.18,1.29L68.5,18A.3.3,0,0,0,68.84,18.29Z"/><path class="cls-1" d="M70.5,24.72c.81,0,.45-1,0-1.8C70.06,23.74,69.69,24.72,70.5,24.72Z"/><path class="cls-1" d="M71.84,20.18h-.4c0-.4-.57-.66-.57-.66,0-.45.18-1.65-.37-1.65s-.36,1.2-.36,1.65c0,0-.62.26-.58.66h-.41a.77.77,0,0,0-.71.82.9.9,0,0,0,.27.65c.32.3,1-.18,1.12.2a10,10,0,0,1,.67,1.07,12.29,12.29,0,0,1,.67-1.07c.12-.38.8.1,1.13-.2a.9.9,0,0,0,.26-.65A.78.78,0,0,0,71.84,20.18Z"/><rect class="cls-1" y="12.12" width="49.75" height="1"/><rect class="cls-1" x="91.25" y="12.12" width="49.75" height="1"/></g></g></svg>