<svg xmlns="http://www.w3.org/2000/svg" viewBox="0 0 30.92 26.91"><defs><style>.cls-1{fill:#282423;}.cls-2{fill:#fece1b;}.cls-3{fill:#004c98;}.cls-4{fill:#00853c;}.cls-5{fill:#e1041e;}</style></defs><g id="Calque_2" data-name="Calque 2"><g id="Calque_1-2" data-name="Calque 1"><path class="cls-1" d="M15.41,6.29c.9-.48,1.71-.87,2.25-3.17A6.11,6.11,0,0,0,17.73,1c-.15-.6-.58-.37-.8,0-.74,1.42-1.44,2.84-2,4.27-.21.62,0,1,.51,1"/><path class="cls-1" d="M10.15,9.15a10.17,10.17,0,0,0,.23-3.24c-.1-1.63-1.16-2.44-2.1-1.21A4.59,4.59,0,0,0,7.9,8.45c.58,1.55,1.28,2.12,2.25.7"/><path class="cls-1" d="M1.38,13.75a1.28,1.28,0,0,0-1,1.84,3.43,3.43,0,0,0,4.31,1.59,1.57,1.57,0,0,0,.51-2.29,3.5,3.5,0,0,0-3.86-1.14"/><path class="cls-1" d="M7.58,21A4,4,0,0,0,6,24.37c.19,2.56,1.92,3.32,2.94,1.66a5.62,5.62,0,0,0,.57-3.27c-.22-1.32-1-2.24-1.92-1.73"/><path class="cls-1" d="M25.44,9a5.21,5.21,0,0,0-4.19.67c-.47.27-.46.93,0,1.47q1.18,1.72,2.93.31l1.38-1.78c.28-.4.17-.58-.12-.67"/><path class="cls-1" d="M13.68,8.58a6.19,6.19,0,0,0-6,6.36,6.19,6.19,0,0,0,6,6.36,6.19,6.19,0,0,0,6-6.36,6.19,6.19,0,0,0-6-6.36"/><path class="cls-1" d="M18.49,6.94c1.61-2.2,2.72-1.59,3.65,0,.13.3.32.39.63.14,3-1.37,6.36-.64,6.46,4.48-.75,3.75-2.57,5.29-4.93,5.75,2.79-.06,6.32-2.23,6.55-5.85.08-4.91-2.93-7.31-8.36-4.76-1.2-2.14-2.4-1.88-3.63-.83A3.15,3.15,0,0,0,18.21,7c-.05.43.05.42.28,0"/><path class="cls-1" d="M19,19.5c-2.39.15-4.72.43-6.56,1.91l.14.77A3.62,3.62,0,0,1,14,21,18.94,18.94,0,0,1,13.77,25c0,.55.36.63.46.44a15.56,15.56,0,0,0,.36-4.33.37.37,0,0,1,.36-.4,16.46,16.46,0,0,1,4.75-.62c.27-.49,0-.66-.72-.55"/><path class="cls-1" d="M15.75,22.72s0,1.93,0,2c.06.6.4.67.52.36l-.08-2.42c-.18-.27-.38-.41-.44.07"/><path class="cls-1" d="M17.87,22.89a1.37,1.37,0,0,1-.57,0c-.09.28.05.32.19.39h.27a4,4,0,0,1,0,.85h-.37c-.1.09-.09.24.08.48.17-.1.31-.19.33,0l0,1.59c.08.23.22,0,.4-.43v-1a2.4,2.4,0,0,0,1.17-.8,1.35,1.35,0,0,0,.17-1.41c-.09-.23-.35-.31-.8-.2a4.83,4.83,0,0,0-.91.54m1.39.7a1.32,1.32,0,0,1-1,.69V23.2l.73-.45c.37-.16.58-.06.3.84"/><path class="cls-1" d="M21.9,21.69l-.18.35a1.07,1.07,0,0,0-.76.39,2,2,0,0,0-.5,1.53.73.73,0,0,0,.7.68c.28,0,.44-.27.62-.54.06-.11.12-.12.17,0a3.09,3.09,0,0,0,.14.4c.13.17.25.06.37-.21L22.32,22c-.1-.33-.24-.44-.42-.35M21.32,24c-.44.32-.48,0-.38-.42a1.62,1.62,0,0,1,.41-.85c.52-.5.59-.12.44.46a2.7,2.7,0,0,1-.47.81"/><path class="cls-1" d="M23.89,22.35a.34.34,0,0,1-.12-.63l.62-.28a.15.15,0,0,0,0-.23c0-.13-.24-.1-.5,0a1,1,0,0,0-.58.55c-.18.48-.09.87.41.88l.48-.07c.27.05.17.25.09.45-.27.32-.35.44-.66.5s-.14.35,0,.35A1.55,1.55,0,0,0,24.7,23c.24-.54.06-.68-.28-.67Z"/><path class="cls-1" d="M27.52,21.24a1.5,1.5,0,0,1-.62-.73,1.34,1.34,0,0,1,0-.66c-.07-.24-.21-.31-.49,0a1.12,1.12,0,0,0-.07.42.73.73,0,0,0-.37.21,1.24,1.24,0,0,0-.31.79c-.07.63.07.78.31,1a1,1,0,0,0,1,.29,1.09,1.09,0,0,0,.48-.57,1.2,1.2,0,0,0,.64,0c.23,0,.3-.66.11-.66a1.06,1.06,0,0,1-.64-.11m-1.41.62c-.26-.4.06-.93.51-1.17a3.19,3.19,0,0,0,.63.8c-.23.74-.61.93-1.14.37"/><path class="cls-2" d="M15.29,5.66c.9-.49,1.7-.87,2.25-3.17A6.39,6.39,0,0,0,17.6.37c-.14-.6-.57-.38-.79,0-.75,1.42-1.44,2.84-2,4.27-.2.61,0,1,.52,1"/><path class="cls-2" d="M9.74,8.11A9.91,9.91,0,0,0,10,4.87c-.1-1.64-1.15-2.44-2.1-1.21a4.58,4.58,0,0,0-.38,3.75c.58,1.55,1.29,2.12,2.25.7"/><path class="cls-2" d="M1.1,12.86A1.27,1.27,0,0,0,.15,14.7c.7,1.32,2.1,2.2,4.3,1.59A1.57,1.57,0,0,0,5,14,3.51,3.51,0,0,0,1.1,12.86"/><path class="cls-2" d="M7.35,20a4,4,0,0,0-1.59,3.33C6,25.92,7.68,26.67,8.7,25a5.43,5.43,0,0,0,.57-3.27c-.22-1.31-1-2.24-1.92-1.72"/><path class="cls-2" d="M25.42,8.11a5.21,5.21,0,0,0-4.19.67c-.47.27-.46.93,0,1.47q1.18,1.73,2.93.3l1.38-1.77c.28-.4.17-.58-.12-.67"/><path class="cls-2" d="M13.76,8.18a6.19,6.19,0,0,0-6,6.36,6.19,6.19,0,0,0,6,6.36,6.19,6.19,0,0,0,6-6.36,6.19,6.19,0,0,0-6-6.36"/><path class="cls-1" d="M15.4,15,16,13.61c.12-.2,0-.31-.22-.35a20.82,20.82,0,0,0-2.62,0c-1.14.33-1.26.85-1.33,1.38,0,1.52-.05,3,0,4.54,0,.66.25,1,.66,1.07A13,13,0,0,0,16,20.07a.74.74,0,0,1-.33-.89c.13-.46,0-.74-.68-.44a.64.64,0,0,1-.28.44c-.37.21-.82.3-1.62-.18-.43-.29-.75-.7-.2-1.82.57-.63,1.19-.76,1.49-.09.2.07.34.05.4-.1a1,1,0,0,1,.49-1.21c-.38-.4-.56-.9-1.19.09l-1.42.29c.11-1.14.63-2.12,2.15-1.81a2.31,2.31,0,0,1,.6.61"/><path class="cls-1" d="M20.34,16.87a1.18,1.18,0,0,1-.56,0,1.53,1.53,0,0,0-.31.48c.2.15.55.12.79.17.18,1.22-.7,1.84-2.05,1.44-.88-.39-1.26-1.27-.75-3,.77-1.36,1.61-2,2.55-1.63.19.09.43.29.14.48s-.13.21.12.26.48,0,.56-.49a2,2,0,0,0-.12-.76c-.14-.55-.76-.72-1.82-.59a3.43,3.43,0,0,0-2.34,2.68c-.28,1.43-.2,2.67.65,3.5a3.54,3.54,0,0,0,2.81.81c1.11-.5,1.19-2.26.89-3a.53.53,0,0,1,.12-.72.45.45,0,0,0-.38-.16.77.77,0,0,1-.3.46"/><path class="cls-1" d="M26.05,13.52a4.09,4.09,0,0,0-3.58,0,1.79,1.79,0,0,0-1,1.93,4.22,4.22,0,0,1,1.17-.95c.62-.22,1,0,.89.6l-.4,1.66c-.47,2.66,0,3.54,1.08,3.49.19,0,.33-.09.28-.3a3.08,3.08,0,0,1-.28-1.16c0-1.23-.06-2.46-.1-3.69a.64.64,0,0,1,.15-.42A1.05,1.05,0,0,1,26,15.1l.51-.61c.24-.36.05-.68-.42-1"/><path class="cls-3" d="M18.56,6.41c1.62-2.2,2.72-1.59,3.65,0,.13.29.33.38.64.14,3-1.38,6.35-.65,6.46,4.47-.75,3.76-2.58,5.3-4.94,5.76,2.8-.07,6.32-2.24,6.55-5.85C31,6,28,3.62,22.57,6.17,21.36,4,20.16,4.28,18.94,5.33a3.2,3.2,0,0,0-.66,1.12c0,.43,0,.42.28,0"/><path class="cls-4" d="M19.06,19.1c-2.39.15-4.73.43-6.57,1.91l.14.77a3.59,3.59,0,0,1,1.49-1.17,18.94,18.94,0,0,1-.27,3.95c0,.55.35.63.46.44a16.37,16.37,0,0,0,.36-4.33.37.37,0,0,1,.35-.4,16.89,16.89,0,0,1,4.75-.63c.27-.49,0-.65-.71-.54"/><path class="cls-4" d="M15.86,22.42s0,1.93,0,2c.05.6.4.67.52.36l-.09-2.42c-.08-.12-.21-.14-.43.07"/><path class="cls-4" d="M17.94,22.49a1.37,1.37,0,0,1-.57,0c-.09.28.06.32.19.39h.28a4.82,4.82,0,0,1,0,.85h-.38c-.09.09-.09.24.09.48.16-.1.3-.19.33,0l0,1.59c.09.23.23,0,.41-.43v-1a2.56,2.56,0,0,0,1.17-.8,1.38,1.38,0,0,0,.16-1.41c-.09-.23-.34-.31-.79-.2a4.17,4.17,0,0,0-.92.54m1.4.7a1.32,1.32,0,0,1-1,.68V22.8l.72-.45c.37-.16.58-.06.31.84"/><path class="cls-4" d="M22,21.29l-.18.35A1.07,1.07,0,0,0,21,22a2,2,0,0,0-.5,1.53.74.74,0,0,0,.7.68c.29,0,.44-.27.62-.54.06-.11.12-.13.18,0a3.76,3.76,0,0,0,.13.4c.13.17.25.05.37-.21l-.14-2.23c-.09-.34-.24-.44-.42-.35m-.57,2.33c-.45.31-.49,0-.39-.42a1.7,1.7,0,0,1,.41-.85c.52-.5.59-.12.44.46a2.69,2.69,0,0,1-.46.81"/><path class="cls-4" d="M24,22a.33.33,0,0,1-.11-.63l.62-.28a.15.15,0,0,0,0-.23c0-.13-.24-.1-.5,0a.91.91,0,0,0-.57.55c-.18.48-.09.86.41.88l.48-.07c.26,0,.16.25.08.45-.26.32-.35.43-.66.5s-.13.35,0,.34a1.56,1.56,0,0,0,1.06-.84c.23-.54,0-.68-.28-.67Z"/><path class="cls-4" d="M27.59,20.84a1.46,1.46,0,0,1-.61-.73,1.14,1.14,0,0,1,0-.66c-.08-.24-.22-.31-.49,0a.93.93,0,0,0-.07.41.89.89,0,0,0-.38.21,1.33,1.33,0,0,0-.3.8c-.08.63.06.78.3,1a1.07,1.07,0,0,0,1,.29,1,1,0,0,0,.48-.57,1.2,1.2,0,0,0,.64,0c.23,0,.31-.66.11-.66a1.06,1.06,0,0,1-.64-.11m-1.41.62c-.25-.4.06-.93.51-1.17a3.2,3.2,0,0,0,.64.8c-.23.74-.62.93-1.15.37"/><path class="cls-5" d="M15.48,14.56l.58-1.35c.12-.2,0-.31-.21-.35a20.82,20.82,0,0,0-2.62,0c-1.14.33-1.27.85-1.34,1.38,0,1.52,0,3,0,4.54,0,.66.26,1,.66,1.07a13,13,0,0,0,3.51-.18.75.75,0,0,1-.33-.89c.14-.46,0-.74-.68-.44a.64.64,0,0,1-.28.44c-.37.21-.81.3-1.61-.19-.43-.28-.75-.69-.2-1.81.56-.63,1.18-.76,1.49-.1.19.08.34.06.39-.09a1,1,0,0,1,.49-1.21c-.38-.4-.55-.9-1.19.09l-1.42.29c.12-1.14.63-2.12,2.16-1.81a2.31,2.31,0,0,1,.6.61"/><path class="cls-5" d="M20.41,16.47a1.06,1.06,0,0,1-.56,0,1.43,1.43,0,0,0-.3.49c.19.15.54.12.79.17.17,1.22-.71,1.84-2.06,1.44-.88-.39-1.25-1.27-.75-3,.77-1.36,1.61-1.95,2.56-1.63.18.09.43.29.14.48s-.14.21.11.26.48,0,.56-.49a2.23,2.23,0,0,0-.11-.77c-.15-.54-.77-.71-1.83-.58a3.45,3.45,0,0,0-2.34,2.68c-.28,1.43-.19,2.66.66,3.5a3.52,3.52,0,0,0,2.81.81c1.1-.5,1.18-2.26.88-3a.54.54,0,0,1,.12-.72.44.44,0,0,0-.37-.16.89.89,0,0,1-.31.46"/><path class="cls-5" d="M26.12,13.12a4.09,4.09,0,0,0-3.58,0,1.81,1.81,0,0,0-1,1.93,4.37,4.37,0,0,1,1.17-1c.63-.22,1,0,.89.6l-.4,1.66c-.47,2.65.05,3.54,1.08,3.49.19,0,.33-.1.28-.3a3.28,3.28,0,0,1-.28-1.17l-.09-3.68a.58.58,0,0,1,.14-.42A1,1,0,0,1,26,14.7l.51-.62c.24-.36.05-.67-.42-1"/></g></g></svg>