<svg xmlns="http://www.w3.org/2000/svg" viewBox="0 0 157.85 144.72"><defs><style>.cls-1{fill:#fff;}.cls-1,.cls-2,.cls-3{fill-rule:evenodd;}.cls-2,.cls-4{fill:#858480;}.cls-3{fill:#1d7dbc;}</style></defs><g id="Layer_2" data-name="Layer 2"><g id="Calque_1" data-name="Calque 1"><path class="cls-1" d="M66.39,92.68c0-13.87-.11-27.75,0-41.63,0-2.38-.61-3.18-3-3-3,.25-6.12.23-9.18.22-7.68,0-11,5.14-12.52,10.52a18.94,18.94,0,0,0-.48,1.94c-.1.68-.39,1-1.11,1s-.93-.52-.93-1.16c0-5,0-9.95,0-14.92,0-1.66,1.18-1.2,2-1.2,7.49,0,15-.12,22.44,0,2.35.05,2.86-.69,2.78-2.87-.16-4.78-.1-9.57,0-14.35,0-1.57-.37-2.13-2-2.19-10.15-.39-14.06,2.39-16.79,12.19-.21.76-.16,1.57-1.31,1.38s-.72-1-.72-1.59c0-4.41.1-8.81-.06-13.21-.08-2,.54-2.54,2.54-2.52,13,.09,26.09,0,39.12,0,4.42,0,8.83.06,13.24,0,1.74,0,2.55.23,2.47,2.28-.17,4.3,0,8.61-.08,12.91,0,.73.61,1.89-.72,2.11s-1.28-1.1-1.62-1.89c-.22-.53-.34-1.1-.51-1.64-2.46-7.33-6.12-10-13.79-10-4.48,0-4.48,0-4.48,4.33s.09,8.43,0,12.63c0,1.86.47,2.42,2.39,2.39,7.58-.11,15.15,0,22.73-.09,1.86,0,2.44.45,2.37,2.35-.14,4.39,0,8.8-.06,13.21,0,.63.49,1.64-.78,1.77-1.07.12-1.21-.73-1.45-1.44a50.54,50.54,0,0,0-1.83-5.1c-1.85-3.86-4.81-6.36-9.23-6.82-4.1-.45-8.2,0-12.3-.22-2.05-.1-1.73,1.23-1.73,2.45,0,9.34-.11,18.69.06,28A6.19,6.19,0,0,1,79,84.2c-3.12,2.35-6.09,4.91-9.28,7.18-1,.69-1.91,1.65-3.33,1.3"/><path class="cls-2" d="M66.39,92.68c4.73-3.09,9-6.84,13.45-10.23,1.33-1,1.5-2.25,1.49-3.75,0-9.37,0-18.73-.06-28.1,0-2.1.54-3,2.74-2.78,3.88.35,7.81-.54,11.66.55-3.92,0-7.83,0-11.74,0-1.33,0-2.13.18-2.13,1.82.06,10,0,20,0,30.57,9.94-7.55,19.78-14.39,31.66-17.4a2.61,2.61,0,0,1,.91,2.28,92.65,92.65,0,0,1-.16,11.9c-.38,1.51-1.64,2-2.93,2.43-9.9,3.12-18.32,8.93-26.83,14.6a3.89,3.89,0,0,0-1.83,3.6c0,1.41.28,2.87-.49,4.2a.86.86,0,0,1-.76.24c-1.44-1.33-.2-3.33-1.27-5-4.65,2.8-9.24,5.65-14,8.29-6.9,3.36-13.9,6.41-21.52,7.75a76.88,76.88,0,0,1-10.81,1.31c-3.73-.14-7.49-.16-11.07-1.33-2.16-.71-2.75.13-2.74,2.13,0,6.3.06,12.6,0,18.9,0,1.19.53,2.78-1.28,3.36,0-8-.06-16.06.05-24.09a3.66,3.66,0,0,0-2.22-3.75C1.71,101.81-4.25,83.33,3.22,69.21a13.56,13.56,0,0,1,5.54-6.09C1.6,72.43,1,82.34,6.07,92.59a25.49,25.49,0,0,0,12.66,12.14V35.33c1.79.72,1.33,2.34,1.35,3.66.07,7.54,0,15.09,0,22.65q0,19.22,0,38.42c0,4.35.39,4.69,4.7,5.65,3.13.69,6.32,0,9.43.72,6.32-.24,12.08-2.52,17.74-5.05a68.1,68.1,0,0,0,14.4-8.7"/><path class="cls-1" d="M34.24,106.43c-4.78,1.41-9.39.48-14-1.05-1.62-.53-1-1.88-1-2.91q0-31.32,0-62.67c0-1.49.31-3-.5-4.47-.24-3.2-2.37-4.34-5.19-4.69-.85-.11-1.73-.08-2.58-.11-.53,0-.93-.21-1-.78-.08-.75.34-1,1-1h3.16c9,0,18,0,27,0,.72,0,2-.6,2.1.73.15,1.65-1.28,1-2.08,1-5.14.29-6.74,1.62-6.79,6.78-.16,15.68-.13,31.36-.16,47.05,0,7.35,0,14.72,0,22.08"/><path class="cls-1" d="M113.47,78.48l-.13,9.62s14.71,1.9,15.76,1.67c0-4.13.1-8.27.15-12.4,1.24-1.69.85-3.66.77-5.5-.16-3.46.77-7-.77-10.36,0-7.83-.1-15.67-.13-23.5,0-5.75,1.23-7,6.93-7.47.7-.05,1.76.3,1.81-.82.08-1.42-1.15-1-1.89-1q-14.52,0-29,0c-.75,0-2-.49-2.09.77-.09,1.58,1.33,1,2.14,1,4.87.32,6.54,1.93,6.56,6.73,0,8.69,0,17.38-.07,26.08l0,15.14Z"/><path class="cls-3" d="M109.93,88.24a53.88,53.88,0,0,0-20.45,8.55c-2.56,1.77-5.69,2.8-7.57,5.5l-.56.14c-1.15-.06-1.93.72-2.82,1.25-4.24,2.55-8.29,5.43-12.79,7.53-8.74,4.88-17.65,9.24-28,9.51-.75,0-1.83-.06-1.83,1.24,5.53.33,11,.39,16.48-.88,4.74-1.09,9.2-3,13.87-4.23a5.84,5.84,0,0,0,3.33-.69c2.75-1.09,5.44-2.37,8.15-3.56s2.76-1.25,2.76,1.79c0,6.69,0,13.38.06,20.07,0,1.15-.67,2.74,1.17,3.34,0-8.5,0-17-.12-25.5A3.33,3.33,0,0,1,84,108.65c3.41-1.47,6.7-3.25,10-4.88,6.16-3,12.56-5.08,19.5-5.21,5.45,1.28,11,2.21,15.66,5.74,3.89,2,7.14,1.51,9.14-1.44s1.2-6.39-2.29-9.19a30.51,30.51,0,0,0-7-3.9C124.05,88.11,112.76,87.58,109.93,88.24Z"/><path class="cls-1" d="M113.55,98.55c5.89.1,11.52.9,15.66,5.74,0,10.91-.1,21.8-.06,32.7,0,3.71,1.89,5.51,5.68,5.77.76.06,1.53,0,2.29.06.57,0,.79.45.77,1a.73.73,0,0,1-.71.74,13.57,13.57,0,0,1-1.43.05c-9.58,0-19.16,0-28.74,0-.78,0-2.24.61-2.14-1,.06-1.25,1.33-.75,2.09-.79,4.94-.26,6.59-1.83,6.61-6.66,0-12.53,0-25.06,0-37.58"/><path class="cls-1" d="M18.73,138c.78-1.31.49-2.77.5-4.17,0-7.3,0-14.6,0-22.39,5,2.49,10.09,2.13,15,3.07,1.35,2,1,4.23.66,6.36a88.1,88.1,0,0,0-.17,17.26c-.11,3,2,3.92,4.28,4.49a16.32,16.32,0,0,0,3.14.17c.61,0,1.16.08,1.21.87s-.45.95-1.1.95H40.82c-9.47,0-18.95,0-28.43,0-.82,0-2.27.64-2.34-.75-.11-1.77,1.52-1,2.38-1,4.16-.23,5.44-1.16,6.3-4.82"/><path class="cls-1" d="M66.29,116.85l14.62-6.61c.7.81.41,1.69.42,2.48,0,7.34,0,14.69,0,22,0,1-.23,2.1.4,3,.78,3.67,2.26,4.77,6.49,5,.82,0,2.25-.63,2.29.84s-1.41.92-2.2.92q-14.52.08-29,0c-.73,0-2,.55-2.06-.78-.08-1.64,1.34-1,2.14-1,5.13-.24,6.81-1.82,6.88-7,.09-6.3,0-12.61,0-18.92"/><path class="cls-2" d="M129.25,77.37V61.5a45.55,45.55,0,0,1,23.51,6.27c4.92,2.83,6.48,8.27,3.76,12.68-2.82,4.59-8.46,5.63-13.24,2.33a35,35,0,0,0-14-5.41"/><path class="cls-1" d="M66.38,111.65q0-3.15-.08-6.3l15-9.52c0,2.52,0,4.56,0,6.6a101,101,0,0,1-15,9.22"/><path class="cls-4" d="M41.74,1,48.66,0,45.77,8.16a28.68,28.68,0,0,1,6.37-7A5.06,5.06,0,0,1,54.78,0a1.49,1.49,0,0,1,1,.33,1.21,1.21,0,0,1,.37,1,3.65,3.65,0,0,1-.67,2.09,1.55,1.55,0,0,1-1.4.75,1.32,1.32,0,0,1-.78-.25,1.08,1.08,0,0,1-.41-.77.57.57,0,0,0-.18-.42.63.63,0,0,0-.37-.12,1.78,1.78,0,0,0-.65.12A7.18,7.18,0,0,0,50.15,4a36.82,36.82,0,0,0-3.61,4.23,13.31,13.31,0,0,0-1.44,2.49c-.55,1.28-.86,2.05-1,2.31l-.65,2.1H40.44L44.15,4.77a9,9,0,0,0,.62-2.58.59.59,0,0,0-.3-.49,1.8,1.8,0,0,0-1-.27,11.93,11.93,0,0,0-1.55.15Z"/><path class="cls-4" d="M74.55,5.25a9,9,0,0,1-1.6,5,10.88,10.88,0,0,1-4.43,3.9A12.13,12.13,0,0,1,63,15.55a6.74,6.74,0,0,1-4.49-1.46,4.75,4.75,0,0,1-1.74-3.77,8.67,8.67,0,0,1,1.7-4.94A11.78,11.78,0,0,1,63,1.46,12.08,12.08,0,0,1,68.47,0a6.5,6.5,0,0,1,4.37,1.46,4.74,4.74,0,0,1,1.71,3.77M71.24,4.11a3.06,3.06,0,0,0-.92-2.39A3.42,3.42,0,0,0,68,.89c-2,0-3.76,1.17-5.42,3.52a12.14,12.14,0,0,0-2.47,7,3.11,3.11,0,0,0,1,2.44,3.53,3.53,0,0,0,2.42.86c1.88,0,3.65-1.16,5.31-3.5a12.23,12.23,0,0,0,2.48-7.11"/><path class="cls-4" d="M95.41.43l-3.48,10a12.42,12.42,0,0,0-.78,2.8.68.68,0,0,0,.12.44.45.45,0,0,0,.35.14,1.42,1.42,0,0,0,.76-.25,17.39,17.39,0,0,0,2.06-2.07l.62.39a11.9,11.9,0,0,1-3.26,3.08,4.24,4.24,0,0,1-2.12.62,1.88,1.88,0,0,1-1.23-.36,1.17,1.17,0,0,1-.43-.95,6.39,6.39,0,0,1,.24-1.51q.33-1.23,1.85-5.38a33.08,33.08,0,0,1-5.7,6.43,7.17,7.17,0,0,1-4.26,1.77A2.4,2.4,0,0,1,78.58,15a1.68,1.68,0,0,1-.64-1.36,13.29,13.29,0,0,1,.87-3.84l1.77-5.17a11.12,11.12,0,0,0,.62-2.31A.45.45,0,0,0,81,2a.5.5,0,0,0-.35-.15,1.62,1.62,0,0,0-.85.26A12.84,12.84,0,0,0,77.91,4l-.63-.35A10.77,10.77,0,0,1,80.47.74,5,5,0,0,1,82.84,0a1.84,1.84,0,0,1,1.22.39,1.3,1.3,0,0,1,.47,1,11.63,11.63,0,0,1-.8,3.22l-1.89,5.4a12.17,12.17,0,0,0-.77,2.8.61.61,0,0,0,.25.51,1.07,1.07,0,0,0,.67.2A4,4,0,0,0,83.71,13a12.41,12.41,0,0,0,2.84-2.45A36.59,36.59,0,0,0,89.48,7a24.72,24.72,0,0,0,2.45-5.3L92.37.43Z"/><path class="cls-4" d="M40.54.48,38.42,7.63h-.77a14.35,14.35,0,0,0,.18-1.85A3.58,3.58,0,0,0,36,2.87a8.5,8.5,0,0,0-5-1.26A13.1,13.1,0,0,0,20.55,6.49a13.1,13.1,0,0,0-3.25,8.66,8,8,0,0,0,2,5.48q2,2.31,6.21,2.31a11,11,0,0,0,1.95-.16c.62-.1,1.55-.33,2.79-.67l2.06-5.84a6,6,0,0,0,.44-1.91,1,1,0,0,0-.54-.91,5.93,5.93,0,0,0-2.83-.5h-.57l.23-.65H40.74l-.2.65a7.18,7.18,0,0,0-2.34.3,2.89,2.89,0,0,0-1.25,1,13.11,13.11,0,0,0-1.13,2.64l-2.08,5.74a36.2,36.2,0,0,1-4.58,1.31,19.65,19.65,0,0,1-3.67.33,16.21,16.21,0,0,1-7.18-1.36,9.31,9.31,0,0,1-4.08-3.55A8.51,8.51,0,0,1,12.9,14.9a11,11,0,0,1,1.53-5.58,15.94,15.94,0,0,1,3.82-4.48,18.86,18.86,0,0,1,5-2.9A21.23,21.23,0,0,1,31.05.48a16.93,16.93,0,0,1,5.44.82,5.49,5.49,0,0,0,1.41.31,1.94,1.94,0,0,0,.88-.19,3.49,3.49,0,0,0,.95-.94Z"/><path class="cls-4" d="M126.09,1.67l-3.22,9h2.62a8.9,8.9,0,0,0,4.1-.7,5.48,5.48,0,0,0,2.16-2.56h.77l-2.88,8.23h-.83a5.39,5.39,0,0,0,.36-1.79,1.68,1.68,0,0,0-.36-1.14,2,2,0,0,0-1-.65,10.57,10.57,0,0,0-2.66-.2h-2.68l-2.71,7.5a5.71,5.71,0,0,0-.38,1.65.93.93,0,0,0,.51.77,4,4,0,0,0,1.76.23h2.5a15.32,15.32,0,0,0,6.48-1.15,11.21,11.21,0,0,0,4.36-4h.77l-2.65,6.3H111.38l.27-.63a7.56,7.56,0,0,0,2.18-.23A2.87,2.87,0,0,0,115,21.5a11.09,11.09,0,0,0,1.31-2.88L121.3,5a8.51,8.51,0,0,0,.56-2.53,1.1,1.1,0,0,0-.54-1,4.09,4.09,0,0,0-2.13-.37h-.44L119,.44h20.19l-1.73,5.49h-.77a6.15,6.15,0,0,0,.15-1.29,2.11,2.11,0,0,0-.54-1.5A4.41,4.41,0,0,0,134.23,2a20.08,20.08,0,0,0-4.59-.31Z"/><path class="cls-4" d="M106,0l-1.58,3.13A19.88,19.88,0,0,1,108.91.7a11.81,11.81,0,0,1,4-.7,6.11,6.11,0,0,1,3.48,1,2.9,2.9,0,0,1,1.43,2.49q0,3-4.08,6.06a15.34,15.34,0,0,1-9.53,3.08,12.11,12.11,0,0,1-2-.14,11.63,11.63,0,0,1-2-.53l-1.67,3.5A4.26,4.26,0,0,0,98,16.75a.63.63,0,0,0,.27.51,2,2,0,0,0,.86.33,14.12,14.12,0,0,0,2.33.12l-.2.5H90.54l.22-.5a7.56,7.56,0,0,0,2.87-.43,4.66,4.66,0,0,0,1.56-2.11L101,3.3a4.86,4.86,0,0,0,.51-1.4.63.63,0,0,0-.34-.57,2.26,2.26,0,0,0-1.08-.21c-.45,0-1.07,0-1.84.11V.71Zm-5.32,10.84a6.41,6.41,0,0,0,3.82,1,7.64,7.64,0,0,0,2.4-.4,9.68,9.68,0,0,0,2.41-1.16,11.59,11.59,0,0,0,2.11-1.77,12.33,12.33,0,0,0,1.69-2.38,5.65,5.65,0,0,0,.75-2.72,1.87,1.87,0,0,0-.84-1.65,3.43,3.43,0,0,0-2-.57,8.44,8.44,0,0,0-4.86,1.67,10.68,10.68,0,0,0-3.53,3.94Z"/></g></g></svg>