<svg xmlns="http://www.w3.org/2000/svg" viewBox="0 0 157.91 144.72"><defs><style>.cls-1{fill:#fff;}</style></defs><g id="Layer_2" data-name="Layer 2"><g id="Calque_1" data-name="Calque 1"><path class="cls-1" d="M63.63,44.39h0Z"/><path class="cls-1" d="M43.35,29.48c-.12-1.33-1.38-.72-2.1-.73-9-.05-18,0-27,0H11.06c-.68,0-1.1.27-1,1,.06.57.45.77,1,.78.86,0,1.73,0,2.58.11,2.82.35,5,1.49,5.19,4.69h-.07v65.75A25.08,25.08,0,0,0,31,104.33h0a26.75,26.75,0,0,0,3.56-.25v-68c.3-4.18,2-5.32,6.74-5.59C42.06,30.47,43.5,31.12,43.35,29.48Z"/><path class="cls-1" d="M43.49,1.43a1.86,1.86,0,0,1,1,.27.62.62,0,0,1,.3.49,9.14,9.14,0,0,1-.63,2.58L40.5,15.16h3.06l.65-2.1c.09-.26.4-1,.95-2.31a12.81,12.81,0,0,1,1.45-2.49A35.86,35.86,0,0,1,50.21,4a7,7,0,0,1,1.6-1.32,1.69,1.69,0,0,1,.64-.12.66.66,0,0,1,.38.12.57.57,0,0,1,.17.42,1.12,1.12,0,0,0,.41.77,1.33,1.33,0,0,0,.79.25,1.54,1.54,0,0,0,1.39-.75,3.65,3.65,0,0,0,.67-2.09,1.21,1.21,0,0,0-.37-1,1.49,1.49,0,0,0-1-.33,5,5,0,0,0-2.63,1.14,28.49,28.49,0,0,0-6.38,7L48.72,0,41.8,1l.15.61A11.68,11.68,0,0,1,43.49,1.43Z"/><path class="cls-1" d="M63.06,15.55a12.17,12.17,0,0,0,5.53-1.43A11,11,0,0,0,73,10.22a9.09,9.09,0,0,0,1.59-5A4.74,4.74,0,0,0,72.9,1.48,6.47,6.47,0,0,0,68.54,0a12.09,12.09,0,0,0-5.48,1.44,11.85,11.85,0,0,0-4.53,3.92,8.65,8.65,0,0,0-1.69,4.94,4.72,4.72,0,0,0,1.74,3.77A6.71,6.71,0,0,0,63.06,15.55ZM62.6,4.41Q65.08.88,68,.89a3.42,3.42,0,0,1,2.37.83,3.07,3.07,0,0,1,.93,2.39,12.3,12.3,0,0,1-2.48,7.11c-1.66,2.34-3.43,3.5-5.32,3.5a3.5,3.5,0,0,1-2.41-.86,3.08,3.08,0,0,1-1-2.44A12.15,12.15,0,0,1,62.6,4.41Z"/><path class="cls-1" d="M79.89,2.12a1.65,1.65,0,0,1,.85-.26A.54.54,0,0,1,81.1,2a.44.44,0,0,1,.16.33,11.12,11.12,0,0,1-.62,2.31L78.87,9.82A13.29,13.29,0,0,0,78,13.66,1.68,1.68,0,0,0,78.64,15a2.42,2.42,0,0,0,1.57.53,7.15,7.15,0,0,0,4.26-1.77,32.75,32.75,0,0,0,5.7-6.43c-1,2.77-1.63,4.56-1.84,5.38a6,6,0,0,0-.25,1.51,1.15,1.15,0,0,0,.44.95,1.83,1.83,0,0,0,1.22.36,4.18,4.18,0,0,0,2.12-.62,11.76,11.76,0,0,0,3.26-3.08l-.62-.39a18.58,18.58,0,0,1-2,2.07,1.45,1.45,0,0,1-.76.25.42.42,0,0,1-.35-.14.68.68,0,0,1-.13-.44A12.42,12.42,0,0,1,92,10.4l3.48-10h-3L92,1.7A24.72,24.72,0,0,1,89.54,7a33.88,33.88,0,0,1-2.93,3.56A12.2,12.2,0,0,1,83.77,13a4,4,0,0,1-1.72.55,1.07,1.07,0,0,1-.67-.2.63.63,0,0,1-.25-.51,12.75,12.75,0,0,1,.77-2.8l1.9-5.4a11.63,11.63,0,0,0,.8-3.22,1.3,1.3,0,0,0-.47-1A1.89,1.89,0,0,0,82.9,0a4.93,4.93,0,0,0-2.36.72,10.53,10.53,0,0,0-3.19,2.87L78,4A13.38,13.38,0,0,1,79.89,2.12Z"/><path class="cls-1" d="M18.38,22.87a16.21,16.21,0,0,0,7.18,1.36,19.65,19.65,0,0,0,3.67-.33,36.61,36.61,0,0,0,4.57-1.31l2.09-5.74A13.32,13.32,0,0,1,37,14.21a2.92,2.92,0,0,1,1.26-1A7.11,7.11,0,0,1,40.6,13l.2-.65H29.11l-.23.65h.57a5.93,5.93,0,0,1,2.83.5,1,1,0,0,1,.54.91,6,6,0,0,1-.44,1.91l-2.05,5.84c-1.25.34-2.17.57-2.79.67a11.16,11.16,0,0,1-1.95.16c-2.8,0-4.88-.77-6.21-2.31a8,8,0,0,1-2-5.48,13.1,13.1,0,0,1,3.25-8.66A13.08,13.08,0,0,1,31.14,1.61a8.48,8.48,0,0,1,5,1.26,3.59,3.59,0,0,1,1.8,2.91,16.46,16.46,0,0,1-.18,1.85h.76L40.6.48h-.8a3.63,3.63,0,0,1-1,.94,1.9,1.9,0,0,1-.87.19,5.32,5.32,0,0,1-1.41-.31A17,17,0,0,0,31.12.48a21.15,21.15,0,0,0-7.8,1.46,18.86,18.86,0,0,0-5,2.9A15.94,15.94,0,0,0,14.5,9.32,10.91,10.91,0,0,0,13,14.9a8.49,8.49,0,0,0,1.32,4.42A9.29,9.29,0,0,0,18.38,22.87Z"/><path class="cls-1" d="M121.39,1.44a1.1,1.1,0,0,1,.54,1A8.6,8.6,0,0,1,121.36,5l-4.94,13.67a11.83,11.83,0,0,1-1.31,2.88,2.94,2.94,0,0,1-1.21.77,7.65,7.65,0,0,1-2.19.23l-.26.63h21.73l2.66-6.3h-.78a11.21,11.21,0,0,1-4.36,4A15.32,15.32,0,0,1,124.22,22h-2.5a3.9,3.9,0,0,1-1.75-.23.93.93,0,0,1-.52-.77,5.81,5.81,0,0,1,.39-1.65l2.7-7.5h2.68a10.67,10.67,0,0,1,2.67.2,2.07,2.07,0,0,1,1,.65,1.73,1.73,0,0,1,.36,1.14,5.65,5.65,0,0,1-.36,1.79h.83l2.88-8.23h-.77a5.49,5.49,0,0,1-2.17,2.56,8.84,8.84,0,0,1-4.1.7h-2.62l3.22-9h3.56a20,20,0,0,1,4.58.31,4.5,4.5,0,0,1,2.06,1.16,2.15,2.15,0,0,1,.53,1.5,6.15,6.15,0,0,1-.15,1.29h.78L139.23.44H119l-.23.63h.44A4.16,4.16,0,0,1,121.39,1.44Z"/><path class="cls-1" d="M101.2,1.33a.63.63,0,0,1,.34.57A5,5,0,0,1,101,3.3L95.25,15.17a4.59,4.59,0,0,1-1.55,2.11,7.6,7.6,0,0,1-2.87.43l-.23.5h10.75l.19-.5a14.12,14.12,0,0,1-2.33-.12,2,2,0,0,1-.85-.33.6.6,0,0,1-.27-.51,4.26,4.26,0,0,1,.51-1.33l1.66-3.51a12,12,0,0,0,2,.54,12.15,12.15,0,0,0,2,.14,15.31,15.31,0,0,0,9.52-3.08q4.08-3.07,4.08-6.06A2.9,2.9,0,0,0,116.41,1a6.07,6.07,0,0,0-3.47-1,11.91,11.91,0,0,0-4,.7,19.06,19.06,0,0,0-4.44,2.43L106.11,0,98.28.71v.52c.78-.07,1.39-.11,1.85-.11A2.07,2.07,0,0,1,101.2,1.33Zm5.1,1.54a8.43,8.43,0,0,1,4.85-1.68,3.49,3.49,0,0,1,2,.58A1.89,1.89,0,0,1,114,3.42a5.65,5.65,0,0,1-.75,2.72,11.91,11.91,0,0,1-1.69,2.38,11.37,11.37,0,0,1-2.11,1.78A9.83,9.83,0,0,1,107,11.45a7.64,7.64,0,0,1-2.4.4,6.41,6.41,0,0,1-3.82-1l2-4A10.71,10.71,0,0,1,106.3,2.87Z"/><path class="cls-1" d="M81.9,80.74l0,0C82.33,80.26,81.91,80.43,81.9,80.74Z"/><path class="cls-1" d="M81.92,80.72l0,0h0Z"/><path class="cls-1" d="M88.31,142.81c-4.22-.24-5.79-1.46-6.52-3.72V113.62A113,113,0,0,1,66,120.49V139c-.73,2.71-2.63,3.66-6.52,3.85-.79,0-2.22-.65-2.13,1,.06,1.33,1.32.77,2,.78q14.52,0,29,0c.8,0,2.26.61,2.21-.92S89.14,142.84,88.31,142.81Z"/><path class="cls-1" d="M42.21,142.78a16.32,16.32,0,0,1-3.14-.17c-2.34-.57-4.55-2.05-4.55-4.61V117.9h0a41.42,41.42,0,0,1-15.79-3v23.4c-.85,3.43-2.17,4.32-6.23,4.55-.86,0-2.48-.76-2.38,1,.08,1.39,1.53.75,2.35.75,9.47.05,19,0,28.42,0h1.44c.64,0,1.14-.18,1.09-.95S42.82,142.79,42.21,142.78Z"/><path class="cls-1" d="M137.19,142.82c-.77,0-1.54,0-2.3-.06-3.26-.22-5.1-1.59-5.56-4.33V107.67a17.11,17.11,0,0,1-3.72-2.24c-2.31-1.8-7.5-3.73-12.08-3.88v36.31c-.41,3.48-2.22,4.71-6.51,4.93-.76,0-2-.46-2.09.79-.09,1.6,1.36,1,2.14,1,9.59.05,19.16,0,28.74,0a13.76,13.76,0,0,0,1.44-.05.72.72,0,0,0,.7-.74C138,143.27,137.76,142.86,137.19,142.82Z"/><path class="cls-1" d="M136,28.75q-14.5,0-29,0c-.74,0-2-.5-2.09.77-.08,1.57,1.33,1,2.14,1,4.24.27,6.05,1.54,6.46,5V85c.83,0,1.63,0,2.41,0a43.14,43.14,0,0,1,13.39,2V35.23c.46-3.42,2.15-4.34,6.78-4.68.71-.06,1.76.29,1.82-.83C138,28.31,136.77,28.75,136,28.75Z"/><path class="cls-1" d="M137.1,94.54a16.61,16.61,0,0,0-4.77-3.27,26.64,26.64,0,0,0-3-1.26A41.33,41.33,0,0,0,113.53,88h0a29.87,29.87,0,0,0-3,.3C98.49,90,88,98.67,81.79,102.21l-.38.22c-3.62,2-9.43,5.69-15.42,9-5.08,2.85-10.28,5.44-14.37,6.5a92.18,92.18,0,0,1-13.93,2.84c-1.13.05-.9,1.17,0,1.31,3.86.55,14.09.36,28.26-4.76a116.7,116.7,0,0,0,15.8-7.13c14.35-7.77,22.93-10.51,27.82-11.38.3-.06.61-.11.92-.15a17.53,17.53,0,0,1,3-.16c5.45.14,11.22,2.41,13.92,4.52a16.66,16.66,0,0,0,1.88,1.26,10.21,10.21,0,0,0,3,1.17,5.59,5.59,0,0,0,6.08-2.64C141.4,98.45,137.1,94.54,137.1,94.54Z"/><path class="cls-1" d="M152.83,67.77a45.84,45.84,0,0,0-20.11-6.17,3.33,3.33,0,0,0-.39-.05V78a32.66,32.66,0,0,1,11,4.77c4.78,3.3,10.42,2.27,13.24-2.32C159.3,76,157.74,70.61,152.83,67.77Z"/><path class="cls-1" d="M81.9,80.75h0l-.11.08C76.53,84.87,71.35,89.07,66,92.9a86.13,86.13,0,0,1-18.87,10.63,61.51,61.51,0,0,1-10.71,3.27c-.63.14-1.26.23-1.89.32a27.06,27.06,0,0,1-15.8-2.49c-14.46-7.07-22-26.26-9.9-41.5C-7.5,75.35.58,104,18.72,111.61l.1,0a38.12,38.12,0,0,0,15.7,3.23c10.63,0,21.46-3.86,31.47-9a168.19,168.19,0,0,0,15.8-9.43c1.07-.71,2.12-1.41,3.14-2.11h0a126.52,126.52,0,0,1,25.6-14.22V64.2c-10.6,3.32-19.72,9.68-28.61,16.52Z"/><path class="cls-1" d="M108.24,61.74c-1.07.11-1.21-.73-1.45-1.44A51.61,51.61,0,0,0,105,55.19c-1.85-3.86-2.81-6.36-7.23-6.81-4.1-.45-9-.12-13.25,0-1.67,0-2.46.7-2.7,2.13V77.15c-2.09,1.59-4.15,3.21-6.21,4.82-3.22,2.53-6.39,5-9.59,7.36V50.85c0-1.59-.32-2.41-1.75-2.47-.24,0-8,0-11.66,0-6.54,0-9.43,5.46-10.86,10.44a18.94,18.94,0,0,0-.48,1.94c-.1.68-.39,1-1.11,1s-.93-.53-.93-1.17c0-5,0-9.94,0-14.92,0-.91.36-1.18.83-1.24a11.84,11.84,0,0,1,1.19,0l18.51,0s1,0,2.07,0h2c1.76,0,2.21-.82,2.21-1.65V41.61s-.07-8.17,0-12.95V27.34c0-1.42-.45-2.23-2.41-2.26-12.25-.19-13.28,2.41-16,12.21-.21.76-.16,1.58-1.31,1.38s-.72-1-.72-1.59c0-4.4.1-8.81-.06-13.21-.08-2,.54-2.53,2.54-2.52,13.05.09,26.09,0,39.12,0,4.42,0,8.83.07,13.24,0,1.74,0,2.55.23,2.47,2.27-.17,4.3-.08,12.92-.08,12.92s.61,1.88-.72,2.1-1.28-1.09-1.62-1.89c-.22-.52-.34-1.09-.51-1.63-2.46-7.33-6.12-10-13.79-10-3.06,0-4,0-4.34,1.37V43.58c.29.69.94.94,2.2.92l1.33,0s14.26.09,21.4,0c1.86,0,2.44.38,2.37,2.29-.14,4.39,0,8.8-.06,13.2C109,60.6,109.51,61.6,108.24,61.74Z"/><path class="cls-1" d="M61.78,44.39c-1.07,0-2.07,0-2.07,0l-18.51,0a11.84,11.84,0,0,0-1.19,0v0Z"/></g></g></svg>