<svg xmlns="http://www.w3.org/2000/svg" viewBox="0 0 187.67 192.03"><defs><style>.cls-1{fill:#fff;}.cls-2{fill:#0c306f;}.cls-2,.cls-3,.cls-4{fill-rule:evenodd;}.cls-3,.cls-5{fill:#858480;}.cls-4{fill:#1d7dbc;}</style></defs><g id="Layer_2" data-name="Layer 2"><g id="Calque_1" data-name="Calque 1"><path class="cls-1" d="M187.67,145.64A46.38,46.38,0,0,1,141.28,192H46.4A46.39,46.39,0,0,1,0,145.64V46.39A46.39,46.39,0,0,1,46.4,0h94.88a46.39,46.39,0,0,1,46.39,46.39Z"/><path class="cls-2" d="M82.93,114.84c0-13.87-.1-27.75,0-41.62,0-2.38-.62-3.18-3-3-3.05.25-6.12.24-9.19.23-7.67,0-11,5.13-12.51,10.51a16.8,16.8,0,0,0-.48,2c-.11.68-.4,1-1.11,1s-.93-.53-.93-1.17c0-5,0-9.94,0-14.92,0-1.65,1.17-1.19,2-1.2,7.48,0,15-.12,22.43.06,2.35,0,2.86-.69,2.79-2.88-.17-4.78-.1-9.56,0-14.35,0-1.56-.37-2.13-2.06-2.19-10.14-.39-14,2.39-16.78,12.19-.21.76-.17,1.58-1.31,1.38s-.73-1-.73-1.59c0-4.4.11-8.81-.06-13.21-.07-2,.55-2.53,2.55-2.52,13,.09,26.08.05,39.12.05,4.42,0,8.82.07,13.23,0,1.74-.05,2.56.23,2.47,2.27-.17,4.3,0,8.61-.07,12.92,0,.72.6,1.88-.73,2.1s-1.27-1.09-1.62-1.89c-.21-.52-.33-1.09-.51-1.63-2.46-7.33-6.12-10-13.79-10-4.48,0-4.48,0-4.48,4.33s.09,8.43,0,12.63c0,1.87.47,2.43,2.39,2.4,7.58-.12,15.15,0,22.72-.09,1.86,0,2.44.44,2.38,2.35-.14,4.39,0,8.8-.06,13.2,0,.64.49,1.64-.79,1.78-1.06.11-1.2-.73-1.44-1.44a51.61,51.61,0,0,0-1.83-5.11c-1.86-3.86-4.82-6.36-9.24-6.82-4.1-.44-8.2,0-12.3-.22-2-.1-1.73,1.23-1.73,2.45,0,9.35-.1,18.69.07,28a6.19,6.19,0,0,1-2.7,5.56c-3.12,2.35-6.09,4.92-9.29,7.18-1,.7-1.91,1.66-3.33,1.3"/><path class="cls-3" d="M82.93,114.84c4.74-3.08,9-6.84,13.45-10.23,1.34-1,1.51-2.25,1.5-3.75,0-9.36,0-18.73-.06-28.09,0-2.1.54-3,2.73-2.78,3.88.34,7.82-.54,11.67.54-3.92,0-7.84,0-11.75,0-1.32,0-2.13.18-2.12,1.83.06,10,0,20,0,30.57,10-7.55,19.78-14.4,31.66-17.41a2.66,2.66,0,0,1,.92,2.28,94.63,94.63,0,0,1-.16,11.91c-.39,1.51-1.65,2-2.93,2.43C118,105.24,109.55,111,101,116.71a3.91,3.91,0,0,0-1.84,3.6c0,1.41.28,2.88-.48,4.2a.85.85,0,0,1-.77.24c-1.43-1.33-.2-3.33-1.26-5-4.66,2.81-9.24,5.66-14,8.3-6.89,3.36-13.89,6.41-21.51,7.75a80.16,80.16,0,0,1-10.81,1.31c-3.73-.15-7.5-.16-11.08-1.34-2.15-.7-2.74.13-2.73,2.14,0,6.3,0,12.6,0,18.9,0,1.19.53,2.78-1.29,3.36,0-8-.06-16.06,0-24.09a3.62,3.62,0,0,0-2.22-3.75C18.26,124,12.3,105.5,19.76,91.37a13.53,13.53,0,0,1,5.54-6.08c-7.16,9.31-7.77,19.21-2.68,29.47A25.56,25.56,0,0,0,35.27,126.9V57.5c1.8.71,1.34,2.34,1.35,3.65.07,7.55,0,15.09,0,22.65q0,19.22,0,38.42c0,4.36.39,4.69,4.71,5.65,3.12.7,6.31,0,9.42.72,6.33-.24,12.08-2.51,17.75-5a67.61,67.61,0,0,0,14.39-8.7"/><path class="cls-2" d="M50.79,128.59c-4.78,1.41-9.39.48-14-1-1.61-.54-1-1.89-1-2.91q0-31.33,0-62.68c0-1.49.3-3.05-.51-4.46-.23-3.21-2.37-4.35-5.19-4.7-.85-.11-1.72-.07-2.58-.11-.53,0-.92-.2-1-.78-.08-.74.34-1,1-1H30.7c9,0,18,0,27,0,.72,0,2-.61,2.1.72.15,1.65-1.29,1-2.09,1C52.61,53,51,54.3,51,59.47c-.16,15.67-.12,31.35-.16,47q0,11,0,22.08"/><path class="cls-2" d="M130,100.65l-.13,9.61s14.71,1.9,15.76,1.67l.15-12.4c1.24-1.69.86-3.66.77-5.5-.16-3.45.78-7-.77-10.36,0-7.83-.1-15.67-.12-23.49,0-5.75,1.22-7,6.92-7.48.71-.05,1.76.3,1.82-.82.07-1.41-1.16-1-1.9-1q-14.5,0-29,0c-.74,0-2-.5-2.09.77-.08,1.57,1.33,1,2.14,1,4.88.32,6.54,1.94,6.56,6.73,0,8.69,0,17.38-.07,26.08,0,5,0,10.1,0,15.15Z"/><path class="cls-4" d="M126.47,110.4A54.17,54.17,0,0,0,106,119c-2.55,1.77-5.68,2.8-7.57,5.5l-.56.14c-1.15-.06-1.93.72-2.82,1.26-4.24,2.55-8.29,5.43-12.79,7.53-8.73,4.87-17.65,9.23-28,9.5-.75,0-1.82-.06-1.82,1.25,5.52.33,11,.39,16.47-.88,4.74-1.09,9.2-3,13.88-4.24a5.74,5.74,0,0,0,3.32-.69c2.76-1.09,5.44-2.37,8.15-3.56s2.76-1.25,2.76,1.79c0,6.7,0,13.38.06,20.07,0,1.15-.66,2.75,1.17,3.35,0-8.5,0-17-.11-25.51a3.33,3.33,0,0,1,2.35-3.65c3.42-1.47,6.7-3.25,10-4.88,6.16-3,12.57-5.08,19.5-5.21,5.45,1.29,11,2.22,15.66,5.74,3.9,2,7.15,1.51,9.14-1.43s1.21-6.4-2.28-9.2a30.58,30.58,0,0,0-7-3.9C140.59,110.27,129.3,109.74,126.47,110.4Z"/><path class="cls-2" d="M130.09,120.71c5.89.11,11.52.9,15.66,5.75,0,10.9-.09,21.8-.06,32.7,0,3.71,1.89,5.51,5.68,5.77.76,0,1.53,0,2.3,0,.57.05.78.46.76,1a.73.73,0,0,1-.7.74,13.76,13.76,0,0,1-1.44,0c-9.58,0-19.15,0-28.74,0-.78,0-2.23.61-2.14-1,.07-1.26,1.33-.75,2.09-.79,4.94-.26,6.59-1.84,6.61-6.67,0-12.53,0-25,0-37.58"/><path class="cls-2" d="M35.27,160.15c.79-1.31.5-2.76.51-4.16,0-7.3,0-14.6,0-22.4,5,2.49,10.09,2.13,15,3.08,1.34,2,.95,4.22.66,6.35a86.66,86.66,0,0,0-.17,17.27c-.12,3,1.94,3.92,4.28,4.49a16.33,16.33,0,0,0,3.14.16c.61,0,1.16.09,1.2.87s-.45.95-1.09.95H57.36c-9.47,0-19,0-28.42,0-.82,0-2.27.63-2.35-.76-.1-1.76,1.52-1,2.38-1,4.16-.23,5.44-1.16,6.3-4.82"/><path class="cls-2" d="M82.84,139l14.61-6.61c.7.82.42,1.7.43,2.48,0,7.35,0,14.7,0,22,0,1-.23,2.1.39,3.05.78,3.67,2.27,4.76,6.49,5,.83,0,2.25-.62,2.3.84s-1.41.93-2.21.93q-14.5.06-29,0c-.73,0-2,.56-2.05-.78-.09-1.63,1.34-1,2.13-1,5.14-.24,6.81-1.82,6.88-7,.09-6.3,0-12.61,0-18.92"/><path class="cls-3" d="M145.79,99.53V83.67a45.48,45.48,0,0,1,23.52,6.26c4.92,2.84,6.48,8.27,3.75,12.69-2.82,4.59-8.45,5.62-13.24,2.32a35,35,0,0,0-14-5.41"/><path class="cls-2" d="M82.93,133.81c0-2.1-.06-4.2-.09-6.29l15-9.52v6.59a100.4,100.4,0,0,1-15,9.22"/><path class="cls-5" d="M58.28,23.14l6.92-1-2.89,8.14a28.69,28.69,0,0,1,6.38-7,5,5,0,0,1,2.64-1.14,1.53,1.53,0,0,1,1,.33,1.21,1.21,0,0,1,.37,1,3.71,3.71,0,0,1-.67,2.1,1.56,1.56,0,0,1-1.39.75,1.29,1.29,0,0,1-.79-.26,1.1,1.1,0,0,1-.41-.77.54.54,0,0,0-.17-.41.65.65,0,0,0-.38-.13,1.7,1.7,0,0,0-.64.13,6.56,6.56,0,0,0-1.6,1.31,37,37,0,0,0-3.6,4.24,12.72,12.72,0,0,0-1.45,2.48c-.55,1.28-.86,2.05-.94,2.31l-.65,2.1H57L60.7,26.93a9.42,9.42,0,0,0,.62-2.57.63.63,0,0,0-.3-.5A1.84,1.84,0,0,0,60,23.59a14,14,0,0,0-1.54.15Z"/><path class="cls-5" d="M91.09,27.42a9,9,0,0,1-1.59,5,11.11,11.11,0,0,1-4.43,3.91,12.3,12.3,0,0,1-5.53,1.43,6.72,6.72,0,0,1-4.48-1.47,4.69,4.69,0,0,1-1.74-3.77A8.7,8.7,0,0,1,75,27.54a11.94,11.94,0,0,1,4.53-3.92A12.09,12.09,0,0,1,85,22.18a6.47,6.47,0,0,1,4.36,1.46,4.76,4.76,0,0,1,1.71,3.78m-3.3-1.15a3,3,0,0,0-.93-2.38,3.38,3.38,0,0,0-2.37-.84q-2.94,0-5.41,3.52a12.15,12.15,0,0,0-2.48,7,3.08,3.08,0,0,0,1,2.44,3.46,3.46,0,0,0,2.41.86q2.83,0,5.32-3.49a12.32,12.32,0,0,0,2.48-7.12"/><path class="cls-5" d="M112,22.59l-3.48,10a12.31,12.31,0,0,0-.78,2.81.7.7,0,0,0,.13.44.45.45,0,0,0,.35.14,1.39,1.39,0,0,0,.76-.26,16.82,16.82,0,0,0,2-2.07l.63.4a12.2,12.2,0,0,1-3.26,3.08,4.35,4.35,0,0,1-2.13.62,1.83,1.83,0,0,1-1.22-.37,1.13,1.13,0,0,1-.44-.94,6.06,6.06,0,0,1,.25-1.52c.21-.82.83-2.6,1.84-5.37A32.75,32.75,0,0,1,101,36a7.21,7.21,0,0,1-4.26,1.77,2.42,2.42,0,0,1-1.57-.53,1.69,1.69,0,0,1-.64-1.36A13.62,13.62,0,0,1,95.35,32l1.77-5.17a11.1,11.1,0,0,0,.62-2.3.44.44,0,0,0-.16-.34.51.51,0,0,0-.36-.14,1.63,1.63,0,0,0-.85.25,13.38,13.38,0,0,0-1.92,1.84l-.62-.34A10.63,10.63,0,0,1,97,22.91a4.84,4.84,0,0,1,2.36-.73,1.89,1.89,0,0,1,1.23.39,1.3,1.3,0,0,1,.47,1,11.63,11.63,0,0,1-.8,3.22l-1.9,5.4a12.9,12.9,0,0,0-.77,2.8.63.63,0,0,0,.25.51,1,1,0,0,0,.67.2,4.08,4.08,0,0,0,1.72-.54,12.25,12.25,0,0,0,2.84-2.45A33.91,33.91,0,0,0,106,29.16a23.77,23.77,0,0,0,2.45-5.3l.45-1.27Z"/><path class="cls-5" d="M57.08,22.65,55,29.8H54.2a16.38,16.38,0,0,0,.18-1.86A3.59,3.59,0,0,0,52.58,25a8.48,8.48,0,0,0-5-1.26A13.11,13.11,0,0,0,37.1,28.65a13.12,13.12,0,0,0-3.25,8.66,8,8,0,0,0,2,5.48c1.33,1.54,3.41,2.31,6.21,2.31A12.24,12.24,0,0,0,44,45a28.45,28.45,0,0,0,2.79-.68l2-5.83a6.15,6.15,0,0,0,.44-1.92,1,1,0,0,0-.54-.91,6.05,6.05,0,0,0-2.83-.5h-.57l.23-.65H57.28l-.2.65a7.7,7.7,0,0,0-2.33.3,2.87,2.87,0,0,0-1.26,1A12.83,12.83,0,0,0,52.37,39l-2.09,5.74a35,35,0,0,1-4.57,1.31,19.65,19.65,0,0,1-3.67.33A16.36,16.36,0,0,1,34.86,45a9.3,9.3,0,0,1-4.09-3.56,8.49,8.49,0,0,1-1.32-4.42A10.85,10.85,0,0,1,31,31.49,16,16,0,0,1,34.8,27a19.14,19.14,0,0,1,5-2.9,21.35,21.35,0,0,1,7.8-1.45,17.3,17.3,0,0,1,5.44.81,5,5,0,0,0,1.41.31,1.9,1.9,0,0,0,.87-.18,3.81,3.81,0,0,0,1-.94Z"/><path class="cls-5" d="M142.63,23.83l-3.22,9H142a9,9,0,0,0,4.1-.69,5.52,5.52,0,0,0,2.17-2.57h.77l-2.88,8.23h-.83a5.65,5.65,0,0,0,.36-1.79,1.73,1.73,0,0,0-.36-1.14,2.06,2.06,0,0,0-1-.64A10.5,10.5,0,0,0,141.7,34H139l-2.7,7.5a5.79,5.79,0,0,0-.39,1.66.94.94,0,0,0,.52.77,4.06,4.06,0,0,0,1.75.23h2.5A15.31,15.31,0,0,0,147.18,43a11.13,11.13,0,0,0,4.36-4h.78l-2.66,6.3H127.93l.26-.62a8,8,0,0,0,2.19-.23,3,3,0,0,0,1.21-.77,12.16,12.16,0,0,0,1.31-2.89l4.94-13.67a8.6,8.6,0,0,0,.57-2.53,1.11,1.11,0,0,0-.54-1,4.16,4.16,0,0,0-2.14-.37h-.44l.23-.62h20.19L154,28.09h-.78a6.15,6.15,0,0,0,.15-1.29,2.14,2.14,0,0,0-.53-1.49,4.5,4.5,0,0,0-2.06-1.16,19.82,19.82,0,0,0-4.58-.32Z"/><path class="cls-5" d="M122.59,22.16,121,25.3a19.52,19.52,0,0,1,4.44-2.44,11.91,11.91,0,0,1,4-.7,6.07,6.07,0,0,1,3.47,1,2.93,2.93,0,0,1,1.43,2.5q0,3-4.08,6.05a15.32,15.32,0,0,1-9.52,3.09,12.07,12.07,0,0,1-2-.15,11,11,0,0,1-2-.53l-1.66,3.5a4.35,4.35,0,0,0-.51,1.33.61.61,0,0,0,.27.52,2.08,2.08,0,0,0,.85.33,15.39,15.39,0,0,0,2.33.12l-.19.5H107.08l.23-.5a7.55,7.55,0,0,0,2.87-.44,4.53,4.53,0,0,0,1.55-2.11l5.78-11.87a4.84,4.84,0,0,0,.51-1.39.64.64,0,0,0-.34-.58,2.2,2.2,0,0,0-1.07-.2c-.46,0-1.07,0-1.85.1v-.52ZM117.26,33a6.48,6.48,0,0,0,3.82,1,7.64,7.64,0,0,0,2.4-.4,9.87,9.87,0,0,0,2.41-1.16A10.65,10.65,0,0,0,128,30.68a11.63,11.63,0,0,0,1.69-2.38,5.65,5.65,0,0,0,.75-2.72,1.9,1.9,0,0,0-.83-1.65,3.49,3.49,0,0,0-2-.57A8.41,8.41,0,0,0,122.78,25,10.71,10.71,0,0,0,119.24,29Z"/></g></g></svg>