<svg xmlns="http://www.w3.org/2000/svg" viewBox="0 0 165.98 140"><defs><style>.cls-1{fill:#fff;opacity:0;}.cls-2{fill:#282423;}.cls-3{fill:#fece1b;}.cls-4{fill:#1d7dbc;}.cls-5{fill:#0ca02e;}.cls-6{fill:#e1041e;}</style></defs><g id="Layer_2" data-name="Layer 2"><g id="Calque_1" data-name="Calque 1"><rect class="cls-1" width="165.98" height="140"/><path class="cls-2" d="M82.76,37c4.15-2.24,7.85-4,10.37-14.6a28.87,28.87,0,0,0,.3-9.77c-.67-2.76-2.65-1.72-3.66,0-3.43,6.54-6.66,13.09-9.38,19.64-1,2.85-.1,4.38,2.37,4.73"/><path class="cls-2" d="M58.52,50.18A45.86,45.86,0,0,0,59.6,35.26c-.45-7.53-5.33-11.22-9.7-5.58C47.1,34.22,46.28,39.85,48.18,47c2.65,7.12,5.9,9.74,10.34,3.21"/><path class="cls-2" d="M18.16,71.37c-4.41,1.32-6.18,4.83-4.42,8.45C17,85.9,23.45,90,33.57,87.15a7.2,7.2,0,0,0,2.37-10.52C30.78,71,24.85,69.28,18.16,71.37"/><path class="cls-2" d="M46.69,104.91c-4.79,3.64-7.27,8.73-7.33,15.34.91,11.83,8.84,15.3,13.53,7.65,2.34-4.11,3-8.21,2.64-15.05-1-6.06-4.67-10.31-8.84-7.94"/><path class="cls-2" d="M129,49.47c-6.88-1.82-13.28-.53-19.29,3.12-2.18,1.23-2.1,4.26,0,6.76,3.64,5.31,8.14,5.73,13.48,1.4l6.35-8.16c1.3-1.86.79-2.71-.54-3.12"/><path class="cls-2" d="M74.81,47.54c-15.28,0-27.66,13.12-27.66,29.29s12.38,29.29,27.66,29.29S102.46,93,102.46,76.83,90.08,47.54,74.81,47.54"/><path class="cls-2" d="M97,40c7.43-10.12,12.53-7.31,16.81,0,.59,1.35,1.49,1.78,2.91.65,13.74-6.33,29.26-2.95,29.74,20.6C143,78.55,134.55,85.66,123.7,87.77c12.85-.31,29.1-10.3,30.15-26.94.4-22.65-13.47-33.67-38.48-21.93-5.54-9.88-11.06-8.68-16.71-3.83a14.05,14.05,0,0,0-3,5.15c-.21,2,.21,1.93,1.3-.22"/><path class="cls-2" d="M99.21,97.83c-11,.71-21.76,2-30.23,8.8l.64,3.54a16.47,16.47,0,0,1,6.84-5.37A87.23,87.23,0,0,1,75.23,123c0,2.53,1.61,2.9,2.09,2a73.34,73.34,0,0,0,1.68-20,1.69,1.69,0,0,1,1.62-1.82,75.57,75.57,0,0,1,21.87-2.9c1.26-2.25.06-3-3.28-2.52"/><path class="cls-2" d="M84.34,112.66s.17,8.91,0,9.18c.25,2.76,1.84,3.08,2.37,1.66l-.37-11.17c-.83-1.25-1.75-1.89-2,.33"/><path class="cls-2" d="M94.09,113.45a6.23,6.23,0,0,1-2.65,0c-.41,1.29.26,1.49.89,1.79l1.27,0a23.32,23.32,0,0,1,0,3.92H91.88c-.45.42-.42,1.1.37,2.21.75-.49,1.42-.87,1.54,0l.14,7.29c.39,1.1,1,.19,1.88-2v-4.62a11.58,11.58,0,0,0,5.39-3.7c1.09-1.27,1.8-3.21.75-6.49-.42-1.06-1.59-1.42-3.65-.91a19.11,19.11,0,0,0-4.21,2.47m6.41,3.21a6,6,0,0,1-4.74,3.17v-4.94l3.34-2.09c1.7-.72,2.68-.27,1.4,3.86"/><path class="cls-2" d="M112.63,107.92l-.81,1.6a4.92,4.92,0,0,0-3.5,1.84,9.16,9.16,0,0,0-2.32,7,3.35,3.35,0,0,0,3.23,3.12c1.32-.17,2-1.24,2.86-2.47.28-.49.55-.58.8-.11a15.14,15.14,0,0,0,.63,1.87c.59.77,1.15.25,1.69-1l-.64-10.31c-.44-1.52-1.09-2-1.94-1.6M110,118.64c-2,1.48-2.25.22-1.78-1.9.41-1.32.45-2.4,1.88-3.91,2.42-2.31,2.73-.59,2,2.09a12.28,12.28,0,0,1-2.15,3.72"/><path class="cls-2" d="M121.79,111c-1.42-.42-1.91-1.92-.52-2.9l2.86-1.29a.7.7,0,0,0,0-1.07c-.21-.6-1.12-.46-2.32,0a4.38,4.38,0,0,0-2.64,2.52c-.83,2.21-.41,4,1.89,4.05l2.2-.3c1.22.23.77,1.16.39,2.05-1.21,1.5-1.61,2-3,2.3-1.25.62-.62,1.64.06,1.61a7.17,7.17,0,0,0,4.85-3.91c1.07-2.46.26-3.12-1.29-3.06Z"/><path class="cls-2" d="M138.52,105.87a7.1,7.1,0,0,1-2.83-3.37,5.72,5.72,0,0,1,0-3.07c-.35-1.09-1-1.41-2.26,0a4.9,4.9,0,0,0-.33,1.94,3.78,3.78,0,0,0-1.72,1c-.94.73-1.26,2.55-1.41,3.65-.34,2.92.32,3.58,1.41,4.72a5,5,0,0,0,4.42,1.35,4.86,4.86,0,0,0,2.21-2.64,5.65,5.65,0,0,0,3,0c1.06,0,1.4-3,.49-3a5.08,5.08,0,0,1-2.94-.49m-6.5,2.85c-1.16-1.84.29-4.29,2.35-5.39a14.13,14.13,0,0,0,2.94,3.67c-1.06,3.4-2.83,4.27-5.29,1.72"/><path class="cls-3" d="M82.2,34.11c4.14-2.25,7.85-4,10.37-14.6a29.16,29.16,0,0,0,.29-9.77C92.18,7,90.2,8,89.2,9.74c-3.43,6.54-6.65,13.09-9.38,19.64-.95,2.85-.1,4.38,2.38,4.73"/><path class="cls-3" d="M56.65,45.37a46.11,46.11,0,0,0,1.07-14.91c-.46-7.54-5.33-11.24-9.7-5.58C45.22,29.41,44.4,35,46.3,42.15c2.65,7.13,5.9,9.75,10.35,3.22"/><path class="cls-3" d="M16.87,67.27c-4.4,1.32-6.17,4.83-4.42,8.44,3.27,6.1,9.72,10.14,19.84,7.34a7.2,7.2,0,0,0,2.38-10.52c-5.17-5.63-11.11-7.35-17.8-5.26"/><path class="cls-3" d="M45.65,100.21c-4.78,3.66-7.26,8.75-7.32,15.36.91,11.83,8.84,15.29,13.53,7.64,2.34-4.1,3-8.21,2.63-15-1-6-4.66-10.3-8.84-8"/><path class="cls-3" d="M128.86,45.37c-6.89-1.82-13.27-.52-19.28,3.12-2.19,1.23-2.12,4.26,0,6.76,3.64,5.3,8.13,5.73,13.46,1.39l6.35-8.15c1.31-1.86.79-2.71-.53-3.12"/><path class="cls-3" d="M75.14,45.69C59.87,45.69,47.49,58.81,47.49,75s12.38,29.29,27.65,29.29S102.81,91.16,102.81,75,90.42,45.69,75.14,45.69"/><path class="cls-2" d="M82.72,77l2.69-6.22c.56-.94.17-1.45-1-1.61a95.31,95.31,0,0,0-12.07,0c-5.26,1.52-5.83,3.9-6.14,6.33-.19,7-.22,14,0,20.93.09,3,1.14,4.59,3,4.93a59.51,59.51,0,0,0,16.17-.85c-1.32-.77-1.94-2-1.51-4.08.62-2.12-.19-3.4-3.13-2a3.13,3.13,0,0,1-1.28,2c-1.71,1-3.77,1.35-7.44-.86-2-1.32-3.47-3.21-.92-8.35,2.59-2.92,5.44-3.51,6.84-.45.92.34,1.58.27,1.84-.43-.73-2.34.08-4.19,2.26-5.58-1.76-1.82-2.56-4.16-5.5.43l-6.52,1.31c.5-5.26,2.89-9.74,9.92-8.32A10.48,10.48,0,0,1,82.72,77"/><path class="cls-2" d="M105.45,85.72a5.12,5.12,0,0,1-2.58,0A7.08,7.08,0,0,0,101.46,88c.92.67,2.52.54,3.64.75.81,5.63-3.25,8.5-9.45,6.65-4.07-1.81-5.78-5.86-3.45-13.73,3.53-6.27,7.41-9,11.75-7.52.87.44,2,1.35.65,2.2-.87.58-.63,1,.54,1.2s2.21-.07,2.58-2.22a10,10,0,0,0-.53-3.54c-.68-2.52-3.52-3.28-8.41-2.69-5.9,1.59-9.71,7-10.79,12.35C86.7,88,87.1,93.72,91,97.56c4.08,3.41,7.57,4,12.94,3.75,5.1-2.3,5.47-10.41,4.09-13.63-.85-1.26-.41-2.33.54-3.32a2,2,0,0,0-1.72-.75,3.76,3.76,0,0,1-1.41,2.11"/><path class="cls-2" d="M131.75,70.3c-5-2.22-11.82-2.85-16.48,0-4.31,3-5,5.94-4.42,8.9a19.27,19.27,0,0,1,5.39-4.39c2.87-1,4.46-.13,4.09,2.75l-1.83,7.65c-2.18,12.24.2,16.3,5,16.1.88-.14,1.52-.45,1.29-1.39a15,15,0,0,1-1.29-5.37q-.22-8.49-.44-17a2.68,2.68,0,0,1,.66-1.9c3-2,5.74-1.44,7.65,1.9l2.37-2.81c1.08-1.66.2-3.12-1.95-4.45"/><path class="cls-4" d="M97.28,37.54c7.43-10.13,12.53-7.31,16.82,0,.58,1.35,1.49,1.78,2.9.64,13.75-6.32,29.26-3,29.76,20.61C143.3,76.09,134.89,83.19,124,85.3,136.9,85,153.14,75,154.18,58.36c.42-22.65-13.45-33.66-38.47-21.92-5.55-9.87-11.06-8.68-16.7-3.84a14.06,14.06,0,0,0-3,5.16c-.21,2,.21,1.92,1.29-.22"/><path class="cls-5" d="M99.55,96c-11,.71-21.76,2-30.24,8.79l.65,3.55A16.25,16.25,0,0,1,76.8,103a86.4,86.4,0,0,1-1.24,18.18c0,2.54,1.62,2.91,2.11,2a74.61,74.61,0,0,0,1.67-20A1.7,1.7,0,0,1,81,101.4a75.94,75.94,0,0,1,21.88-2.9c1.27-2.26.06-3-3.28-2.52"/><path class="cls-5" d="M84.83,111.27s.16,8.91,0,9.18c.25,2.77,1.84,3.08,2.37,1.66L86.83,111c-.41-.54-1-.61-2,.32"/><path class="cls-5" d="M94.43,111.6a5.93,5.93,0,0,1-2.65,0c-.41,1.3.26,1.49.9,1.8l1.26,0a22.31,22.31,0,0,1,0,3.92H92.21c-.43.41-.41,1.09.38,2.2.76-.49,1.42-.87,1.54,0l.14,7.29c.39,1.1,1,.2,1.88-2v-4.61a11.56,11.56,0,0,0,5.38-3.71c1.09-1.27,1.81-3.21.76-6.49-.43-1.06-1.59-1.42-3.66-.91a20.12,20.12,0,0,0-4.2,2.47m6.41,3.21A6,6,0,0,1,96.1,118v-4.93l3.34-2.1c1.69-.71,2.67-.26,1.4,3.86"/><path class="cls-5" d="M113,106.07l-.81,1.61a4.94,4.94,0,0,0-3.5,1.83,9.15,9.15,0,0,0-2.31,7,3.34,3.34,0,0,0,3.24,3.12c1.31-.17,2-1.24,2.85-2.47.27-.5.55-.58.8-.11a18,18,0,0,0,.63,1.88c.59.76,1.15.23,1.69-1l-.65-10.3c-.43-1.53-1.08-2-1.94-1.61m-2.64,10.73c-2,1.47-2.24.21-1.78-1.9.42-1.33.45-2.41,1.89-3.92,2.42-2.31,2.73-.59,2,2.09a12.06,12.06,0,0,1-2.16,3.73"/><path class="cls-5" d="M122.13,109.13a1.54,1.54,0,0,1-.51-2.9l2.85-1.29a.7.7,0,0,0,0-1.07c-.21-.59-1.12-.46-2.32,0a4.4,4.4,0,0,0-2.65,2.52c-.82,2.22-.39,4,1.89,4l2.22-.29c1.22.23.76,1.15.37,2-1.2,1.5-1.6,2-3,2.3-1.26.61-.62,1.64.06,1.61a7.14,7.14,0,0,0,4.85-3.91c1.07-2.45.26-3.11-1.3-3.06Z"/><path class="cls-5" d="M138.85,104a7.07,7.07,0,0,1-2.83-3.37,5.68,5.68,0,0,1,0-3.06c-.35-1.1-1-1.42-2.25,0a4.86,4.86,0,0,0-.33,1.93,3.83,3.83,0,0,0-1.73,1c-.92.73-1.26,2.55-1.39,3.66-.35,2.91.31,3.58,1.39,4.72a5,5,0,0,0,4.42,1.35,4.87,4.87,0,0,0,2.22-2.64,5.77,5.77,0,0,0,3,0c1.06,0,1.41-3.06.49-3.06a5,5,0,0,1-3-.49m-6.49,2.85c-1.16-1.84.29-4.29,2.35-5.39a14.33,14.33,0,0,0,2.94,3.68c-1.07,3.4-2.83,4.27-5.29,1.71"/><path class="cls-6" d="M83.06,75.11l2.69-6.23c.55-.94.16-1.44-1-1.61a95.31,95.31,0,0,0-12.07,0c-5.26,1.52-5.83,3.9-6.15,6.33-.18,7-.22,14,0,20.93.11,3,1.16,4.59,3,4.94a59.52,59.52,0,0,0,16.17-.86c-1.32-.77-1.94-2-1.5-4.08.61-2.11-.21-3.4-3.13-2a3.17,3.17,0,0,1-1.3,2c-1.71,1-3.76,1.36-7.43-.86-2-1.31-3.47-3.21-.92-8.34,2.59-2.92,5.43-3.52,6.85-.46.91.34,1.56.27,1.82-.43-.72-2.34.09-4.18,2.27-5.58-1.76-1.82-2.57-4.16-5.5.43l-6.52,1.32c.51-5.26,2.89-9.75,9.92-8.32a10.35,10.35,0,0,1,2.75,2.82"/><path class="cls-6" d="M105.79,83.88a5.36,5.36,0,0,1-2.58,0,7,7,0,0,0-1.4,2.25c.91.67,2.51.54,3.63.75.82,5.64-3.25,8.5-9.45,6.65-4.07-1.8-5.78-5.85-3.45-13.73,3.52-6.27,7.41-9,11.75-7.52.87.44,2,1.34.65,2.2-.87.58-.64,1,.53,1.2s2.22-.06,2.59-2.22a9.79,9.79,0,0,0-.54-3.54c-.67-2.52-3.51-3.28-8.4-2.68-5.91,1.58-9.71,7-10.78,12.34-1.3,6.58-.9,12.26,3,16.1,4.07,3.41,7.57,4,12.94,3.76,5.1-2.31,5.46-10.41,4.09-13.63-.84-1.27-.41-2.34.54-3.33a2.07,2.07,0,0,0-1.72-.75,3.84,3.84,0,0,1-1.41,2.12"/><path class="cls-6" d="M132.09,68.45c-5-2.22-11.83-2.84-16.49,0-4.3,3-4.94,5.94-4.41,8.91a19.37,19.37,0,0,1,5.38-4.4c2.87-1,4.48-.13,4.1,2.75l-1.83,7.66c-2.18,12.24.2,16.29,5,16.1.88-.15,1.52-.46,1.29-1.4a15,15,0,0,1-1.29-5.37q-.22-8.49-.44-17a2.66,2.66,0,0,1,.65-1.89c3-2,5.75-1.45,7.65,1.89L134,72.9c1.09-1.66.21-3.12-1.94-4.45"/></g></g></svg>